<svg xmlns="http://www.w3.org/2000/svg" viewBox="0 0 128 128" width="128" height="128" fill="#34324E">

<path d="M3.1 0 L18.7 0 Q21.9 0 21.9 3.1L21.9 18.7 Q21.9 21.9 18.7 21.9L3.1 21.9 Q0 21.9 0 18.7L0 3.1 L0 3.1 Q0 0 3.1 0ZM3.1 6.2 L3.1 15.6 Q3.1 18.7 6.2 18.7L15.6 18.7 Q18.7 18.7 18.7 15.6L18.7 6.2 Q18.7 3.1 15.6 3.1L6.2 3.1 L6.2 3.1 Q3.1 3.1 3.1 6.2Z"/>
<path d="M26.1 0 L30 0 Q31.2 0 31.2 1.2L31.2 2 Q31.2 3.1 30 3.1L26.1 3.1 Q25 3.1 25 2L25 1.2 Q25 0 26.1 0Z"/>
<path d="M41.8 0 L42.5 0 Q43.7 0 43.7 1.2L43.7 5.1 Q43.7 6.2 42.5 6.2L41.8 6.2 Q40.6 6.2 40.6 5.1L40.6 3.1 L40.6 1.2 Q40.6 0 41.8 0Z"/>
<path d="M51.1 0 L58.1 0 Q59.3 0 59.3 1.2L59.3 2 Q59.3 3.1 58.1 3.1L54.2 3.1 Q53.1 3.1 53.1 4.3L53.1 5.1 Q53.1 6.2 51.9 6.2L51.1 6.2 Q50 6.2 50 7.4L50 8.2 Q50 9.4 48.8 9.4L48 9.4 Q46.8 9.4 46.8 8.2L46.8 4.3 Q46.8 3.1 48 3.1L48.8 3.1 Q50 3.1 50 2L50 1.2 Q50 0 51.1 0Z"/>
<path d="M63.6 0 L64.4 0 Q65.6 0 65.6 1.2L65.6 2 Q65.6 3.1 64.4 3.1L63.6 3.1 Q62.4 3.1 62.4 2L62.4 1.2 Q62.4 0 63.6 0Z"/>
<path d="M76.1 0 L80 0 Q81.2 0 81.2 1.2L81.2 2 Q81.2 3.1 80 3.1L76.1 3.1 Q74.9 3.1 74.9 2L74.9 1.2 Q74.9 0 76.1 0Z"/>
<path d="M88.6 0 L89.4 0 Q90.5 0 90.5 1.2L90.5 2 Q90.5 3.1 89.4 3.1L88.6 3.1 Q87.4 3.1 87.4 2L87.4 1.2 Q87.4 0 88.6 0Z"/>
<path d="M94.8 0 L95.6 0 Q96.8 0 96.8 1.2L96.8 5.1 Q96.8 6.2 98 6.2L98.7 6.2 Q99.9 6.2 99.9 5.1L99.9 4.3 Q99.9 3.1 101.1 3.1L101.9 3.1 Q103 3.1 103 4.3L103 20.7 Q103 21.9 101.9 21.9L101.1 21.9 Q99.9 21.9 99.9 20.7L99.9 10.5 Q99.9 9.4 98.7 9.4L98 9.4 Q96.8 9.4 96.8 10.5L96.8 14.4 Q96.8 15.6 95.6 15.6L88.6 15.6 Q87.4 15.6 87.4 14.4L87.4 10.5 Q87.4 9.4 86.2 9.4L85.5 9.4 Q84.3 9.4 84.3 8.2L84.3 7.4 Q84.3 6.2 85.5 6.2L89.4 6.2 Q90.5 6.2 90.5 7.4L90.5 11.3 Q90.5 12.5 91.7 12.5L92.5 12.5 Q93.7 12.5 93.7 11.3L93.7 7.4 Q93.7 6.2 92.5 6.2L91.7 6.2 Q90.5 6.2 90.5 5.1L90.5 4.3 Q90.5 3.1 91.7 3.1L92.5 3.1 Q93.7 3.1 93.7 2L93.7 1.2 Q93.7 0 94.8 0Z"/>
<path d="M109.3 0 L124.9 0 Q128 0 128 3.1L128 18.7 Q128 21.9 124.9 21.9L109.3 21.9 Q106.1 21.9 106.1 18.7L106.1 3.1 L106.1 3.1 Q106.1 0 109.3 0ZM109.3 6.2 L109.3 15.6 Q109.3 18.7 112.4 18.7L121.8 18.7 Q124.9 18.7 124.9 15.6L124.9 6.2 Q124.9 3.1 121.8 3.1L112.4 3.1 L112.4 3.1 Q109.3 3.1 109.3 6.2Z"/>
<path d="M32.4 3.1 L33.2 3.1 Q34.3 3.1 34.3 4.3L34.3 5.1 Q34.3 6.2 35.5 6.2L36.3 6.2 Q37.5 6.2 37.5 7.4L37.5 8.2 Q37.5 9.4 36.3 9.4L35.5 9.4 Q34.3 9.4 34.3 10.5L34.3 11.3 Q34.3 12.5 33.2 12.5L29.3 12.5 Q28.1 12.5 28.1 11.3L28.1 10.5 Q28.1 9.4 29.3 9.4L30 9.4 Q31.2 9.4 31.2 8.2L31.2 6.2 L31.2 4.3 Q31.2 3.1 32.4 3.1Z"/>
<path d="M66.7 3.1 L70.6 3.1 Q71.8 3.1 71.8 4.3L71.8 5.1 Q71.8 6.2 73 6.2L80 6.2 Q81.2 6.2 81.2 7.4L81.2 8.2 Q81.2 9.4 80 9.4L79.2 9.4 Q78 9.4 78 10.5L78 11.3 Q78 12.5 76.9 12.5L76.1 12.5 Q74.9 12.5 74.9 11.3L74.9 10.5 Q74.9 9.4 73.8 9.4L73 9.4 Q71.8 9.4 71.8 10.5L71.8 11.3 Q71.8 12.5 73 12.5L73.8 12.5 Q74.9 12.5 74.9 13.7L74.9 14.4 Q74.9 15.6 73.8 15.6L73 15.6 Q71.8 15.6 71.8 16.8L71.8 20.7 Q71.8 21.9 73 21.9L73.8 21.9 Q74.9 21.9 74.9 20.7L74.9 16.8 Q74.9 15.6 76.1 15.6L76.9 15.6 Q78 15.6 78 16.8L78 26.9 Q78 28.1 76.9 28.1L76.1 28.1 Q74.9 28.1 74.9 29.3L74.9 33.2 Q74.9 34.3 73.8 34.3L69.9 34.3 Q68.7 34.3 68.7 33.2L68.7 32.4 Q68.7 31.2 69.9 31.2L70.6 31.2 Q71.8 31.2 71.8 30L71.8 26.1 Q71.8 25 70.6 25L69.9 25 Q68.7 25 68.7 23.8L68.7 19.9 Q68.7 18.7 67.5 18.7L66.7 18.7 Q65.6 18.7 65.6 19.9L65.6 20.7 Q65.6 21.9 64.4 21.9L63.6 21.9 Q62.4 21.9 62.4 20.7L62.4 13.7 Q62.4 12.5 61.3 12.5L60.5 12.5 Q59.3 12.5 59.3 11.3L59.3 7.4 Q59.3 6.2 60.5 6.2L64.4 6.2 Q65.6 6.2 65.6 7.4L65.6 14.4 Q65.6 15.6 66.7 15.6L67.5 15.6 Q68.7 15.6 68.7 14.4L68.7 7.4 Q68.7 6.2 67.5 6.2L66.7 6.2 Q65.6 6.2 65.6 5.1L65.6 4.3 Q65.6 3.1 66.7 3.1Z"/>
<path d="M9.4 6.2 L12.5 6.2 Q15.6 6.2 15.6 9.4L15.6 12.5 Q15.6 15.6 12.5 15.6L9.4 15.6 Q6.2 15.6 6.2 12.5L6.2 9.4 L6.2 9.4 Q6.2 6.2 9.4 6.2Z"/>
<path d="M26.1 6.2 L26.9 6.2 Q28.1 6.2 28.1 7.4L28.1 8.2 Q28.1 9.4 26.9 9.4L26.1 9.4 Q25 9.4 25 8.2L25 7.4 Q25 6.2 26.1 6.2Z"/>
<path d="M54.2 6.2 L55 6.2 Q56.2 6.2 56.2 7.4L56.2 8.2 Q56.2 9.4 55 9.4L54.2 9.4 Q53.1 9.4 53.1 8.2L53.1 7.4 Q53.1 6.2 54.2 6.2Z"/>
<path d="M115.5 6.2 L118.6 6.2 Q121.8 6.2 121.8 9.4L121.8 12.5 Q121.8 15.6 118.6 15.6L115.5 15.6 Q112.4 15.6 112.4 12.5L112.4 9.4 L112.4 9.4 Q112.4 6.2 115.5 6.2Z"/>
<path d="M44.9 9.4 L45.7 9.4 Q46.8 9.4 46.8 10.5L46.8 11.3 Q46.8 12.5 45.7 12.5L44.9 12.5 Q43.7 12.5 43.7 11.3L43.7 10.5 Q43.7 9.4 44.9 9.4Z"/>
<path d="M38.6 12.5 L42.5 12.5 Q43.7 12.5 43.7 13.7L43.7 17.6 Q43.7 18.7 42.5 18.7L41.8 18.7 Q40.6 18.7 40.6 17.6L40.6 16.8 Q40.6 15.6 39.4 15.6L38.6 15.6 Q37.5 15.6 37.5 14.4L37.5 13.7 Q37.5 12.5 38.6 12.5Z"/>
<path d="M48 12.5 L55 12.5 Q56.2 12.5 56.2 13.7L56.2 14.4 Q56.2 15.6 55 15.6L51.1 15.6 Q50 15.6 50 16.8L50 17.6 Q50 18.7 48.8 18.7L48 18.7 Q46.8 18.7 46.8 17.6L46.8 15.6 L46.8 13.7 Q46.8 12.5 48 12.5Z"/>
<path d="M79.2 12.5 L80 12.5 Q81.2 12.5 81.2 13.7L81.2 14.4 Q81.2 15.6 80 15.6L79.2 15.6 Q78 15.6 78 14.4L78 13.7 Q78 12.5 79.2 12.5Z"/>
<path d="M26.1 15.6 L26.9 15.6 Q28.1 15.6 28.1 16.8L28.1 20.7 Q28.1 21.9 26.9 21.9L26.1 21.9 Q25 21.9 25 20.7L25 18.7 L25 16.8 Q25 15.6 26.1 15.6Z"/>
<path d="M35.5 15.6 L36.3 15.6 Q37.5 15.6 37.5 16.8L37.5 17.6 Q37.5 18.7 36.3 18.7L35.5 18.7 Q34.3 18.7 34.3 17.6L34.3 16.8 Q34.3 15.6 35.5 15.6Z"/>
<path d="M32.4 18.7 L33.2 18.7 Q34.3 18.7 34.3 19.9L34.3 20.7 Q34.3 21.9 33.2 21.9L32.4 21.9 Q31.2 21.9 31.2 20.7L31.2 19.9 Q31.2 18.7 32.4 18.7Z"/>
<path d="M38.6 18.7 L39.4 18.7 Q40.6 18.7 40.6 19.9L40.6 20.7 Q40.6 21.9 39.4 21.9L38.6 21.9 Q37.5 21.9 37.5 20.7L37.5 19.9 Q37.5 18.7 38.6 18.7Z"/>
<path d="M44.9 18.7 L45.7 18.7 Q46.8 18.7 46.8 19.9L46.8 20.7 Q46.8 21.9 48 21.9L48.8 21.9 Q50 21.9 50 23L50 23.8 Q50 25 51.1 25L51.9 25 Q53.1 25 53.1 26.1L53.1 26.9 Q53.1 28.1 51.9 28.1L51.1 28.1 Q50 28.1 50 29.3L50 30 Q50 31.2 51.1 31.2L51.9 31.2 Q53.1 31.2 53.1 32.4L53.1 33.2 Q53.1 34.3 51.9 34.3L48 34.3 Q46.8 34.3 46.8 33.2L46.8 29.3 Q46.8 28.1 45.7 28.1L44.9 28.1 Q43.7 28.1 43.7 29.3L43.7 30 Q43.7 31.2 42.5 31.2L41.8 31.2 Q40.6 31.2 40.6 30L40.6 29.3 Q40.6 28.1 39.4 28.1L38.6 28.1 Q37.5 28.1 37.5 26.9L37.5 26.1 Q37.5 25 38.6 25L39.4 25 Q40.6 25 40.6 23.8L40.6 23 Q40.6 21.9 41.8 21.9L42.5 21.9 Q43.7 21.9 43.7 20.7L43.7 19.9 Q43.7 18.7 44.9 18.7Z"/>
<path d="M51.1 18.7 L51.9 18.7 Q53.1 18.7 53.1 19.9L53.1 20.7 Q53.1 21.9 51.9 21.9L51.1 21.9 Q50 21.9 50 20.7L50 19.9 Q50 18.7 51.1 18.7Z"/>
<path d="M57.4 18.7 L58.1 18.7 Q59.3 18.7 59.3 19.9L59.3 20.7 Q59.3 21.9 58.1 21.9L57.4 21.9 Q56.2 21.9 56.2 20.7L56.2 19.9 Q56.2 18.7 57.4 18.7Z"/>
<path d="M82.3 18.7 L83.1 18.7 Q84.3 18.7 84.3 19.9L84.3 20.7 Q84.3 21.9 83.1 21.9L82.3 21.9 Q81.2 21.9 81.2 20.7L81.2 19.9 Q81.2 18.7 82.3 18.7Z"/>
<path d="M88.6 18.7 L89.4 18.7 Q90.5 18.7 90.5 19.9L90.5 23.8 Q90.5 25 89.4 25L85.5 25 Q84.3 25 84.3 23.8L84.3 23 Q84.3 21.9 85.5 21.9L86.2 21.9 Q87.4 21.9 87.4 20.7L87.4 19.9 Q87.4 18.7 88.6 18.7Z"/>
<path d="M94.8 18.7 L95.6 18.7 Q96.8 18.7 96.8 19.9L96.8 20.7 Q96.8 21.9 98 21.9L98.7 21.9 Q99.9 21.9 99.9 23L99.9 23.8 Q99.9 25 98.7 25L94.8 25 Q93.7 25 93.7 23.8L93.7 21.9 L93.7 19.9 Q93.7 18.7 94.8 18.7Z"/>
<path d="M29.3 21.9 L30 21.9 Q31.2 21.9 31.2 23L31.2 26.9 Q31.2 28.1 30 28.1L29.3 28.1 Q28.1 28.1 28.1 26.9L28.1 25 L28.1 23 Q28.1 21.9 29.3 21.9Z"/>
<path d="M60.5 21.9 L61.3 21.9 Q62.4 21.9 62.4 23L62.4 33.2 Q62.4 34.3 61.3 34.3L60.5 34.3 Q59.3 34.3 59.3 33.2L59.3 32.4 Q59.3 31.2 58.1 31.2L57.4 31.2 Q56.2 31.2 56.2 30L56.2 26.1 Q56.2 25 57.4 25L58.1 25 Q59.3 25 59.3 23.8L59.3 23 Q59.3 21.9 60.5 21.9Z"/>
<path d="M1.2 25 L2 25 Q3.1 25 3.1 26.1L3.1 26.9 Q3.1 28.1 4.3 28.1L5.1 28.1 Q6.2 28.1 6.2 29.3L6.2 33.2 Q6.2 34.3 7.4 34.3L8.2 34.3 Q9.4 34.3 9.4 33.2L9.4 29.3 Q9.4 28.1 10.5 28.1L14.4 28.1 Q15.6 28.1 15.6 29.3L15.6 30 Q15.6 31.2 16.8 31.2L20.7 31.2 Q21.9 31.2 21.9 30L21.9 29.3 Q21.9 28.1 20.7 28.1L19.9 28.1 Q18.7 28.1 18.7 26.9L18.7 26.1 Q18.7 25 19.9 25L23.8 25 Q25 25 25 26.1L25 30 Q25 31.2 26.1 31.2L33.2 31.2 Q34.3 31.2 34.3 32.4L34.3 33.2 Q34.3 34.3 35.5 34.3L36.3 34.3 Q37.5 34.3 37.5 35.5L37.5 36.3 Q37.5 37.5 36.3 37.5L35.5 37.5 Q34.3 37.5 34.3 38.6L34.3 42.5 Q34.3 43.7 33.2 43.7L29.3 43.7 Q28.1 43.7 28.1 44.9L28.1 48.8 Q28.1 50 26.9 50L26.1 50 Q25 50 25 51.1L25 51.9 Q25 53.1 23.8 53.1L19.9 53.1 Q18.7 53.1 18.7 54.2L18.7 55 Q18.7 56.2 17.6 56.2L16.8 56.2 Q15.6 56.2 15.6 55L15.6 54.2 Q15.6 53.1 14.4 53.1L13.7 53.1 Q12.5 53.1 12.5 51.9L12.5 51.1 Q12.5 50 13.7 50L14.4 50 Q15.6 50 15.6 48.8L15.6 44.9 Q15.6 43.7 16.8 43.7L20.7 43.7 Q21.9 43.7 21.9 44.9L21.9 45.7 Q21.9 46.8 20.7 46.8L19.9 46.8 Q18.7 46.8 18.7 48L18.7 48.8 Q18.7 50 19.9 50L20.7 50 Q21.9 50 21.9 48.8L21.9 48 Q21.9 46.8 23 46.8L23.8 46.8 Q25 46.8 25 45.7L25 35.5 Q25 34.3 23.8 34.3L13.7 34.3 Q12.5 34.3 12.5 35.5L12.5 36.3 Q12.5 37.5 11.3 37.5L7.4 37.5 Q6.2 37.5 6.2 38.6L6.2 45.7 Q6.2 46.8 5.1 46.8L4.3 46.8 Q3.1 46.8 3.1 45.7L3.1 44.9 Q3.1 43.7 2 43.7L1.2 43.7 Q0 43.7 0 42.5L0 41.8 Q0 40.6 1.2 40.6L2 40.6 Q3.1 40.6 3.1 39.4L3.1 38.6 Q3.1 37.5 2 37.5L1.2 37.5 Q0 37.5 0 36.3L0 35.5 Q0 34.3 1.2 34.3L2 34.3 Q3.1 34.3 3.1 33.2L3.1 32.4 Q3.1 31.2 2 31.2L1.2 31.2 Q0 31.2 0 30L0 28.1 L0 26.1 Q0 25 1.2 25ZM28.1 38.6 L28.1 39.4 Q28.1 40.6 29.3 40.6L30 40.6 Q31.2 40.6 31.2 39.4L31.2 38.6 Q31.2 37.5 30 37.5L29.3 37.5 Q28.1 37.5 28.1 38.6Z"/>
<path d="M7.4 25 L8.2 25 Q9.4 25 9.4 26.1L9.4 26.9 Q9.4 28.1 8.2 28.1L7.4 28.1 Q6.2 28.1 6.2 26.9L6.2 26.1 Q6.2 25 7.4 25Z"/>
<path d="M66.7 25 L67.5 25 Q68.7 25 68.7 26.1L68.7 26.9 Q68.7 28.1 67.5 28.1L66.7 28.1 Q65.6 28.1 65.6 26.9L65.6 26.1 Q65.6 25 66.7 25Z"/>
<path d="M110.4 25 L111.2 25 Q112.4 25 112.4 26.1L112.4 26.9 Q112.4 28.1 111.2 28.1L110.4 28.1 Q109.3 28.1 109.3 26.9L109.3 26.1 Q109.3 25 110.4 25Z"/>
<path d="M119.8 25 L120.6 25 Q121.8 25 121.8 26.1L121.8 26.9 Q121.8 28.1 122.9 28.1L123.7 28.1 Q124.9 28.1 124.9 26.9L124.9 26.1 Q124.9 25 126 25L126.8 25 Q128 25 128 26.1L128 45.7 Q128 46.8 126.8 46.8L126 46.8 Q124.9 46.8 124.9 45.7L124.9 44.9 Q124.9 43.7 123.7 43.7L122.9 43.7 Q121.8 43.7 121.8 42.5L121.8 35.5 Q121.8 34.3 120.6 34.3L119.8 34.3 Q118.6 34.3 118.6 35.5L118.6 36.3 Q118.6 37.5 117.5 37.5L116.7 37.5 Q115.5 37.5 115.5 36.3L115.5 35.5 Q115.5 34.3 114.3 34.3L110.4 34.3 Q109.3 34.3 109.3 35.5L109.3 36.3 Q109.3 37.5 110.4 37.5L114.3 37.5 Q115.5 37.5 115.5 38.6L115.5 39.4 Q115.5 40.6 114.3 40.6L113.6 40.6 Q112.4 40.6 112.4 41.8L112.4 42.5 Q112.4 43.7 111.2 43.7L110.4 43.7 Q109.3 43.7 109.3 44.9L109.3 51.9 Q109.3 53.1 110.4 53.1L111.2 53.1 Q112.4 53.1 112.4 54.2L112.4 55 Q112.4 56.2 113.6 56.2L120.6 56.2 Q121.8 56.2 121.8 55L121.8 48 Q121.8 46.8 122.9 46.8L123.7 46.8 Q124.9 46.8 124.9 48L124.9 51.9 Q124.9 53.1 126 53.1L126.8 53.1 Q128 53.1 128 54.2L128 58.1 Q128 59.3 126.8 59.3L119.8 59.3 Q118.6 59.3 118.6 60.5L118.6 64.4 Q118.6 65.6 119.8 65.6L120.6 65.6 Q121.8 65.6 121.8 66.7L121.8 70.6 Q121.8 71.8 120.6 71.8L119.8 71.8 Q118.6 71.8 118.6 70.6L118.6 69.9 Q118.6 68.7 117.5 68.7L116.7 68.7 Q115.5 68.7 115.5 67.5L115.5 60.5 Q115.5 59.3 114.3 59.3L110.4 59.3 Q109.3 59.3 109.3 58.1L109.3 57.4 Q109.3 56.2 108.1 56.2L104.2 56.2 Q103 56.2 103 57.4L103 58.1 Q103 59.3 101.9 59.3L101.1 59.3 Q99.9 59.3 99.9 60.5L99.9 61.3 Q99.9 62.4 101.1 62.4L101.9 62.4 Q103 62.4 103 63.6L103 67.5 Q103 68.7 104.2 68.7L108.1 68.7 Q109.3 68.7 109.3 69.9L109.3 70.6 Q109.3 71.8 108.1 71.8L107.3 71.8 Q106.1 71.8 106.1 73L106.1 73.8 Q106.1 74.9 107.3 74.9L108.1 74.9 Q109.3 74.9 109.3 76.1L109.3 80 Q109.3 81.2 108.1 81.2L107.3 81.2 Q106.1 81.2 106.1 80L106.1 79.2 Q106.1 78 105 78L101.1 78 Q99.9 78 99.9 76.9L99.9 76.1 Q99.9 74.9 101.1 74.9L101.9 74.9 Q103 74.9 103 73.8L103 73 Q103 71.8 101.9 71.8L94.8 71.8 Q93.7 71.8 93.7 70.6L93.7 66.7 Q93.7 65.6 92.5 65.6L91.7 65.6 Q90.5 65.6 90.5 66.7L90.5 70.6 Q90.5 71.8 89.4 71.8L88.6 71.8 Q87.4 71.8 87.4 73L87.4 76.9 Q87.4 78 88.6 78L89.4 78 Q90.5 78 90.5 79.2L90.5 86.2 Q90.5 87.4 89.4 87.4L85.5 87.4 Q84.3 87.4 84.3 86.2L84.3 79.2 Q84.3 78 83.1 78L82.3 78 Q81.2 78 81.2 76.9L81.2 76.1 Q81.2 74.9 82.3 74.9L83.1 74.9 Q84.3 74.9 84.3 73.8L84.3 69.9 Q84.3 68.7 85.5 68.7L86.2 68.7 Q87.4 68.7 87.4 67.5L87.4 66.7 Q87.4 65.6 86.2 65.6L85.5 65.6 Q84.3 65.6 84.3 64.4L84.3 63.6 Q84.3 62.4 85.5 62.4L92.5 62.4 Q93.7 62.4 93.7 61.3L93.7 60.5 Q93.7 59.3 92.5 59.3L91.7 59.3 Q90.5 59.3 90.5 58.1L90.5 57.4 Q90.5 56.2 91.7 56.2L95.6 56.2 Q96.8 56.2 96.8 55L96.8 51.1 Q96.8 50 98 50L101.9 50 Q103 50 103 48.8L103 38.6 Q103 37.5 101.9 37.5L98 37.5 Q96.8 37.5 96.8 36.3L96.8 35.5 Q96.8 34.3 95.6 34.3L91.7 34.3 Q90.5 34.3 90.5 33.2L90.5 32.4 Q90.5 31.2 89.4 31.2L88.6 31.2 Q87.4 31.2 87.4 32.4L87.4 36.3 Q87.4 37.5 88.6 37.5L92.5 37.5 Q93.7 37.5 93.7 38.6L93.7 39.4 Q93.7 40.6 94.8 40.6L95.6 40.6 Q96.8 40.6 96.8 41.8L96.8 42.5 Q96.8 43.7 95.6 43.7L91.7 43.7 Q90.5 43.7 90.5 44.9L90.5 48.8 Q90.5 50 89.4 50L85.5 50 Q84.3 50 84.3 48.8L84.3 48 Q84.3 46.8 85.5 46.8L86.2 46.8 Q87.4 46.8 87.4 45.7L87.4 41.8 Q87.4 40.6 86.2 40.6L85.5 40.6 Q84.3 40.6 84.3 39.4L84.3 38.6 Q84.3 37.5 83.1 37.5L82.3 37.5 Q81.2 37.5 81.2 36.3L81.2 35.5 Q81.2 34.3 80 34.3L79.2 34.3 Q78 34.3 78 33.2L78 29.3 Q78 28.1 79.2 28.1L80 28.1 Q81.2 28.1 81.2 29.3L81.2 30 Q81.2 31.2 82.3 31.2L83.1 31.2 Q84.3 31.2 84.3 30L84.3 29.3 Q84.3 28.1 85.5 28.1L108.1 28.1 Q109.3 28.1 109.3 29.3L109.3 30 Q109.3 31.2 110.4 31.2L117.5 31.2 Q118.6 31.2 118.6 30L118.6 28.1 L118.6 26.1 Q118.6 25 119.8 25ZM99.9 32.4 L99.9 33.2 Q99.9 34.3 101.1 34.3L105 34.3 Q106.1 34.3 106.1 33.2L106.1 32.4 Q106.1 31.2 105 31.2L103 31.2 L101.1 31.2 Q99.9 31.2 99.9 32.4ZM96.8 66.7 L96.8 67.5 Q96.8 68.7 98 68.7L98.7 68.7 Q99.9 68.7 99.9 67.5L99.9 66.7 Q99.9 65.6 98.7 65.6L98 65.6 Q96.8 65.6 96.8 66.7Z"/>
<path d="M35.5 28.1 L36.3 28.1 Q37.5 28.1 37.5 29.3L37.5 30 Q37.5 31.2 36.3 31.2L35.5 31.2 Q34.3 31.2 34.3 30L34.3 29.3 Q34.3 28.1 35.5 28.1Z"/>
<path d="M38.6 31.2 L39.4 31.2 Q40.6 31.2 40.6 32.4L40.6 33.2 Q40.6 34.3 39.4 34.3L38.6 34.3 Q37.5 34.3 37.5 33.2L37.5 32.4 Q37.5 31.2 38.6 31.2Z"/>
<path d="M44.9 34.3 L45.7 34.3 Q46.8 34.3 46.8 35.5L46.8 36.3 Q46.8 37.5 48 37.5L48.8 37.5 Q50 37.5 50 38.6L50 39.4 Q50 40.6 51.1 40.6L51.9 40.6 Q53.1 40.6 53.1 41.8L53.1 42.5 Q53.1 43.7 51.9 43.7L44.9 43.7 Q43.7 43.7 43.7 42.5L43.7 37.5 L43.7 35.5 Q43.7 34.3 44.9 34.3Z"/>
<path d="M76.1 34.3 L76.9 34.3 Q78 34.3 78 35.5L78 36.3 Q78 37.5 76.9 37.5L76.1 37.5 Q74.9 37.5 74.9 36.3L74.9 35.5 Q74.9 34.3 76.1 34.3Z"/>
<path d="M19.9 37.5 L20.7 37.5 Q21.9 37.5 21.9 38.6L21.9 39.4 Q21.9 40.6 20.7 40.6L19.9 40.6 Q18.7 40.6 18.7 39.4L18.7 38.6 Q18.7 37.5 19.9 37.5Z"/>
<path d="M38.6 37.5 L39.4 37.5 Q40.6 37.5 40.6 38.6L40.6 39.4 Q40.6 40.6 39.4 40.6L38.6 40.6 Q37.5 40.6 37.5 39.4L37.5 38.6 Q37.5 37.5 38.6 37.5Z"/>
<path d="M57.4 37.5 L67.5 37.5 Q68.7 37.5 68.7 38.6L68.7 39.4 Q68.7 40.6 67.5 40.6L66.7 40.6 Q65.6 40.6 65.6 41.8L65.6 42.5 Q65.6 43.7 66.7 43.7L67.5 43.7 Q68.7 43.7 68.7 42.5L68.7 41.8 Q68.7 40.6 69.9 40.6L70.6 40.6 Q71.8 40.6 71.8 41.8L71.8 42.5 Q71.8 43.7 73 43.7L73.8 43.7 Q74.9 43.7 74.9 44.9L74.9 45.7 Q74.9 46.8 73.8 46.8L66.7 46.8 Q65.6 46.8 65.6 48L65.6 48.8 Q65.6 50 64.4 50L60.5 50 Q59.3 50 59.3 48.8L59.3 48 Q59.3 46.8 60.5 46.8L61.3 46.8 Q62.4 46.8 62.4 45.7L62.4 41.8 Q62.4 40.6 61.3 40.6L60.5 40.6 Q59.3 40.6 59.3 41.8L59.3 42.5 Q59.3 43.7 58.1 43.7L57.4 43.7 Q56.2 43.7 56.2 42.5L56.2 40.6 L56.2 38.6 Q56.2 37.5 57.4 37.5Z"/>
<path d="M73 37.5 L73.8 37.5 Q74.9 37.5 74.9 38.6L74.9 39.4 Q74.9 40.6 73.8 40.6L73 40.6 Q71.8 40.6 71.8 39.4L71.8 38.6 Q71.8 37.5 73 37.5Z"/>
<path d="M79.2 37.5 L80 37.5 Q81.2 37.5 81.2 38.6L81.2 39.4 Q81.2 40.6 80 40.6L79.2 40.6 Q78 40.6 78 39.4L78 38.6 Q78 37.5 79.2 37.5Z"/>
<path d="M10.5 40.6 L11.3 40.6 Q12.5 40.6 12.5 41.8L12.5 42.5 Q12.5 43.7 11.3 43.7L10.5 43.7 Q9.4 43.7 9.4 42.5L9.4 41.8 Q9.4 40.6 10.5 40.6Z"/>
<path d="M116.7 40.6 L117.5 40.6 Q118.6 40.6 118.6 41.8L118.6 42.5 Q118.6 43.7 117.5 43.7L116.7 43.7 Q115.5 43.7 115.5 42.5L115.5 41.8 Q115.5 40.6 116.7 40.6Z"/>
<path d="M38.6 43.7 L42.5 43.7 Q43.7 43.7 43.7 44.9L43.7 45.7 Q43.7 46.8 42.5 46.8L41.8 46.8 Q40.6 46.8 40.6 48L40.6 48.8 Q40.6 50 41.8 50L42.5 50 Q43.7 50 43.7 51.1L43.7 51.9 Q43.7 53.1 42.5 53.1L41.8 53.1 Q40.6 53.1 40.6 54.2L40.6 58.1 Q40.6 59.3 39.4 59.3L38.6 59.3 Q37.5 59.3 37.5 58.1L37.5 57.4 Q37.5 56.2 36.3 56.2L29.3 56.2 Q28.1 56.2 28.1 57.4L28.1 58.1 Q28.1 59.3 26.9 59.3L26.1 59.3 Q25 59.3 25 60.5L25 61.3 Q25 62.4 23.8 62.4L23 62.4 Q21.9 62.4 21.9 61.3L21.9 60.5 Q21.9 59.3 20.7 59.3L19.9 59.3 Q18.7 59.3 18.7 58.1L18.7 57.4 Q18.7 56.2 19.9 56.2L23.8 56.2 Q25 56.2 25 55L25 54.2 Q25 53.1 26.1 53.1L36.3 53.1 Q37.5 53.1 37.5 51.9L37.5 46.8 L37.5 44.9 Q37.5 43.7 38.6 43.7Z"/>
<path d="M79.2 43.7 L83.1 43.7 Q84.3 43.7 84.3 44.9L84.3 45.7 Q84.3 46.8 83.1 46.8L79.2 46.8 Q78 46.8 78 45.7L78 44.9 Q78 43.7 79.2 43.7Z"/>
<path d="M98 43.7 L98.7 43.7 Q99.9 43.7 99.9 44.9L99.9 45.7 Q99.9 46.8 98.7 46.8L98 46.8 Q96.8 46.8 96.8 45.7L96.8 44.9 Q96.8 43.7 98 43.7Z"/>
<path d="M1.2 46.8 L2 46.8 Q3.1 46.8 3.1 48L3.1 48.8 Q3.1 50 4.3 50L5.1 50 Q6.2 50 6.2 48.8L6.2 48 Q6.2 46.8 7.4 46.8L11.3 46.8 Q12.5 46.8 12.5 48L12.5 48.8 Q12.5 50 11.3 50L10.5 50 Q9.4 50 9.4 51.1L9.4 51.9 Q9.4 53.1 8.2 53.1L7.4 53.1 Q6.2 53.1 6.2 54.2L6.2 61.3 Q6.2 62.4 7.4 62.4L8.2 62.4 Q9.4 62.4 9.4 63.6L9.4 64.4 Q9.4 65.6 8.2 65.6L4.3 65.6 Q3.1 65.6 3.1 64.4L3.1 63.6 Q3.1 62.4 2 62.4L1.2 62.4 Q0 62.4 0 61.3L0 60.5 Q0 59.3 1.2 59.3L2 59.3 Q3.1 59.3 3.1 58.1L3.1 54.2 Q3.1 53.1 2 53.1L1.2 53.1 Q0 53.1 0 51.9L0 50 L0 48 Q0 46.8 1.2 46.8Z"/>
<path d="M32.4 46.8 L33.2 46.8 Q34.3 46.8 34.3 48L34.3 48.8 Q34.3 50 33.2 50L32.4 50 Q31.2 50 31.2 48.8L31.2 48 Q31.2 46.8 32.4 46.8Z"/>
<path d="M48 46.8 L48.8 46.8 Q50 46.8 50 48L50 48.8 Q50 50 51.1 50L51.9 50 Q53.1 50 53.1 51.1L53.1 51.9 Q53.1 53.1 51.9 53.1L48 53.1 Q46.8 53.1 46.8 51.9L46.8 50 L46.8 48 Q46.8 46.8 48 46.8Z"/>
<path d="M69.9 50 L73.8 50 Q74.9 50 74.9 51.1L74.9 55 Q74.9 56.2 73.8 56.2L69.9 56.2 Q68.7 56.2 68.7 55L68.7 53.1 L68.7 51.1 Q68.7 50 69.9 50Z"/>
<path d="M82.3 50 L83.1 50 Q84.3 50 84.3 51.1L84.3 51.9 Q84.3 53.1 85.5 53.1L86.2 53.1 Q87.4 53.1 87.4 54.2L87.4 58.1 Q87.4 59.3 86.2 59.3L85.5 59.3 Q84.3 59.3 84.3 58.1L84.3 57.4 Q84.3 56.2 83.1 56.2L79.2 56.2 Q78 56.2 78 55L78 54.2 Q78 53.1 79.2 53.1L80 53.1 Q81.2 53.1 81.2 51.9L81.2 51.1 Q81.2 50 82.3 50Z"/>
<path d="M44.9 53.1 L45.7 53.1 Q46.8 53.1 46.8 54.2L46.8 55 Q46.8 56.2 45.7 56.2L44.9 56.2 Q43.7 56.2 43.7 55L43.7 54.2 Q43.7 53.1 44.9 53.1Z"/>
<path d="M54.2 53.1 L55 53.1 Q56.2 53.1 56.2 54.2L56.2 55 Q56.2 56.2 55 56.2L54.2 56.2 Q53.1 56.2 53.1 55L53.1 54.2 Q53.1 53.1 54.2 53.1Z"/>
<path d="M60.5 53.1 L61.3 53.1 Q62.4 53.1 62.4 54.2L62.4 55 Q62.4 56.2 61.3 56.2L60.5 56.2 Q59.3 56.2 59.3 55L59.3 54.2 Q59.3 53.1 60.5 53.1Z"/>
<path d="M10.5 59.3 L17.6 59.3 Q18.7 59.3 18.7 60.5L18.7 61.3 Q18.7 62.4 19.9 62.4L20.7 62.4 Q21.9 62.4 21.9 63.6L21.9 64.4 Q21.9 65.6 20.7 65.6L19.9 65.6 Q18.7 65.6 18.7 66.7L18.7 67.5 Q18.7 68.7 17.6 68.7L16.8 68.7 Q15.6 68.7 15.6 67.5L15.6 63.6 Q15.6 62.4 14.4 62.4L10.5 62.4 Q9.4 62.4 9.4 61.3L9.4 60.5 Q9.4 59.3 10.5 59.3Z"/>
<path d="M29.3 59.3 L36.3 59.3 Q37.5 59.3 37.5 60.5L37.5 67.5 Q37.5 68.7 38.6 68.7L39.4 68.7 Q40.6 68.7 40.6 67.5L40.6 60.5 Q40.6 59.3 41.8 59.3L42.5 59.3 Q43.7 59.3 43.7 60.5L43.7 73.8 Q43.7 74.9 42.5 74.9L38.6 74.9 Q37.5 74.9 37.5 73.8L37.5 73 Q37.5 71.8 36.3 71.8L35.5 71.8 Q34.3 71.8 34.3 70.6L34.3 69.9 Q34.3 68.7 33.2 68.7L32.4 68.7 Q31.2 68.7 31.2 69.9L31.2 76.9 Q31.2 78 30 78L29.3 78 Q28.1 78 28.1 76.9L28.1 76.1 Q28.1 74.9 26.9 74.9L23 74.9 Q21.9 74.9 21.9 73.8L21.9 73 Q21.9 71.8 23 71.8L26.9 71.8 Q28.1 71.8 28.1 70.6L28.1 69.9 Q28.1 68.7 26.9 68.7L23 68.7 Q21.9 68.7 21.9 67.5L21.9 66.7 Q21.9 65.6 23 65.6L23.8 65.6 Q25 65.6 25 64.4L25 63.6 Q25 62.4 26.1 62.4L26.9 62.4 Q28.1 62.4 28.1 61.3L28.1 60.5 Q28.1 59.3 29.3 59.3ZM31.2 63.6 L31.2 64.4 Q31.2 65.6 32.4 65.6L33.2 65.6 Q34.3 65.6 34.3 64.4L34.3 63.6 Q34.3 62.4 33.2 62.4L32.4 62.4 Q31.2 62.4 31.2 63.6Z"/>
<path d="M107.3 62.4 L108.1 62.4 Q109.3 62.4 109.3 63.6L109.3 64.4 Q109.3 65.6 108.1 65.6L107.3 65.6 Q106.1 65.6 106.1 64.4L106.1 63.6 Q106.1 62.4 107.3 62.4Z"/>
<path d="M122.9 62.4 L123.7 62.4 Q124.9 62.4 124.9 63.6L124.9 64.4 Q124.9 65.6 123.7 65.6L122.9 65.6 Q121.8 65.6 121.8 64.4L121.8 63.6 Q121.8 62.4 122.9 62.4Z"/>
<path d="M1.2 65.6 L2 65.6 Q3.1 65.6 3.1 66.7L3.1 67.5 Q3.1 68.7 2 68.7L1.2 68.7 Q0 68.7 0 67.5L0 66.7 Q0 65.6 1.2 65.6Z"/>
<path d="M10.5 65.6 L11.3 65.6 Q12.5 65.6 12.5 66.7L12.5 67.5 Q12.5 68.7 11.3 68.7L10.5 68.7 Q9.4 68.7 9.4 67.5L9.4 66.7 Q9.4 65.6 10.5 65.6Z"/>
<path d="M126 65.6 L126.8 65.6 Q128 65.6 128 66.7L128 95.6 Q128 96.8 126.8 96.8L126 96.8 Q124.9 96.8 124.9 95.6L124.9 94.8 Q124.9 93.7 123.7 93.7L122.9 93.7 Q121.8 93.7 121.8 92.5L121.8 88.6 Q121.8 87.4 122.9 87.4L123.7 87.4 Q124.9 87.4 124.9 86.2L124.9 68.7 L124.9 66.7 Q124.9 65.6 126 65.6Z"/>
<path d="M4.3 68.7 L5.1 68.7 Q6.2 68.7 6.2 69.9L6.2 73.8 Q6.2 74.9 5.1 74.9L1.2 74.9 Q0 74.9 0 73.8L0 73 Q0 71.8 1.2 71.8L2 71.8 Q3.1 71.8 3.1 70.6L3.1 69.9 Q3.1 68.7 4.3 68.7Z"/>
<path d="M13.7 68.7 L14.4 68.7 Q15.6 68.7 15.6 69.9L15.6 70.6 Q15.6 71.8 14.4 71.8L13.7 71.8 Q12.5 71.8 12.5 70.6L12.5 69.9 Q12.5 68.7 13.7 68.7Z"/>
<path d="M19.9 68.7 L20.7 68.7 Q21.9 68.7 21.9 69.9L21.9 70.6 Q21.9 71.8 20.7 71.8L19.9 71.8 Q18.7 71.8 18.7 70.6L18.7 69.9 Q18.7 68.7 19.9 68.7Z"/>
<path d="M113.6 68.7 L114.3 68.7 Q115.5 68.7 115.5 69.9L115.5 70.6 Q115.5 71.8 114.3 71.8L113.6 71.8 Q112.4 71.8 112.4 70.6L112.4 69.9 Q112.4 68.7 113.6 68.7Z"/>
<path d="M116.7 71.8 L117.5 71.8 Q118.6 71.8 118.6 73L118.6 73.8 Q118.6 74.9 119.8 74.9L120.6 74.9 Q121.8 74.9 121.8 76.1L121.8 76.9 Q121.8 78 120.6 78L119.8 78 Q118.6 78 118.6 79.2L118.6 80 Q118.6 81.2 119.8 81.2L120.6 81.2 Q121.8 81.2 121.8 82.3L121.8 83.1 Q121.8 84.3 120.6 84.3L119.8 84.3 Q118.6 84.3 118.6 85.5L118.6 86.2 Q118.6 87.4 117.5 87.4L116.7 87.4 Q115.5 87.4 115.5 88.6L115.5 89.4 Q115.5 90.5 114.3 90.5L113.6 90.5 Q112.4 90.5 112.4 89.4L112.4 88.6 Q112.4 87.4 111.2 87.4L110.4 87.4 Q109.3 87.4 109.3 86.2L109.3 85.5 Q109.3 84.3 110.4 84.3L111.2 84.3 Q112.4 84.3 112.4 83.1L112.4 82.3 Q112.4 81.2 113.6 81.2L114.3 81.2 Q115.5 81.2 115.5 80L115.5 74.9 L115.5 73 Q115.5 71.8 116.7 71.8Z"/>
<path d="M10.5 74.9 L14.4 74.9 Q15.6 74.9 15.6 76.1L15.6 76.9 Q15.6 78 14.4 78L10.5 78 Q9.4 78 9.4 76.9L9.4 76.1 Q9.4 74.9 10.5 74.9Z"/>
<path d="M19.9 74.9 L20.7 74.9 Q21.9 74.9 21.9 76.1L21.9 76.9 Q21.9 78 20.7 78L19.9 78 Q18.7 78 18.7 76.9L18.7 76.1 Q18.7 74.9 19.9 74.9Z"/>
<path d="M44.9 74.9 L45.7 74.9 Q46.8 74.9 46.8 76.1L46.8 76.9 Q46.8 78 45.7 78L44.9 78 Q43.7 78 43.7 76.9L43.7 76.1 Q43.7 74.9 44.9 74.9Z"/>
<path d="M51.1 74.9 L51.9 74.9 Q53.1 74.9 53.1 76.1L53.1 76.9 Q53.1 78 51.9 78L51.1 78 Q50 78 50 76.9L50 76.1 Q50 74.9 51.1 74.9Z"/>
<path d="M57.4 74.9 L67.5 74.9 Q68.7 74.9 68.7 76.1L68.7 76.9 Q68.7 78 67.5 78L66.7 78 Q65.6 78 65.6 79.2L65.6 80 Q65.6 81.2 64.4 81.2L63.6 81.2 Q62.4 81.2 62.4 80L62.4 79.2 Q62.4 78 61.3 78L60.5 78 Q59.3 78 59.3 79.2L59.3 80 Q59.3 81.2 58.1 81.2L54.2 81.2 Q53.1 81.2 53.1 80L53.1 79.2 Q53.1 78 54.2 78L55 78 Q56.2 78 56.2 76.9L56.2 76.1 Q56.2 74.9 57.4 74.9Z"/>
<path d="M73 74.9 L73.8 74.9 Q74.9 74.9 74.9 76.1L74.9 76.9 Q74.9 78 76.1 78L76.9 78 Q78 78 78 79.2L78 80 Q78 81.2 79.2 81.2L80 81.2 Q81.2 81.2 81.2 82.3L81.2 83.1 Q81.2 84.3 80 84.3L76.1 84.3 Q74.9 84.3 74.9 85.5L74.9 86.2 Q74.9 87.4 76.1 87.4L80 87.4 Q81.2 87.4 81.2 88.6L81.2 89.4 Q81.2 90.5 80 90.5L79.2 90.5 Q78 90.5 78 91.7L78 92.5 Q78 93.7 79.2 93.7L86.2 93.7 Q87.4 93.7 87.4 94.8L87.4 95.6 Q87.4 96.8 86.2 96.8L79.2 96.8 Q78 96.8 78 98L78 98.7 Q78 99.9 76.9 99.9L73 99.9 Q71.8 99.9 71.8 98.7L71.8 98 Q71.8 96.8 73 96.8L73.8 96.8 Q74.9 96.8 74.9 95.6L74.9 91.7 Q74.9 90.5 73.8 90.5L73 90.5 Q71.8 90.5 71.8 89.4L71.8 88.6 Q71.8 87.4 70.6 87.4L69.9 87.4 Q68.7 87.4 68.7 86.2L68.7 79.2 Q68.7 78 69.9 78L70.6 78 Q71.8 78 71.8 76.9L71.8 76.1 Q71.8 74.9 73 74.9Z"/>
<path d="M94.8 74.9 L95.6 74.9 Q96.8 74.9 96.8 76.1L96.8 76.9 Q96.8 78 95.6 78L94.8 78 Q93.7 78 93.7 76.9L93.7 76.1 Q93.7 74.9 94.8 74.9Z"/>
<path d="M1.2 78 L2 78 Q3.1 78 3.1 79.2L3.1 80 Q3.1 81.2 2 81.2L1.2 81.2 Q0 81.2 0 80L0 79.2 Q0 78 1.2 78Z"/>
<path d="M16.8 78 L17.6 78 Q18.7 78 18.7 79.2L18.7 80 Q18.7 81.2 19.9 81.2L23.8 81.2 Q25 81.2 25 82.3L25 86.2 Q25 87.4 23.8 87.4L23 87.4 Q21.9 87.4 21.9 86.2L21.9 85.5 Q21.9 84.3 20.7 84.3L19.9 84.3 Q18.7 84.3 18.7 85.5L18.7 86.2 Q18.7 87.4 19.9 87.4L20.7 87.4 Q21.9 87.4 21.9 88.6L21.9 89.4 Q21.9 90.5 20.7 90.5L16.8 90.5 Q15.6 90.5 15.6 89.4L15.6 88.6 Q15.6 87.4 14.4 87.4L13.7 87.4 Q12.5 87.4 12.5 88.6L12.5 92.5 Q12.5 93.7 11.3 93.7L10.5 93.7 Q9.4 93.7 9.4 94.8L9.4 95.6 Q9.4 96.8 8.2 96.8L1.2 96.8 Q0 96.8 0 95.6L0 94.8 Q0 93.7 1.2 93.7L5.1 93.7 Q6.2 93.7 6.2 92.5L6.2 88.6 Q6.2 87.4 5.1 87.4L4.3 87.4 Q3.1 87.4 3.1 86.2L3.1 82.3 Q3.1 81.2 4.3 81.2L5.1 81.2 Q6.2 81.2 6.2 82.3L6.2 83.1 Q6.2 84.3 7.4 84.3L14.4 84.3 Q15.6 84.3 15.6 83.1L15.6 81.2 L15.6 79.2 Q15.6 78 16.8 78Z"/>
<path d="M38.6 78 L39.4 78 Q40.6 78 40.6 79.2L40.6 80 Q40.6 81.2 39.4 81.2L38.6 81.2 Q37.5 81.2 37.5 80L37.5 79.2 Q37.5 78 38.6 78Z"/>
<path d="M98 78 L98.7 78 Q99.9 78 99.9 79.2L99.9 83.1 Q99.9 84.3 101.1 84.3L101.9 84.3 Q103 84.3 103 83.1L103 82.3 Q103 81.2 104.2 81.2L105 81.2 Q106.1 81.2 106.1 82.3L106.1 86.2 Q106.1 87.4 107.3 87.4L108.1 87.4 Q109.3 87.4 109.3 88.6L109.3 89.4 Q109.3 90.5 108.1 90.5L104.2 90.5 Q103 90.5 103 91.7L103 92.5 Q103 93.7 104.2 93.7L105 93.7 Q106.1 93.7 106.1 94.8L106.1 95.6 Q106.1 96.8 105 96.8L104.2 96.8 Q103 96.8 103 98L103 98.7 Q103 99.9 104.2 99.9L105 99.9 Q106.1 99.9 106.1 98.7L106.1 98 Q106.1 96.8 107.3 96.8L108.1 96.8 Q109.3 96.8 109.3 95.6L109.3 91.7 Q109.3 90.5 110.4 90.5L111.2 90.5 Q112.4 90.5 112.4 91.7L112.4 98.7 Q112.4 99.9 113.6 99.9L114.3 99.9 Q115.5 99.9 115.5 101.1L115.5 101.9 Q115.5 103 116.7 103L117.5 103 Q118.6 103 118.6 104.2L118.6 105 Q118.6 106.1 117.5 106.1L116.7 106.1 Q115.5 106.1 115.5 107.3L115.5 114.3 Q115.5 115.5 116.7 115.5L117.5 115.5 Q118.6 115.5 118.6 116.7L118.6 120.6 Q118.6 121.8 117.5 121.8L113.6 121.8 Q112.4 121.8 112.4 120.6L112.4 119.8 Q112.4 118.6 111.2 118.6L110.4 118.6 Q109.3 118.6 109.3 117.5L109.3 116.7 Q109.3 115.5 108.1 115.5L104.2 115.5 Q103 115.5 103 116.7L103 117.5 Q103 118.6 104.2 118.6L105 118.6 Q106.1 118.6 106.1 119.8L106.1 120.6 Q106.1 121.8 105 121.8L104.2 121.8 Q103 121.8 103 122.9L103 123.7 Q103 124.9 104.2 124.9L105 124.9 Q106.1 124.9 106.1 126L106.1 126.8 Q106.1 128 105 128L98 128 Q96.8 128 96.8 126.8L96.8 122.9 Q96.8 121.8 98 121.8L98.7 121.8 Q99.9 121.8 99.9 120.6L99.9 116.7 Q99.9 115.5 98.7 115.5L98 115.5 Q96.8 115.5 96.8 114.3L96.8 110.4 Q96.8 109.3 98 109.3L98.7 109.3 Q99.9 109.3 99.9 108.1L99.9 101.1 Q99.9 99.9 98.7 99.9L98 99.9 Q96.8 99.9 96.8 101.1L96.8 105 Q96.8 106.1 95.6 106.1L91.7 106.1 Q90.5 106.1 90.5 105L90.5 104.2 Q90.5 103 91.7 103L92.5 103 Q93.7 103 93.7 101.9L93.7 94.8 Q93.7 93.7 92.5 93.7L91.7 93.7 Q90.5 93.7 90.5 92.5L90.5 91.7 Q90.5 90.5 91.7 90.5L92.5 90.5 Q93.7 90.5 93.7 89.4L93.7 82.3 Q93.7 81.2 94.8 81.2L95.6 81.2 Q96.8 81.2 96.8 80L96.8 79.2 Q96.8 78 98 78ZM96.8 88.6 L96.8 95.6 Q96.8 96.8 98 96.8L98.7 96.8 Q99.9 96.8 99.9 95.6L99.9 88.6 Q99.9 87.4 98.7 87.4L98 87.4 Q96.8 87.4 96.8 88.6ZM103 104.2 L103 111.2 Q103 112.4 104.2 112.4L111.2 112.4 Q112.4 112.4 112.4 111.2L112.4 104.2 Q112.4 103 111.2 103L106.1 103 L104.2 103 Q103 103 103 104.2Z"/>
<path d="M32.4 81.2 L36.3 81.2 Q37.5 81.2 37.5 82.3L37.5 83.1 Q37.5 84.3 36.3 84.3L32.4 84.3 Q31.2 84.3 31.2 83.1L31.2 82.3 Q31.2 81.2 32.4 81.2Z"/>
<path d="M48 81.2 L48.8 81.2 Q50 81.2 50 82.3L50 83.1 Q50 84.3 48.8 84.3L48 84.3 Q46.8 84.3 46.8 83.1L46.8 82.3 Q46.8 81.2 48 81.2Z"/>
<path d="M60.5 81.2 L61.3 81.2 Q62.4 81.2 62.4 82.3L62.4 83.1 Q62.4 84.3 61.3 84.3L60.5 84.3 Q59.3 84.3 59.3 83.1L59.3 82.3 Q59.3 81.2 60.5 81.2Z"/>
<path d="M41.8 84.3 L42.5 84.3 Q43.7 84.3 43.7 85.5L43.7 86.2 Q43.7 87.4 44.9 87.4L51.9 87.4 Q53.1 87.4 53.1 88.6L53.1 89.4 Q53.1 90.5 51.9 90.5L51.1 90.5 Q50 90.5 50 91.7L50 92.5 Q50 93.7 48.8 93.7L48 93.7 Q46.8 93.7 46.8 92.5L46.8 91.7 Q46.8 90.5 45.7 90.5L44.9 90.5 Q43.7 90.5 43.7 91.7L43.7 92.5 Q43.7 93.7 42.5 93.7L41.8 93.7 Q40.6 93.7 40.6 94.8L40.6 95.6 Q40.6 96.8 39.4 96.8L38.6 96.8 Q37.5 96.8 37.5 98L37.5 98.7 Q37.5 99.9 36.3 99.9L35.5 99.9 Q34.3 99.9 34.3 98.7L34.3 98 Q34.3 96.8 33.2 96.8L32.4 96.8 Q31.2 96.8 31.2 98L31.2 98.7 Q31.2 99.9 30 99.9L26.1 99.9 Q25 99.9 25 98.7L25 98 Q25 96.8 26.1 96.8L26.9 96.8 Q28.1 96.8 28.1 95.6L28.1 94.8 Q28.1 93.7 29.3 93.7L30 93.7 Q31.2 93.7 31.2 92.5L31.2 91.7 Q31.2 90.5 32.4 90.5L33.2 90.5 Q34.3 90.5 34.3 91.7L34.3 92.5 Q34.3 93.7 35.5 93.7L36.3 93.7 Q37.5 93.7 37.5 92.5L37.5 91.7 Q37.5 90.5 36.3 90.5L35.5 90.5 Q34.3 90.5 34.3 89.4L34.3 88.6 Q34.3 87.4 35.5 87.4L39.4 87.4 Q40.6 87.4 40.6 86.2L40.6 85.5 Q40.6 84.3 41.8 84.3Z"/>
<path d="M57.4 84.3 L58.1 84.3 Q59.3 84.3 59.3 85.5L59.3 86.2 Q59.3 87.4 58.1 87.4L57.4 87.4 Q56.2 87.4 56.2 86.2L56.2 85.5 Q56.2 84.3 57.4 84.3Z"/>
<path d="M1.2 87.4 L2 87.4 Q3.1 87.4 3.1 88.6L3.1 89.4 Q3.1 90.5 2 90.5L1.2 90.5 Q0 90.5 0 89.4L0 88.6 Q0 87.4 1.2 87.4Z"/>
<path d="M26.1 87.4 L26.9 87.4 Q28.1 87.4 28.1 88.6L28.1 92.5 Q28.1 93.7 26.9 93.7L26.1 93.7 Q25 93.7 25 92.5L25 90.5 L25 88.6 Q25 87.4 26.1 87.4Z"/>
<path d="M60.5 87.4 L61.3 87.4 Q62.4 87.4 62.4 88.6L62.4 89.4 Q62.4 90.5 61.3 90.5L60.5 90.5 Q59.3 90.5 59.3 89.4L59.3 88.6 Q59.3 87.4 60.5 87.4Z"/>
<path d="M66.7 87.4 L67.5 87.4 Q68.7 87.4 68.7 88.6L68.7 89.4 Q68.7 90.5 67.5 90.5L66.7 90.5 Q65.6 90.5 65.6 89.4L65.6 88.6 Q65.6 87.4 66.7 87.4Z"/>
<path d="M57.4 90.5 L58.1 90.5 Q59.3 90.5 59.3 91.7L59.3 92.5 Q59.3 93.7 60.5 93.7L61.3 93.7 Q62.4 93.7 62.4 94.8L62.4 95.6 Q62.4 96.8 61.3 96.8L60.5 96.8 Q59.3 96.8 59.3 98L59.3 98.7 Q59.3 99.9 58.1 99.9L57.4 99.9 Q56.2 99.9 56.2 98.7L56.2 93.7 L56.2 91.7 Q56.2 90.5 57.4 90.5Z"/>
<path d="M13.7 93.7 L23.8 93.7 Q25 93.7 25 94.8L25 95.6 Q25 96.8 23.8 96.8L19.9 96.8 Q18.7 96.8 18.7 98L18.7 98.7 Q18.7 99.9 19.9 99.9L23.8 99.9 Q25 99.9 25 101.1L25 101.9 Q25 103 23.8 103L10.5 103 Q9.4 103 9.4 101.9L9.4 98 Q9.4 96.8 10.5 96.8L11.3 96.8 Q12.5 96.8 12.5 98L12.5 98.7 Q12.5 99.9 13.7 99.9L14.4 99.9 Q15.6 99.9 15.6 98.7L15.6 98 Q15.6 96.8 14.4 96.8L13.7 96.8 Q12.5 96.8 12.5 95.6L12.5 94.8 Q12.5 93.7 13.7 93.7Z"/>
<path d="M51.1 93.7 L51.9 93.7 Q53.1 93.7 53.1 94.8L53.1 95.6 Q53.1 96.8 51.9 96.8L51.1 96.8 Q50 96.8 50 95.6L50 94.8 Q50 93.7 51.1 93.7Z"/>
<path d="M66.7 93.7 L70.6 93.7 Q71.8 93.7 71.8 94.8L71.8 95.6 Q71.8 96.8 70.6 96.8L66.7 96.8 Q65.6 96.8 65.6 95.6L65.6 94.8 Q65.6 93.7 66.7 93.7Z"/>
<path d="M1.2 99.9 L5.1 99.9 Q6.2 99.9 6.2 101.1L6.2 101.9 Q6.2 103 5.1 103L1.2 103 Q0 103 0 101.9L0 101.1 Q0 99.9 1.2 99.9Z"/>
<path d="M41.8 99.9 L42.5 99.9 Q43.7 99.9 43.7 101.1L43.7 101.9 Q43.7 103 42.5 103L41.8 103 Q40.6 103 40.6 101.9L40.6 101.1 Q40.6 99.9 41.8 99.9Z"/>
<path d="M48 99.9 L48.8 99.9 Q50 99.9 50 101.1L50 101.9 Q50 103 48.8 103L48 103 Q46.8 103 46.8 101.9L46.8 101.1 Q46.8 99.9 48 99.9Z"/>
<path d="M60.5 99.9 L61.3 99.9 Q62.4 99.9 62.4 101.1L62.4 105 Q62.4 106.1 63.6 106.1L64.4 106.1 Q65.6 106.1 65.6 107.3L65.6 108.1 Q65.6 109.3 64.4 109.3L60.5 109.3 Q59.3 109.3 59.3 110.4L59.3 111.2 Q59.3 112.4 60.5 112.4L61.3 112.4 Q62.4 112.4 62.4 113.6L62.4 114.3 Q62.4 115.5 61.3 115.5L60.5 115.5 Q59.3 115.5 59.3 116.7L59.3 117.5 Q59.3 118.6 60.5 118.6L61.3 118.6 Q62.4 118.6 62.4 117.5L62.4 116.7 Q62.4 115.5 63.6 115.5L64.4 115.5 Q65.6 115.5 65.6 116.7L65.6 120.6 Q65.6 121.8 64.4 121.8L60.5 121.8 Q59.3 121.8 59.3 122.9L59.3 126.8 Q59.3 128 58.1 128L57.4 128 Q56.2 128 56.2 126.8L56.2 126 Q56.2 124.9 55 124.9L54.2 124.9 Q53.1 124.9 53.1 123.7L53.1 122.9 Q53.1 121.8 54.2 121.8L55 121.8 Q56.2 121.8 56.2 120.6L56.2 119.8 Q56.2 118.6 55 118.6L54.2 118.6 Q53.1 118.6 53.1 117.5L53.1 116.7 Q53.1 115.5 51.9 115.5L51.1 115.5 Q50 115.5 50 114.3L50 113.6 Q50 112.4 48.8 112.4L48 112.4 Q46.8 112.4 46.8 111.2L46.8 107.3 Q46.8 106.1 48 106.1L48.8 106.1 Q50 106.1 50 107.3L50 108.1 Q50 109.3 51.1 109.3L51.9 109.3 Q53.1 109.3 53.1 110.4L53.1 111.2 Q53.1 112.4 54.2 112.4L55 112.4 Q56.2 112.4 56.2 111.2L56.2 110.4 Q56.2 109.3 55 109.3L54.2 109.3 Q53.1 109.3 53.1 108.1L53.1 107.3 Q53.1 106.1 54.2 106.1L55 106.1 Q56.2 106.1 56.2 105L56.2 104.2 Q56.2 103 57.4 103L58.1 103 Q59.3 103 59.3 101.9L59.3 101.1 Q59.3 99.9 60.5 99.9Z"/>
<path d="M69.9 99.9 L70.6 99.9 Q71.8 99.9 71.8 101.1L71.8 101.9 Q71.8 103 73 103L73.8 103 Q74.9 103 74.9 104.2L74.9 105 Q74.9 106.1 76.1 106.1L80 106.1 Q81.2 106.1 81.2 105L81.2 101.1 Q81.2 99.9 82.3 99.9L86.2 99.9 Q87.4 99.9 87.4 101.1L87.4 108.1 Q87.4 109.3 86.2 109.3L85.5 109.3 Q84.3 109.3 84.3 110.4L84.3 117.5 Q84.3 118.6 83.1 118.6L79.2 118.6 Q78 118.6 78 119.8L78 123.7 Q78 124.9 76.9 124.9L76.1 124.9 Q74.9 124.9 74.9 123.7L74.9 122.9 Q74.9 121.8 73.8 121.8L73 121.8 Q71.8 121.8 71.8 122.9L71.8 123.7 Q71.8 124.9 73 124.9L73.8 124.9 Q74.9 124.9 74.9 126L74.9 126.8 Q74.9 128 73.8 128L69.9 128 Q68.7 128 68.7 126.8L68.7 119.8 Q68.7 118.6 69.9 118.6L73.8 118.6 Q74.9 118.6 74.9 117.5L74.9 116.7 Q74.9 115.5 76.1 115.5L76.9 115.5 Q78 115.5 78 114.3L78 113.6 Q78 112.4 79.2 112.4L80 112.4 Q81.2 112.4 81.2 111.2L81.2 110.4 Q81.2 109.3 80 109.3L73 109.3 Q71.8 109.3 71.8 108.1L71.8 107.3 Q71.8 106.1 70.6 106.1L66.7 106.1 Q65.6 106.1 65.6 105L65.6 104.2 Q65.6 103 66.7 103L67.5 103 Q68.7 103 68.7 101.9L68.7 101.1 Q68.7 99.9 69.9 99.9Z"/>
<path d="M126 99.9 L126.8 99.9 Q128 99.9 128 101.1L128 114.3 Q128 115.5 126.8 115.5L126 115.5 Q124.9 115.5 124.9 114.3L124.9 110.4 Q124.9 109.3 123.7 109.3L119.8 109.3 Q118.6 109.3 118.6 108.1L118.6 107.3 Q118.6 106.1 119.8 106.1L120.6 106.1 Q121.8 106.1 121.8 105L121.8 104.2 Q121.8 103 122.9 103L123.7 103 Q124.9 103 124.9 101.9L124.9 101.1 Q124.9 99.9 126 99.9Z"/>
<path d="M26.1 103 L26.9 103 Q28.1 103 28.1 104.2L28.1 108.1 Q28.1 109.3 26.9 109.3L26.1 109.3 Q25 109.3 25 108.1L25 106.1 L25 104.2 Q25 103 26.1 103Z"/>
<path d="M38.6 103 L39.4 103 Q40.6 103 40.6 104.2L40.6 105 Q40.6 106.1 41.8 106.1L42.5 106.1 Q43.7 106.1 43.7 107.3L43.7 111.2 Q43.7 112.4 44.9 112.4L45.7 112.4 Q46.8 112.4 46.8 113.6L46.8 117.5 Q46.8 118.6 45.7 118.6L44.9 118.6 Q43.7 118.6 43.7 117.5L43.7 116.7 Q43.7 115.5 42.5 115.5L35.5 115.5 Q34.3 115.5 34.3 114.3L34.3 113.6 Q34.3 112.4 35.5 112.4L39.4 112.4 Q40.6 112.4 40.6 111.2L40.6 110.4 Q40.6 109.3 39.4 109.3L38.6 109.3 Q37.5 109.3 37.5 108.1L37.5 106.1 L37.5 104.2 Q37.5 103 38.6 103Z"/>
<path d="M51.1 103 L51.9 103 Q53.1 103 53.1 104.2L53.1 105 Q53.1 106.1 51.9 106.1L51.1 106.1 Q50 106.1 50 105L50 104.2 Q50 103 51.1 103Z"/>
<path d="M3.1 106.1 L18.7 106.1 Q21.9 106.1 21.9 109.3L21.9 124.9 Q21.9 128 18.7 128L3.1 128 Q0 128 0 124.9L0 109.3 L0 109.3 Q0 106.1 3.1 106.1ZM3.1 112.4 L3.1 121.8 Q3.1 124.9 6.2 124.9L15.6 124.9 Q18.7 124.9 18.7 121.8L18.7 112.4 Q18.7 109.3 15.6 109.3L6.2 109.3 L6.2 109.3 Q3.1 109.3 3.1 112.4Z"/>
<path d="M32.4 106.1 L33.2 106.1 Q34.3 106.1 34.3 107.3L34.3 111.2 Q34.3 112.4 33.2 112.4L32.4 112.4 Q31.2 112.4 31.2 111.2L31.2 109.3 L31.2 107.3 Q31.2 106.1 32.4 106.1Z"/>
<path d="M107.3 106.1 L108.1 106.1 Q109.3 106.1 109.3 107.3L109.3 108.1 Q109.3 109.3 108.1 109.3L107.3 109.3 Q106.1 109.3 106.1 108.1L106.1 107.3 Q106.1 106.1 107.3 106.1Z"/>
<path d="M66.7 109.3 L67.5 109.3 Q68.7 109.3 68.7 110.4L68.7 114.3 Q68.7 115.5 67.5 115.5L66.7 115.5 Q65.6 115.5 65.6 114.3L65.6 112.4 L65.6 110.4 Q65.6 109.3 66.7 109.3Z"/>
<path d="M88.6 109.3 L92.5 109.3 Q93.7 109.3 93.7 110.4L93.7 117.5 Q93.7 118.6 92.5 118.6L91.7 118.6 Q90.5 118.6 90.5 119.8L90.5 120.6 Q90.5 121.8 89.4 121.8L85.5 121.8 Q84.3 121.8 84.3 120.6L84.3 119.8 Q84.3 118.6 85.5 118.6L86.2 118.6 Q87.4 118.6 87.4 117.5L87.4 112.4 L87.4 110.4 Q87.4 109.3 88.6 109.3Z"/>
<path d="M9.4 112.4 L12.5 112.4 Q15.6 112.4 15.6 115.5L15.6 118.6 Q15.6 121.8 12.5 121.8L9.4 121.8 Q6.2 121.8 6.2 118.6L6.2 115.5 L6.2 115.5 Q6.2 112.4 9.4 112.4Z"/>
<path d="M29.3 112.4 L30 112.4 Q31.2 112.4 31.2 113.6L31.2 114.3 Q31.2 115.5 30 115.5L29.3 115.5 Q28.1 115.5 28.1 114.3L28.1 113.6 Q28.1 112.4 29.3 112.4Z"/>
<path d="M73 112.4 L73.8 112.4 Q74.9 112.4 74.9 113.6L74.9 114.3 Q74.9 115.5 73.8 115.5L73 115.5 Q71.8 115.5 71.8 114.3L71.8 113.6 Q71.8 112.4 73 112.4Z"/>
<path d="M122.9 115.5 L123.7 115.5 Q124.9 115.5 124.9 116.7L124.9 117.5 Q124.9 118.6 123.7 118.6L122.9 118.6 Q121.8 118.6 121.8 117.5L121.8 116.7 Q121.8 115.5 122.9 115.5Z"/>
<path d="M26.1 118.6 L26.9 118.6 Q28.1 118.6 28.1 119.8L28.1 120.6 Q28.1 121.8 26.9 121.8L26.1 121.8 Q25 121.8 25 120.6L25 119.8 Q25 118.6 26.1 118.6Z"/>
<path d="M38.6 118.6 L39.4 118.6 Q40.6 118.6 40.6 119.8L40.6 123.7 Q40.6 124.9 39.4 124.9L38.6 124.9 Q37.5 124.9 37.5 123.7L37.5 121.8 L37.5 119.8 Q37.5 118.6 38.6 118.6Z"/>
<path d="M48 118.6 L51.9 118.6 Q53.1 118.6 53.1 119.8L53.1 120.6 Q53.1 121.8 51.9 121.8L51.1 121.8 Q50 121.8 50 122.9L50 123.7 Q50 124.9 48.8 124.9L48 124.9 Q46.8 124.9 46.8 123.7L46.8 121.8 L46.8 119.8 Q46.8 118.6 48 118.6Z"/>
<path d="M126 118.6 L126.8 118.6 Q128 118.6 128 119.8L128 120.6 Q128 121.8 126.8 121.8L126 121.8 Q124.9 121.8 124.9 120.6L124.9 119.8 Q124.9 118.6 126 118.6Z"/>
<path d="M32.4 121.8 L33.2 121.8 Q34.3 121.8 34.3 122.9L34.3 123.7 Q34.3 124.9 33.2 124.9L32.4 124.9 Q31.2 124.9 31.2 123.7L31.2 122.9 Q31.2 121.8 32.4 121.8Z"/>
<path d="M107.3 121.8 L108.1 121.8 Q109.3 121.8 109.3 122.9L109.3 123.7 Q109.3 124.9 108.1 124.9L107.3 124.9 Q106.1 124.9 106.1 123.7L106.1 122.9 Q106.1 121.8 107.3 121.8Z"/>
<path d="M26.1 124.9 L26.9 124.9 Q28.1 124.9 28.1 126L28.1 126.8 Q28.1 128 26.9 128L26.1 128 Q25 128 25 126.8L25 126 Q25 124.9 26.1 124.9Z"/>
<path d="M35.5 124.9 L36.3 124.9 Q37.5 124.9 37.5 126L37.5 126.8 Q37.5 128 36.3 128L35.5 128 Q34.3 128 34.3 126.8L34.3 126 Q34.3 124.9 35.5 124.9Z"/>
<path d="M41.8 124.9 L45.7 124.9 Q46.8 124.9 46.8 126L46.8 126.8 Q46.8 128 45.7 128L41.8 128 Q40.6 128 40.6 126.8L40.6 126 Q40.6 124.9 41.8 124.9Z"/>
<path d="M51.1 124.9 L51.9 124.9 Q53.1 124.9 53.1 126L53.1 126.8 Q53.1 128 51.9 128L51.1 128 Q50 128 50 126.8L50 126 Q50 124.9 51.1 124.9Z"/>
<path d="M85.5 124.9 L89.4 124.9 Q90.5 124.9 90.5 126L90.5 126.8 Q90.5 128 89.4 128L85.5 128 Q84.3 128 84.3 126.8L84.3 126 Q84.3 124.9 85.5 124.9Z"/>
<path d="M113.6 124.9 L114.3 124.9 Q115.5 124.9 115.5 126L115.5 126.8 Q115.5 128 114.3 128L113.6 128 Q112.4 128 112.4 126.8L112.4 126 Q112.4 124.9 113.6 124.9Z"/>
<path d="M126 124.9 L126.8 124.9 Q128 124.9 128 126L128 126.8 Q128 128 126.8 128L126 128 Q124.9 128 124.9 126.8L124.9 126 Q124.9 124.9 126 124.9Z"/>
<svg xmlns="http://www.w3.org/2000/svg" xmlns:xlink="http://www.w3.org/1999/xlink" x="48.65040650406504" y="56.33702882483371" width="33.40487804878049" height="17.170731707317074" viewBox="0 0 71 40" version="1.1">
  <g id="surface1">
  <path style=" stroke:none;fill-rule:nonzero;fill:rgb(0%,0%,0%);fill-opacity:1;" d="M 71.144531 14.898438 L 71.144531 24.675781 L 67.683594 24.675781 L 67.683594 17.816406 L 64.355469 17.816406 L 64.355469 24.675781 L 60.894531 24.675781 L 60.894531 14.898438 Z M 71.144531 14.898438 "/>
  <path style=" stroke:none;fill-rule:evenodd;fill:rgb(0%,0%,0%);fill-opacity:1;" d="M 53.789062 25.027344 C 56.886719 25.027344 59.1875 23.109375 59.1875 20.203125 C 59.1875 17.390625 57.488281 15.566406 54.652344 15.566406 C 53.34375 15.566406 52.265625 16.03125 51.453125 16.832031 C 51.644531 15.175781 53.035156 13.964844 54.566406 13.964844 C 54.917969 13.964844 57.574219 13.957031 57.574219 13.957031 L 59.078125 11.054688 C 59.078125 11.054688 55.742188 11.132812 54.191406 11.132812 C 50.648438 11.195312 48.253906 14.445312 48.253906 18.394531 C 48.253906 22.996094 50.589844 25.027344 53.789062 25.027344 Z M 53.808594 18.136719 C 54.957031 18.136719 55.753906 18.898438 55.753906 20.203125 C 55.753906 21.378906 55.046875 22.34375 53.808594 22.347656 C 52.625 22.347656 51.828125 21.449219 51.828125 20.222656 C 51.828125 18.917969 52.625 18.136719 53.808594 18.136719 Z M 53.808594 18.136719 "/>
  <path style=" stroke:none;fill-rule:nonzero;fill:rgb(0%,0%,0%);fill-opacity:1;" d="M 45.4375 21.402344 C 45.4375 21.402344 44.621094 21.878906 43.398438 21.96875 C 41.996094 22.011719 40.746094 21.117188 40.746094 19.527344 C 40.746094 17.976562 41.851562 17.089844 43.363281 17.089844 C 44.292969 17.089844 45.523438 17.738281 45.523438 17.738281 C 45.523438 17.738281 46.421875 16.074219 46.886719 15.242188 C 46.035156 14.589844 44.898438 14.230469 43.578125 14.230469 C 40.242188 14.230469 37.660156 16.425781 37.660156 19.507812 C 37.660156 22.628906 40.089844 24.773438 43.578125 24.707031 C 44.550781 24.671875 45.898438 24.324219 46.71875 23.792969 Z M 45.4375 21.402344 "/>
  <path style=" stroke:none;fill-rule:nonzero;fill:rgb(35.686275%,34.117647%,63.529412%);fill-opacity:1;" d="M 0 8.707031 L 4.800781 17.363281 L 4.800781 22.644531 L 0.00390625 31.289062 Z M 0 8.707031 "/>
  <path style=" stroke:none;fill-rule:nonzero;fill:rgb(85.098039%,2.745098%,31.764706%);fill-opacity:1;" d="M 18.425781 14.214844 L 22.921875 11.433594 L 32.125 11.421875 L 18.425781 19.894531 Z M 18.425781 14.214844 "/>
  <path style=" stroke:none;fill-rule:nonzero;fill:rgb(98.039216%,71.764706%,9.411765%);fill-opacity:1;" d="M 18.402344 8.65625 L 18.425781 20.117188 L 13.617188 17.136719 L 13.617188 0 Z M 18.402344 8.65625 "/>
  <path style=" stroke:none;fill-rule:nonzero;fill:rgb(92.941176%,43.529412%,14.901961%);fill-opacity:1;" d="M 32.125 11.421875 L 22.921875 11.433594 L 18.402344 8.65625 L 13.617188 0 Z M 32.125 11.421875 "/>
  <path style=" stroke:none;fill-rule:nonzero;fill:rgb(38.823529%,69.803922%,18.431373%);fill-opacity:1;" d="M 18.425781 31.335938 L 18.425781 25.773438 L 13.617188 22.847656 L 13.617188 40 Z M 18.425781 31.335938 "/>
  <path style=" stroke:none;fill-rule:nonzero;fill:rgb(7.843137%,52.941176%,78.823529%);fill-opacity:1;" d="M 22.910156 28.578125 L 4.796875 17.363281 L 0 8.707031 L 32.105469 28.566406 Z M 22.910156 28.578125 "/>
  <path style=" stroke:none;fill-rule:nonzero;fill:rgb(0.392157%,49.803922%,21.176471%);fill-opacity:1;" d="M 13.617188 40 L 18.425781 31.335938 L 22.910156 28.578125 L 32.105469 28.566406 Z M 13.617188 40 "/>
  <path style=" stroke:none;fill-rule:nonzero;fill:rgb(59.607843%,28.627451%,58.431373%);fill-opacity:1;" d="M 0.00390625 31.289062 L 13.65625 22.847656 L 9.066406 20.003906 L 4.800781 22.644531 Z M 0.00390625 31.289062 "/>
  </g>
  </svg>
</svg>