<svg xmlns="http://www.w3.org/2000/svg" viewBox="162.18 23.88 289.85 109.17">
  <path d="m 164.1737,86.6168 c 0.9361,-0.2404 1.1432,-0.7212 1.2124,-1.9271 0.0367,-0.5136 0.0692,-2.7829 0.0692,-5.8756 3e-4,-3.4024 0,-6.4295 -0.0328,-7.4604 -0.0357,-1.1001 -0.1385,-1.5117 -0.867,-1.7193 -0.6957,-0.2078 -1.1803,-0.3097 -2.1492,-0.3789 -0.244,-0.204 -0.2442,-1.479 0,-1.6502 1.7674,0 3.7776,0.1057 5.5115,0.1057 h 13.5188 c 1.8031,-1e-4 4.0903,-0.1057 5.5108,-0.1057 0.2772,0.1712 0.1749,1.4098 -0.0326,1.6174 -0.972,0.102 -1.6321,0.2732 -2.0109,0.448 -0.6258,0.2732 -0.7978,0.5829 -0.8341,1.683 -0.0327,1.3077 -0.033,4.0216 -0.033,6.8739 3e-4,2.3386 0,5.1216 0.0693,6.6699 0.0336,0.6191 0.1713,1.3077 0.7978,1.5809 0.4848,0.2076 1.2458,0.3096 2.528,0.5173 0.1058,0.2404 -0.0328,1.4753 -0.2403,1.6501 -1.8029,0 -3.916,-0.1056 -5.7192,-0.1056 -1.526,0 -4.058,0.1056 -5.5479,0.1056 -0.2401,-0.2077 -0.2076,-1.4462 -0.0692,-1.6501 0.7979,-0.1057 1.5263,-0.2077 2.0801,-0.3788 0.521,-0.1714 0.7613,-0.5502 0.7976,-1.3078 0.0332,-0.7906 0.0329,-6.8047 0.0329,-7.7336 3e-4,-3.9523 0.0364,-5.8102 -0.0692,-7.0122 -0.0321,-0.4117 -0.1712,-0.6521 -0.2769,-0.6521 -0.7609,-0.1057 -6.7937,-0.0692 -7.3473,0 -0.0361,-10e-5 -0.2769,0.4116 -0.2769,0.4443 -0.0362,0.6557 -0.0694,1.9963 -0.0694,7.322 3e-4,0.8269 0,6.5679 0.033,7.1507 0.037,0.8269 0.1056,1.4462 0.9033,1.7194 0.4484,0.1712 1.5591,0.3096 2.3205,0.4481 0.1753,0.2404 0.0364,1.4753 -0.2406,1.6501 -1.8717,0 -4.127,-0.1056 -6.0687,-0.1056 -2.877,0 -4.7465,0.1384 -5.3365,0.1384 -0.2076,-0.2405 -0.2077,-1.4425 0,-1.6502 0.798,-0.1384 1.315,-0.2732 1.8365,-0.4116 z" fill="#391303" fill-rule="evenodd"/>
  <path d="m 206.9177,86.1687 c 1.5949,-1.4425 2.0793,-4.1927 2.0793,-7.1507 0,-3.6063 -0.9363,-7.045 -3.0162,-8.7972 -0.9688,-0.7942 -1.8359,-1.1693 -3.1546,-1.1693 -0.8664,0 -1.8032,0.204 -2.4589,0.6848 -1.9409,1.3078 -2.5317,4.1965 -2.5317,7.3583 6e-4,2.9215 0.867,6.772 3.2238,8.7645 0.9692,0.7577 1.9417,1.2385 3.3623,1.2385 0.8313,0 1.7668,-0.2768 2.496,-0.9289 z M 194.7832,86.034 c -2.2179,-2.2367 -2.9435,-5.2602 -2.9435,-7.9084 2e-4,-2.8524 0.9361,-6.393 4.1929,-8.6989 1.975,-1.3733 4.6444,-2.335 7.8683,-2.335 7.282,-1e-4 11.092,4.9833 11.092,10.6915 4e-4,2.5753 -0.692,5.1217 -2.1491,7.0123 -2.4256,3.0234 -5.9268,4.3639 -9.3947,4.3639 -4.2285,0 -6.7574,-1.2385 -8.6659,-3.1254 z" fill="#391303" fill-rule="evenodd"/>
  <path d="m 221.5503,84.0378 c 2.0433,-4.7102 4.3309,-10.7935 5.2343,-13.267 0.3464,-0.8269 0.8305,-2.375 0.9325,-3.129 0.627,0.0691 1.2858,0.0692 1.978,0.0692 0.7292,-1e-4 1.3842,0 1.9744,-0.0692 0.1392,0.6191 0.4882,1.7193 0.7286,2.335 1.3194,3.4387 3.7775,10.1778 5.0961,13.3069 1.25,2.9906 1.3514,3.3003 4.2293,3.712 0.2082,0.2039 0.0692,1.5117 -0.1748,1.6501 -0.8997,0 -2.3205,-0.1056 -5.406,-0.1056 -2.6334,0 -4.2656,0.1056 -5.5806,0.1056 -0.2075,-0.2404 -0.2768,-1.4462 -0.0364,-1.6501 0.3132,-0.0365 1.4899,-0.2769 1.8032,-0.4809 0.3133,-0.2405 0.3459,-0.5172 0.3133,-0.6557 -0.1747,-1.3406 -2.9836,-9.074 -4.3678,-12.786 0,-0.0365 -0.1055,-0.0365 -0.1384,0 -0.7648,2.233 -3.2603,9.2125 -3.9524,11.6166 -0.3458,1.2386 -0.1749,1.756 0.7978,1.9599 0.6236,0.1384 1.0746,0.2076 1.8032,0.3461 0.1719,0.2039 0.102,1.3405 -0.1056,1.6501 -0.8307,0 -2.3241,-0.1056 -4.7138,-0.1056 -1.3181,0 -3.1546,0.1056 -4.4041,0.1056 -0.2073,-0.2404 -0.2404,-1.377 0,-1.6501 2.5646,-0.4117 3.0526,-0.827 3.9892,-2.9579 z" fill="#391303" fill-rule="evenodd"/>
  <path d="m 249.9419,86.034 c 0.8302,0 1.6971,-0.1057 2.2871,-1.3443 0.0373,-0.0655 0,-0.5135 -0.0326,-0.6155 -0.5572,-1.4462 -3.9196,-7.872 -5.894,-11.5512 -1.5955,-3.0271 -2.0108,-2.8886 -4.5753,-3.3003 -0.1741,-0.2077 -0.1384,-1.4462 0.102,-1.5809 0.6599,-1e-4 2.3241,0.102 5.2346,0.102 2.9142,-10e-5 5.2019,-0.0693 5.6171,-0.102 0.2412,0.1347 0.2405,1.5444 0.0693,1.6502 -0.5535,0.1019 -1.2823,0.2039 -1.5264,0.3095 -0.2762,0.1021 -0.2767,0.4445 -0.1749,0.6521 1.0421,2.3714 3.5737,7.2891 4.2658,8.5605 0.0367,0.1018 0.2076,0.1347 0.2769,0 1.49,-3.0273 2.7721,-6.6007 3.0853,-7.9412 0.1063,-0.481 0.0364,-1.0309 -0.4154,-1.1693 -0.4841,-0.1385 -1.3513,-0.3097 -2.2183,-0.4116 -0.3132,-0.1714 -0.2076,-1.5155 0.0692,-1.6502 1.5266,0.0327 3.0162,0.102 4.5388,0.102 1.3195,-10e-5 2.9471,-0.0693 4.0217,-0.102 0.2812,0.1711 0.2441,1.5444 -0.0329,1.6502 -2.4259,0.4116 -3.0162,1.1693 -3.7082,2.7502 -2.1486,4.7755 -4.7866,10.4838 -6.3457,12.8553 -1.2821,1.9233 -3.3258,5.1581 -6.0324,5.1581 -0.7608,0 -1.1766,-0.1056 -1.6975,-0.4153 -0.6591,-0.5829 -1.0747,-1.6138 -1.0747,-2.8195 0,-0.5136 0.2442,-1.5445 0.3826,-1.7849 0.7617,0.3424 2.5645,0.9981 3.7779,0.9981 z" fill="#391303" fill-rule="evenodd"/>
  <path d="m 316.1924,86.1687 c 1.5916,-1.4425 2.0797,-4.1927 2.0797,-7.1507 4e-4,-3.6063 -0.936,-7.045 -3.0162,-8.7972 -0.9725,-0.7942 -1.8395,-1.1693 -3.1545,-1.1693 -0.8669,0 -1.8032,0.204 -2.4625,0.6848 -1.941,1.3078 -2.5318,4.1965 -2.5318,7.3583 7e-4,2.9215 0.867,6.772 3.2275,8.7645 0.9696,0.7577 1.938,1.2385 3.3622,1.2385 0.831,0 1.7668,-0.2768 2.4956,-0.9289 z M 304.0587,86.034 c -2.2187,-2.2367 -2.9475,-5.2602 -2.9475,-7.9084 2e-4,-2.8524 0.9361,-6.393 4.1965,-8.6989 1.9746,-1.3733 4.6444,-2.335 7.8683,-2.335 7.2784,-1e-4 11.0921,4.9833 11.0921,10.6915 0,2.5753 -0.6921,5.1217 -2.1492,7.0123 -2.4259,3.0234 -5.9267,4.3639 -9.3947,4.3639 -4.2288,0 -6.761,-1.2385 -8.6655,-3.1254 z" fill="#391303" fill-rule="evenodd"/>
  <path d="m 345.8339,69.7727 c -1.1115,-0.6192 -2.3941,-0.8596 -3.8148,-0.8596 -3.6388,-1e-4 -5.9958,2.783 -5.9958,8.6989 6e-4,3.8467 1.8724,9.176 7.6242,9.176 0.8676,0 1.8723,-0.102 2.9143,-0.9289 0.8637,-0.6849 2.0071,-2.131 2.9105,-3.5407 0.4153,0.1055 1.1438,0.5865 1.4207,1.0308 -0.521,1.5155 -2.0801,4.3349 -3.1219,4.9177 -1.107,0.3789 -2.5646,0.8925 -5.1289,0.8925 -7.8683,0 -12.6878,-3.7447 -12.6878,-11.2415 10e-5,-3.9523 1.9781,-7.5951 5.8612,-9.4165 1.9057,-0.8961 4.1236,-1.4097 6.9649,-1.4097 3.3295,-1e-4 5.996,0.5828 7.3147,0.6193 -0.1747,1.202 -0.4517,4.1235 -0.4517,5.9813 -0.1705,0.2733 -1.6611,0.4116 -1.7303,0.1712 -0.4877,-2.2002 -0.6958,-3.3002 -2.0793,-4.0908 z" fill="#391303" fill-rule="evenodd"/>
  <path d="m 371.3469,88.6458 c -1.4564,0 -3.6063,-0.1056 -6.2729,-0.1056 -3.019,0 -5.2017,0.1056 -6.4147,0.1056 -0.2762,-0.2404 -0.2441,-1.4462 0,-1.6501 1.0425,-0.1385 1.9415,-0.2769 2.3569,-0.3788 1.0388,-0.2405 1.2822,-0.6193 1.3879,-1.9272 0.1713,-3.6063 0.1382,-8.8336 0.1382,-14.3342 2e-4,-0.0692 -0.1056,-0.3095 -0.2075,-0.3095 -0.6586,-0.0693 -2.2876,-0.0692 -3.0854,-0.0328 -0.5533,0.0328 -1.0747,0.2076 -1.632,1.3405 -0.3785,0.7905 -0.7249,1.6138 -1.1765,2.9214 -0.1749,0.1712 -1.6976,-0.1383 -1.836,-0.4807 0.2776,-1.4427 0.6922,-4.4005 0.8305,-6.2546 0.0372,-0.0693 0.3133,-0.3133 0.4153,-0.2769 1.1111,0.3788 2.4952,0.4481 3.3295,0.4481 h 12.1347 c 2.1819,-1e-4 3.5692,-0.1385 4.3633,-0.3789 0.1422,0.0327 0.244,0.2732 0.244,0.3424 -0.4149,1.8214 -0.7613,4.0216 -0.8997,6.3603 -0.2439,0.1712 -1.6647,0.2768 -1.8396,0.102 -0.1705,-1.3734 -0.3461,-2.0946 -0.6593,-3.1255 -0.2398,-0.7906 -0.623,-0.9981 -1.2094,-1.0674 -1.0091,-0.102 -2.6702,-0.0691 -3.3659,-0.0327 -0.0692,0.0327 -0.1712,0.1712 -0.1712,0.3096 4e-4,4.9833 -0.1057,12.8553 0.0328,14.7459 0.0364,0.3424 0.0364,1.1693 0.7978,1.5117 0.4845,0.2076 1.5627,0.3096 2.8412,0.5173 0.2078,0.2039 0.1057,1.3733 -0.102,1.6501 z" fill="#391303" fill-rule="evenodd"/>
  <path d="m 388.9924,79.0872 c 0,-0.1384 0.1057,-0.3787 0.1748,-0.4444 0.1023,0 0.4482,0.0328 1.0055,0.0328 0.5172,0 1.0746,-0.102 1.5592,-0.3788 1.0382,-0.6194 1.7338,-1.785 1.7338,-3.7812 2e-4,-3.0235 -1.5591,-4.9505 -4.3349,-4.9505 -0.2071,0 -0.7249,0.0364 -1.0053,0.1712 -0.0321,0.0364 -0.2404,0.2769 -0.2404,0.4845 -0.036,1.2713 -0.0365,2.5426 -0.0365,7.1835 5e-4,1.8214 -0.0364,5.6354 0.0365,7.4932 0.0328,0.652 0.1712,1.4789 1.1765,1.7194 0.7653,0.2039 1.5264,0.2731 2.4954,0.3788 0.1755,0.3423 0.1055,1.3405 -0.1386,1.6501 -2.0104,0 -4.2292,-0.1056 -6.2035,-0.1056 -1.8721,0 -3.8831,0.1056 -5.7191,0.1056 -0.1379,-0.3789 -0.1385,-1.4462 0,-1.6501 0.7981,-0.1057 1.2458,-0.1385 2.0108,-0.3461 0.8674,-0.2405 0.9688,-1.0309 1.0054,-1.9233 0.0334,-1.3406 0.0692,-2.958 0.0692,-7.1143 2e-4,-3.0965 0,-5.3658 -0.0365,-6.1199 -0.069,-1.2714 -0.2768,-1.6501 -1.2129,-1.8906 -0.4838,-0.1384 -1.144,-0.2404 -1.9416,-0.346 -0.1381,-0.3788 -0.0692,-1.4098 0.1056,-1.6502 1.0751,0 2.9796,0.1057 4.9579,0.1057 2.8085,-1e-4 4.1926,-0.0692 7.4165,-0.0692 1.1081,-1e-4 3.1545,0.1712 4.681,1.2713 1.2825,0.9617 2.3895,2.4734 2.3895,4.8813 3e-4,2.9542 -1.5263,4.7429 -3.2237,5.741 -1.2126,0.7211 -2.8414,1.1693 -4.3313,1.1693 -0.7974,-1e-4 -1.2822,-0.0692 -1.6647,-0.1385 -0.3818,-0.2732 -0.7286,-1.1693 -0.7286,-1.479 z" fill="#391303" fill-rule="evenodd"/>
  <path d="m 418.8413,86.1687 c 1.5959,-1.4425 2.0798,-4.1927 2.0798,-7.1507 4e-4,-3.6063 -0.9362,-7.045 -3.0162,-8.7972 -0.9683,-0.7942 -1.8359,-1.1693 -3.1546,-1.1693 -0.8669,0 -1.8031,0.204 -2.4588,0.6848 -1.9414,1.3078 -2.5317,4.1965 -2.5317,7.3583 2e-4,2.9215 0.8669,6.772 3.2237,8.7645 0.9696,0.7577 1.9417,1.2385 3.3623,1.2385 0.8309,0 1.7668,-0.2768 2.4955,-0.9289 z M 406.7077,86.034 c -2.2187,-2.2367 -2.944,-5.2602 -2.944,-7.9084 8e-4,-2.8524 0.9326,-6.393 4.1928,-8.6989 1.9788,-1.3733 4.6445,-2.335 7.8684,-2.335 7.2825,-1e-4 11.0922,4.9833 11.0922,10.6915 0,2.5753 -0.6922,5.1217 -2.1493,7.0123 -2.4259,3.0234 -5.9267,4.3639 -9.3909,4.3639 -4.2293,0 -6.761,-1.2385 -8.6692,-3.1254 z" fill="#391303" fill-rule="evenodd"/>
  <path d="m 440.2317,69.5651 c -0.1024,0.0364 -0.2444,0.3097 -0.2773,0.4481 -0.0685,0.3423 -0.0691,4.0216 -0.0691,6.0833 6e-4,0.1057 0.1383,0.2077 0.2076,0.2077 0.3134,0.0327 0.6921,0.0328 1.4571,0.0328 1.3151,-1e-4 2.3895,-0.0693 2.7721,-0.3097 0.6929,-0.4444 1.1439,-1.3733 1.1439,-2.5753 6e-4,-2.3388 -1.2496,-3.9888 -4.3313,-3.9888 -0.244,-1e-4 -0.5901,0.0327 -0.903,0.1019 z m 6.134,13.132 c 0,-2.8194 -1.7995,-4.4695 -5.231,-4.4695 -0.1055,-10e-5 -0.7285,0 -1.0746,0.0364 -0.0726,-10e-5 -0.1748,0.0692 -0.1748,0.204 6e-4,2.5461 -0.0329,5.3294 0.0691,6.637 0.0331,0.4445 0.3461,0.929 0.5902,1.1694 0.5543,0.5464 1.7667,0.7213 2.2512,0.7213 2.011,-1e-4 3.5699,-1.4462 3.5699,-4.2986 z M 431.7044,67.6053 c 0.5532,0 2.1156,0.1057 5.303,0.1057 2.7727,-1e-4 5.2347,-0.1057 6.2073,-0.1057 3.9526,0 7.209,0.8269 7.209,4.6774 0,1.9597 -1.4899,3.5734 -3.5371,4.2619 -0.0684,0.0328 -0.0692,0.1713 0,0.204 2.7396,0.7576 5.0597,2.0655 5.0597,5.0889 2e-4,2.7503 -1.4898,4.7101 -4.4695,5.9814 -1.5955,0.6884 -4.0909,0.9981 -6.1709,0.9981 -1.5586,0 -7.6242,-0.1712 -10.0176,-0.1712 -0.1748,-0.2768 -0.2404,-1.479 0,-1.6501 1.1808,-0.1385 1.9416,-0.2405 2.5317,-0.4809 0.5179,-0.2076 0.7286,-0.6557 0.8307,-1.6501 0.0699,-0.8962 0.0691,-4.5061 0.0691,-6.9468 8e-4,-3.6063 -0.0328,-4.8813 -0.102,-6.7718 -0.0357,-0.8598 -0.1747,-1.2713 -0.9727,-1.5117 -0.6227,-0.2078 -1.5262,-0.3424 -1.9415,-0.3789 -0.2074,-0.2405 -0.1711,-1.5445 8e-4,-1.6502 z" fill="#391303" fill-rule="evenodd"/>
  <path d="m 163.9697,126.9457 c 0.0802,-1.2787 0.1851,-4.1528 0.1085,-6.1235 -0.0283,-0.4517 -0.1601,-0.6666 -0.5864,-0.7978 -0.2402,-0.0801 -0.5063,-0.1347 -0.7723,-0.1602 -0.1055,-0.1349 -0.0546,-1.1986 0.1057,-1.2787 0.4518,0 2.4515,0.0801 3.3003,0.0801 0.9071,0 1.3588,0 1.5992,-0.0545 0.1061,0.2949 0.2914,0.7212 0.4517,1.0673 0.747,1.57 1.7558,3.5918 2.2621,4.4441 0.0299,0.0255 0.0802,0.0256 0.1093,0 0.7181,-1.3842 2.1019,-4.7101 2.3132,-5.5114 0.3465,0.029 1.0928,0.0545 1.8396,0.0545 1.1183,0 2.5536,-0.0801 3.3004,-0.0801 0.1349,0.1057 0.1056,1.1985 0,1.3297 -0.506,0.08 -0.7178,0.1347 -0.9836,0.2149 -0.2691,0.0801 -0.5064,0.2113 -0.5064,0.7431 -0.0291,1.519 0.0255,4.1819 0.1056,6.393 6e-4,0.4771 0.1312,0.8488 0.6921,0.958 l 0.9035,0.1858 c 0.1352,0.0801 0.0546,1.224 -0.1311,1.2786 -0.5312,0 -2.2112,-0.0801 -2.9288,-0.0801 -1.6496,0 -2.9834,0.051 -3.3003,0.0801 -0.1599,-0.0292 -0.2404,-1.1984 -0.1094,-1.2786 1.0929,-0.1603 1.1984,-0.4007 1.2277,-0.6921 0.0766,-1.1184 0.0765,-3.4606 0.1056,-5.7264 5e-4,-0.0255 -0.0802,-0.0255 -0.0802,0 -0.6406,1.4643 -1.9706,5.1144 -2.7939,7.2418 -0.1596,0.08 -1.1729,0.2951 -1.3588,0.3206 -0.881,-2.1566 -1.9453,-4.9506 -3.0635,-7.5078 -0.0255,-0.0546 -0.1311,-0.0546 -0.1311,0.0255 7e-4,1.916 -0.0255,3.65 0.051,5.0853 0.0291,0.5063 0.2659,0.8816 0.8014,1.0127 0.2916,0.0801 0.6375,0.1603 1.1183,0.2404 0.0806,0.0801 0.051,1.1439 -0.0803,1.2786 -0.8522,0 -1.9706,-0.0801 -2.823,-0.0801 -0.7461,0 -2.1019,0.0801 -2.4515,0.0801 -0.0766,-0.1348 -0.1312,-1.1984 -0.0254,-1.2786 1.5996,-0.346 1.6792,-0.5864 1.7308,-1.4643 z" fill="#391303" fill-rule="evenodd"/>
  <path d="m 183.1118,128.2497 c 0.7688,-0.2112 0.7175,-0.5062 0.7175,-1.4389 5e-4,-1.0637 0.0255,-2.1273 0.0255,-3.1946 4e-4,-0.9325 -0.0255,-1.836 -0.051,-2.794 -0.0289,-0.4517 -0.1603,-0.6666 -0.5865,-0.7978 -0.2399,-0.0801 -0.5063,-0.1347 -0.7722,-0.1602 -0.1053,-0.1349 -0.0547,-1.1986 0.1056,-1.2787 0.4521,0 1.2786,0.0801 3.089,0.0801 1.9423,0 2.8486,-0.0801 3.06,-0.0801 0.1355,0.0801 0.1602,1.1985 0.0291,1.2787 l -0.7205,0.1602 c -0.3722,0.0765 -0.5581,0.317 -0.5837,0.612 -0.0541,0.9034 -0.0546,2.5536 -0.0837,3.9925 1e-4,0.0545 0.0837,0.0801 0.1093,0.0546 0.8785,-0.8524 2.477,-2.3715 3.3257,-3.3841 0.1059,-0.1057 0.1349,-0.1858 0.1349,-0.3169 5e-4,-0.4809 -0.1057,-0.7213 -0.4808,-0.8816 -0.1563,-0.051 -0.3716,-0.1056 -0.6631,-0.1566 -0.1342,-0.1349 -0.0546,-1.253 0.0801,-1.3588 0.6889,0 1.3043,0.0801 3.0601,0.0801 1.7851,0 2.4771,-0.0801 3.0344,-0.0801 0.1604,0.0801 0.1347,1.2241 0,1.3297 -0.3969,0.1092 -0.9326,0.2149 -1.1183,0.3205 -0.2113,0.1348 -0.266,0.2914 -0.266,0.5319 6e-4,0.9871 0.0255,4.5789 0.0801,6.5241 0,0.4516 0.1603,0.7176 0.5063,0.8524 0.3461,0.1311 0.6631,0.1311 1.0929,0.2659 0.0515,0.051 -0.0547,1.1694 -0.1603,1.2786 -0.907,-0.0292 -2.1055,-0.0801 -3.3295,-0.0801 -1.1437,0 -1.9708,0 -2.8486,0.0801 -0.0794,-0.2149 -0.1312,-0.9616 -0.0511,-1.1183 0.9036,-0.4808 1.1439,-0.6666 1.1694,-0.9326 0.0547,-0.907 0.0291,-2.6081 0.0291,-4.2874 2e-4,-0.1312 -0.1093,-0.2404 -0.1895,-0.1311 -0.7717,0.7976 -2.6081,2.4733 -3.3548,3.4314 -0.0503,0.0801 -0.1603,0.2951 -0.1603,0.5063 1e-4,0.7723 0.0546,0.9581 0.4554,1.0928 0.1857,0.0547 0.4771,0.1058 0.7977,0.1603 0.1609,0.1311 -0.0256,1.1439 -0.1348,1.2786 -0.5027,0 -2.0764,-0.0801 -3.06,-0.0801 -0.9834,0 -2.4478,0.0801 -3.0342,0.0801 -0.1056,-0.1348 -0.1057,-1.1183 0,-1.2786 0.3722,-0.0546 0.5062,-0.1055 0.7468,-0.1603 z" fill="#391303" fill-rule="evenodd"/>
  <path d="m 201.1328,128.2497 c 0.5573,-0.1602 0.6371,-0.3205 0.6916,-1.0636 0.0551,-0.7213 0.0546,-1.9707 0.0546,-3.1984 5e-4,-1.0892 0.0257,-2.1528 -0.029,-3.1655 -0.0255,-0.4517 -0.1603,-0.6666 -0.5865,-0.7978 -0.2398,-0.0801 -0.5026,-0.1347 -0.7723,-0.1602 -0.1051,-0.1349 -0.051,-1.1986 0.1092,-1.2787 0.4521,0 1.2786,0.0801 3.0855,0.0801 1.9458,0 2.7175,-0.0801 2.9288,-0.0801 0.1349,0.0801 0.1603,1.1985 0.029,1.2787 -0.2654,0.0509 -0.2658,0.0801 -0.5864,0.1602 -0.3708,0.0765 -0.5063,0.317 -0.5318,0.7723 l 4e-4,2.233 c 0,0.0546 0.0798,0.1348 0.1308,0.1348 0.3757,0.0254 0.9325,0.0255 1.4934,0.0255 0.6887,-1e-4 1.3552,0 1.6502,-0.0255 0.0262,-1e-4 0.1567,-0.0546 0.1567,-0.1348 0.0802,-0.5574 0,-2.0472 0,-2.182 7e-4,-0.4262 -0.0511,-0.663 -0.5319,-0.7978 -0.2108,-0.0547 -0.4771,-0.0801 -0.7722,-0.1347 -0.0509,-0.2114 0,-1.2239 0.1092,-1.3297 0.4776,0 2.5536,0.0801 3.0344,0.0801 1.1184,0 2.1565,-0.0545 3.2748,-0.0801 0.0516,0.2113 0.0803,1.0929 0,1.3297 l -0.8262,0.2149 c -0.5573,0.1311 -0.5871,0.2915 -0.5871,0.7431 2e-4,0.6411 -0.051,1.8105 -0.0255,3.0636 0.0257,1.4643 0.0255,2.6081 0.0547,3.2748 0.026,0.6666 0.3715,0.9034 0.8232,1.0126 l 0.7977,0.1858 c 0.1099,0.0801 -0.051,1.1439 -0.1565,1.2786 -0.7721,0 -1.1476,-0.0801 -3.3805,-0.0801 -1.7044,0 -2.6629,0.051 -2.8778,0.0801 -0.0799,-0.0801 -0.1603,-1.1984 -0.1058,-1.2786 l 0.8234,-0.1858 c 0.241,-0.0801 0.3461,-0.3751 0.3751,-0.5609 0.0512,-0.4772 0.0257,-1.9962 0.0257,-2.7685 1e-4,-0.0256 -0.0257,-0.1057 -0.1058,-0.1057 h -3.2488 c -0.0508,0 -0.1316,0.0801 -0.1316,0.1311 4e-4,0.8525 -0.0291,1.7595 0,2.5026 0.0258,0.6667 0.2914,0.7723 0.6374,0.8524 0.1859,0.0547 0.4808,0.0803 0.7176,0.1348 0.0551,0.0801 -0.0509,1.1694 -0.1565,1.2786 -0.3203,0 -1.9452,-0.0801 -3.5153,-0.0801 -1.253,0 -2.3423,0.0801 -2.8231,0.0801 -0.1052,-0.0801 -0.0801,-1.1984 0,-1.2786 0.266,-0.0546 0.4808,-0.0801 0.7472,-0.1603 z" fill="#391303" fill-rule="evenodd"/>
  <path d="m 219.2078,128.2497 c 0.7688,-0.2112 0.7175,-0.5062 0.7175,-1.4389 5e-4,-1.0637 0.0255,-2.1273 0.0255,-3.1946 4e-4,-0.9325 -0.0255,-1.836 -0.051,-2.794 -0.0289,-0.4517 -0.1604,-0.6666 -0.5865,-0.7978 -0.2399,-0.0801 -0.5064,-0.1347 -0.7723,-0.1602 -0.1053,-0.1349 -0.0546,-1.1986 0.1056,-1.2787 0.4522,0 1.2787,0.0801 3.0891,0.0801 1.9455,0 2.8486,-0.0801 3.0599,-0.0801 0.1348,0.0801 0.1603,1.1985 0.0291,1.2787 l -0.7172,0.1602 c -0.3755,0.0765 -0.5613,0.317 -0.5868,0.612 -0.0541,0.9034 -0.0546,2.5536 -0.0802,3.9925 7e-4,0.0545 0.0802,0.0801 0.1057,0.0546 0.8785,-0.8524 2.4771,-2.3715 3.3258,-3.3841 0.1099,-0.1057 0.1348,-0.1858 0.1348,-0.3169 5e-4,-0.4809 -0.1056,-0.7213 -0.4772,-0.8816 -0.16,-0.051 -0.3752,-0.1056 -0.6666,-0.1566 -0.1343,-0.1349 -0.0546,-1.253 0.0801,-1.3588 0.6921,0 1.3041,0.0801 3.0598,0.0801 1.7852,0 2.4772,-0.0801 3.0345,-0.0801 0.1605,0.0801 0.1348,1.2241 0,1.3297 -0.3969,0.1092 -0.9289,0.2149 -1.1147,0.3205 -0.2149,0.1348 -0.2695,0.2914 -0.2695,0.5319 6e-4,0.9871 0.0291,4.5789 0.0801,6.5241 0,0.4516 0.1603,0.7176 0.5064,0.8524 0.346,0.1311 0.6666,0.1311 1.0928,0.2659 0.0515,0.051 -0.0546,1.1694 -0.1603,1.2786 -0.907,-0.0292 -2.1055,-0.0801 -3.3295,-0.0801 -1.1437,0 -1.9707,0 -2.8486,0.0801 -0.0802,-0.2149 -0.1311,-0.9616 -0.051,-1.1183 0.9035,-0.4808 1.1439,-0.6666 1.1693,-0.9326 0.0547,-0.907 0.0292,-2.6081 0.0292,-4.2874 10e-5,-0.1312 -0.1093,-0.2404 -0.1858,-0.1311 -0.7723,0.7976 -2.6118,2.4733 -3.3586,3.4314 -0.0503,0.0801 -0.1567,0.2951 -0.1567,0.5063 7e-4,0.7723 0.0511,0.9581 0.4517,1.0928 0.1866,0.0547 0.4772,0.1058 0.7978,0.1603 0.1609,0.1311 -0.0255,1.1439 -0.1313,1.2786 -0.5061,0 -2.0762,-0.0801 -3.0633,-0.0801 -0.9836,0 -2.448,0.0801 -3.0346,0.0801 -0.1054,-0.1348 -0.1057,-1.1183 0,-1.2786 0.3757,-0.0546 0.5065,-0.1055 0.747,-0.1603 z" fill="#391303" fill-rule="evenodd"/>
  <path d="m 243.5127,122.6837 v 0.3205 c -0.0262,0.5064 -0.3468,2.0509 -0.4815,2.1055 -0.2397,0.1056 -5.4823,0.2113 -6.0433,0.2113 l -0.0255,-0.2914 c 0,-0.5355 0.2659,-2.1857 0.397,-2.1857 1.7348,0 5.3805,-0.1311 6.1533,-0.1602 z" fill="#391303" fill-rule="evenodd"/>
  <path d="m 254.1858,119.9152 c -0.6376,0.3751 -1.0933,1.253 -1.0933,3.2493 0,3.6208 1.1183,5.3512 2.5863,5.3512 0.2921,-1e-4 0.6375,-0.1057 0.8233,-0.266 0.5868,-0.4516 0.9579,-1.3842 0.9579,-3.5407 1e-4,-3.2494 -0.9834,-4.9796 -2.6081,-4.9796 -0.2653,-1e-4 -0.4516,0.0802 -0.6661,0.1858 z m 7.3471,4.0724 c 0,2.2659 -1.0093,3.9161 -2.4226,4.794 -1.0083,0.6374 -2.6593,1.1438 -3.967,1.1438 -4.2581,0 -6.0432,-2.5536 -6.0432,-5.8538 0,-1.9708 0.9325,-3.6756 2.426,-4.6337 0.9295,-0.5865 2.3677,-1.1438 3.9887,-1.1438 3.9715,0 6.0179,2.5791 6.0181,5.6935 z" fill="#391303" fill-rule="evenodd"/>
  <path d="m 268.8808,128.2242 c 0.6114,-0.1347 0.6915,-0.3751 0.7716,-1.1183 0.1062,-2.0254 0.0802,-3.5698 0.0802,-6.6843 6e-4,-0.0256 -0.1348,-0.2114 -0.1858,-0.2114 -0.1858,-0.0256 -0.5064,-0.0255 -0.7469,-0.0255 -0.3167,-1e-4 -0.612,0.1567 -0.9324,0.7686 -0.2367,0.4553 -0.5028,1.0928 -0.7431,1.6538 -0.0796,0.1057 -1.2531,-0.1347 -1.3588,-0.3205 0.1604,-0.827 0.4007,-2.7175 0.5063,-3.7812 0.0803,-0.0256 0.1056,-0.0255 0.1602,-0.0255 0.4521,0.0801 1.0893,0.1857 2.0218,0.1857 h 6.3896 c 1.3039,0 2.211,-0.0801 2.608,-0.1602 l 0.1099,0.1347 c -0.2411,1.0091 -0.4268,2.6338 -0.5325,3.8869 -0.1634,0.0801 -1.2785,0.0801 -1.3586,0 -0.0802,-0.6156 -0.2952,-1.4389 -0.4263,-1.8104 -0.1595,-0.4263 -0.5318,-0.5319 -0.7175,-0.561 -0.2944,-0.0255 -0.7468,-0.0547 -0.9874,0 -0.0545,0 -0.1601,0.1348 -0.1601,0.215 7e-4,2.7938 -0.0511,5.8283 0,6.8665 0.0293,0.2149 0.08,0.6666 0.5317,0.8779 0.2951,0.1091 0.7723,0.1602 1.5191,0.295 0.1062,0.1311 -0.0255,1.1184 -0.1604,1.2786 -1.1685,0 -2.8485,-0.0801 -4.047,-0.0801 -1.1729,0 -2.3969,0.0801 -3.5663,0.0801 -0.1597,-0.1348 -0.1602,-1.1475 0,-1.2786 0.6124,-0.0801 0.9836,-0.1348 1.2247,-0.1858 z" fill="#391303" fill-rule="evenodd"/>
  <path d="m 285.196,122.527 c 0,0.0509 0.0801,0.2113 0.2149,0.2113 0.7433,0.0255 2.3168,0.0546 2.7686,-0.0255 0.1352,-0.0291 0.2149,-0.1348 0.2404,-0.2404 -0.1052,-1.7303 -0.7213,-2.8231 -1.7304,-2.8231 -0.932,-1e-4 -1.4936,1.3587 -1.4935,2.8777 z m 6.9759,3.8868 c 0.0262,0.346 -0.1312,1.009 -0.1858,1.1438 -1.1437,1.4899 -3.326,2.3678 -5.0853,2.3678 -1.7302,0 -2.8486,-0.5318 -3.6464,-1.304 -1.2237,-1.1185 -1.6501,-2.9289 -1.6501,-4.4187 2e-4,-2.2367 1.0381,-4.018 2.528,-4.9505 0.9588,-0.561 2.182,-0.9581 3.3295,-0.9581 3.2462,0 4.2584,2.5536 4.4733,4.0179 0.0261,0.1858 0.346,0.4008 0.5027,0.4518 0.0299,0.1091 -0.1567,0.907 -0.2403,0.9871 -0.7978,0.3206 -4.7102,0.5319 -6.7611,0.5866 -0.0797,0.0255 -0.1311,0.2112 -0.1311,0.2914 0.0801,0.6666 0.4263,1.3587 1.0637,1.865 0.6122,0.5027 1.3041,0.7432 2.4224,0.7432 1.224,0 2.131,-0.3461 3.2493,-1.0637 0.0263,0.0255 0.1312,0.1311 0.1312,0.2404 z" fill="#391303" fill-rule="evenodd"/>
  <path d="m 298.11,126.6797 c 0.5319,-1.0928 1.5695,-3.7812 2.3163,-5.6717 0.1573,-0.4263 0.1858,-0.6374 -0.0801,-1.224 -0.0291,-0.0802 0.0255,-0.2404 0.1056,-0.2951 0.3465,-0.2914 2.4735,-1.1948 2.6082,-1.1948 0.1062,0 0.2659,0.0802 0.3206,0.2368 0.7978,2.1054 2.7685,6.9759 3.4607,8.4658 0.5319,1.1729 0.9579,1.1984 2.1563,1.4389 0.1313,0.08 0,1.1183 -0.1055,1.253 -0.7468,-0.0292 -2.7685,-0.0801 -3.5408,-0.0801 -0.8007,0 -2.4771,0.051 -2.9834,0.0801 -0.1599,-0.0547 -0.2404,-1.1984 -0.1603,-1.2786 0.2406,-0.0801 0.5609,-0.1348 0.7723,-0.2404 0.1059,-0.0546 0.2659,-0.1603 0.1311,-0.5319 -0.4767,-1.3332 -1.2239,-3.089 -1.8614,-4.5788 -0.0251,-0.0548 -0.1347,-0.0547 -0.1603,0 -0.7172,1.916 -1.2494,3.6464 -1.3843,4.0725 -0.1304,0.4262 0.0255,0.7723 0.2404,0.9071 0.212,0.1311 0.5865,0.2367 1.2532,0.3715 0.1062,0.1311 0,1.1694 -0.2149,1.2786 -0.4518,0 -2.0508,-0.0801 -2.6883,-0.0801 -0.7461,0 -1.9709,0.0801 -2.4225,0.0801 -0.1858,-0.1602 -0.2149,-1.1984 -0.0802,-1.2786 1.651,-0.295 1.6757,-0.4262 2.3173,-1.7303 z" fill="#391303" fill-rule="evenodd"/>
  <path d="m 317.4349,127.6887 c 0,0.3498 0.5058,0.827 1.0922,0.827 0.5831,-1e-4 1.5409,-0.5064 1.5409,-2.3423 3e-4,-1.4389 -0.6629,-2.6628 -2.6337,-2.6628 z m -4.2587,0.561 c 0.4769,-0.1857 0.6919,-0.4516 0.6919,-1.0636 7e-4,-1.2532 0.0254,-1.8906 0.0254,-3.1145 7e-4,-1.0419 0.0255,-2.397 -0.0254,-3.2494 -0.0289,-0.4517 -0.1604,-0.6666 -0.5865,-0.7978 -0.2398,-0.0801 -0.5064,-0.1347 -0.7723,-0.1602 -0.1052,-0.1349 -0.0546,-1.1986 0.1057,-1.2787 0.4522,0 1.2785,0.0801 3.089,0.0801 1.9416,0 2.8487,-0.0801 3.0599,-0.0801 0.1348,0.0801 0.1603,1.1985 0.0292,1.2787 l -0.7173,0.1602 c -0.3753,0.0765 -0.5868,0.2914 -0.616,0.6922 l -0.0249,1.6209 c 0.6409,-0.051 1.7843,-0.0765 2.2616,-0.0765 2.1316,0 3.9414,1.0638 3.9414,3.4606 7e-4,1.3843 -0.7176,2.6339 -2.1055,3.3551 -0.9034,0.4771 -2.1018,0.7176 -4.0726,0.7176 -1.9412,0 -3.2456,-0.0291 -5.1909,-0.0291 -0.105,-0.1859 -0.1603,-1.1438 -0.0255,-1.275 0.4517,-0.0802 0.6666,-0.1347 0.9328,-0.2405 z" fill="#391303" fill-rule="evenodd"/>
  <path d="m 362.5541,127.1059 c 0.8262,-0.907 1.5438,-1.7594 2.0501,-2.5026 0.0513,-0.0546 0.0802,-0.1893 0.0255,-0.2658 -0.6372,-1.1731 -1.3843,-2.3715 -2.0218,-3.2494 -0.5063,-0.7176 -0.7213,-1.0127 -2.3713,-1.2239 -0.1054,-0.215 -0.051,-1.1475 0.1056,-1.2787 0.2153,0 2.0509,0.0801 3.3295,0.0801 1.4101,0 3.0636,-0.0545 3.355,-0.0801 0.1057,0.1603 0.131,1.1439 0.051,1.2787 -0.1567,0.0254 -0.5319,0.0801 -0.612,0.1602 -0.2111,0.1057 -0.1603,0.2914 -0.0766,0.4263 0.2918,0.6119 0.6376,1.3295 1.0091,1.8103 0.0293,0.051 0.0801,0.0256 0.1057,0 0.5063,-0.6119 0.9325,-1.3077 1.1182,-1.6537 0.0554,-0.1858 0.1605,-0.4226 -0.1055,-0.5319 -0.2113,-0.1056 -0.4773,-0.1857 -0.7723,-0.2112 -0.025,-0.3206 0,-1.1475 0.1348,-1.2787 0.3721,0 1.2494,0.0801 2.182,0.0801 1.5194,0 1.9962,-0.0545 2.3969,-0.0801 0.106,0.1603 0.1858,0.9836 0.0801,1.2787 -1.4133,0.2659 -1.5699,0.4516 -2.2366,1.1183 -0.6914,0.743 -1.4644,1.8104 -1.9707,2.5026 -0.0255,0.0255 -0.0547,0.1311 -0.0255,0.1602 0.6122,1.0091 1.1438,1.9161 1.6756,2.7139 1.1185,1.5444 0.907,1.7849 2.9287,2.0508 0.0553,0.1858 -0.0801,1.1694 -0.2403,1.2786 -0.6626,0 -2.3933,-0.0801 -3.2748,-0.0801 l -3.1653,0.0801 c -0.1089,-0.1602 -0.1606,-1.0927 -0.1351,-1.2786 0.2113,-0.0546 0.5064,-0.1055 0.6412,-0.2404 0.0767,-0.0801 0.0764,-0.2659 0.0255,-0.4007 -0.2947,-0.5318 -0.612,-1.0382 -1.173,-1.9161 -0.0249,-0.051 -0.1057,-0.0254 -0.1312,0.0256 -0.692,1.0418 -1.1984,1.6538 -1.2275,1.8905 -0.0251,0.1857 0.0291,0.3497 0.3205,0.4553 0.215,0.0802 0.4007,0.1057 0.7468,0.1858 0.055,0.2405 -0.0547,1.0383 -0.1858,1.2786 -0.3747,0 -1.4135,-0.0801 -2.2112,-0.0801 -0.983,0 -2.5025,0.051 -2.8741,0.0801 -0.0801,-0.1894 -0.1602,-1.1183 -0.0546,-1.2786 1.5195,-0.2404 1.7048,-0.3205 2.5834,-1.3041 z" fill="#391303" fill-rule="evenodd"/>
  <path d="m 381.7217,119.9152 c -0.641,0.3751 -1.093,1.253 -1.093,3.2493 4e-4,3.6208 1.1183,5.3512 2.5827,5.3512 0.2921,-1e-4 0.641,-0.1057 0.8269,-0.266 0.5832,-0.4516 0.958,-1.3842 0.958,-3.5407 5e-4,-3.2494 -0.9872,-4.9796 -2.6119,-4.9796 -0.2652,-1e-4 -0.4516,0.0802 -0.6627,0.1858 z m 7.3479,4.0724 c 0,2.2659 -1.0133,3.9161 -2.4232,4.794 -1.0118,0.641 -2.6628,1.1438 -3.9668,1.1438 -4.2577,0 -6.0433,-2.5536 -6.0433,-5.8538 5e-4,-1.9708 0.9325,-3.6756 2.4224,-4.6337 0.9328,-0.5865 2.3677,-1.1438 3.9924,-1.1438 3.9669,0 6.0178,2.5827 6.0185,5.6935 z" fill="#391303" fill-rule="evenodd"/>
  <path d="m 399.6115,129.9254 c -1.8401,0 -3.3044,-0.7431 -4.2624,-1.9707 -0.7717,-1.0091 -1.1184,-2.3678 -1.1184,-3.7265 0,-1.7814 1.0673,-3.7775 2.8232,-4.7648 0.9585,-0.612 2.7138,-1.1693 4.0725,-1.1693 1.2792,0 1.8907,0.1603 2.4771,0.3972 0.161,0.0545 0.7467,0.3205 0.9834,0.7976 0.0808,0.1603 0.0547,0.4263 0,0.5865 -0.2111,0.612 -1.0089,1.5446 -1.3039,1.6793 -0.1054,0.0255 -0.4518,0.0511 -0.5319,-0.0291 -0.557,-0.612 -1.57,-1.9671 -2.8486,-1.9671 -1.1984,-1e-4 -2.1019,1.2495 -2.1019,3.1655 3e-4,1.0127 0.1858,2.1311 0.8488,3.009 0.8276,1.0381 1.7593,1.3041 2.7721,1.3041 1.0389,0 1.9416,-0.2659 3.1145,-1.1438 0.0809,0.0546 0.1858,0.1347 0.2114,0.2659 0.0547,0.2914 -0.0548,1.0382 -0.2915,1.3332 -1.3332,1.6209 -3.355,2.233 -4.8444,2.233 z" fill="#391303" fill-rule="evenodd"/>
  <path d="m 411.7746,128.2242 c 0.6123,-0.1347 0.6917,-0.3751 0.7718,-1.1183 0.106,-2.0254 0.0801,-3.5698 0.0801,-6.6843 5e-4,-0.0256 -0.1347,-0.2114 -0.1858,-0.2114 -0.185,-0.0256 -0.5062,-0.0255 -0.7468,-0.0255 -0.3201,-1e-4 -0.6119,0.1567 -0.9324,0.7686 -0.2401,0.4553 -0.5064,1.0928 -0.7432,1.6538 -0.0797,0.1057 -1.253,-0.1347 -1.3587,-0.3205 0.1603,-0.827 0.4007,-2.7175 0.5063,-3.7812 0.0802,-0.0256 0.1057,-0.0255 0.1603,-0.0255 0.4517,0.0801 1.0892,0.1857 2.0218,0.1857 h 6.3894 c 1.3047,0 2.2111,-0.0801 2.6082,-0.1602 l 0.1095,0.1347 c -0.2401,1.0091 -0.4264,2.6338 -0.5358,3.8869 -0.1559,0.0801 -1.2749,0.0801 -1.3551,0 -0.0794,-0.6156 -0.2951,-1.4389 -0.4261,-1.8104 -0.1598,-0.4263 -0.5319,-0.5319 -0.7177,-0.561 -0.2945,-0.0255 -0.7467,-0.051 -0.9872,0 -0.054,0 -0.1603,0.1348 -0.1603,0.215 5e-4,2.7938 -0.0509,5.8283 0,6.8665 0.0259,0.2149 0.0802,0.6666 0.5319,0.8815 0.2956,0.1055 0.7723,0.1566 1.5191,0.2914 0.106,0.1311 -0.0255,1.1184 -0.1604,1.2786 -1.1688,0 -2.8486,-0.0801 -4.047,-0.0801 -1.169,0 -2.3971,0.0801 -3.5663,0.0801 -0.1599,-0.1348 -0.1602,-1.1475 0,-1.2786 0.6121,-0.0801 0.9836,-0.1348 1.2244,-0.1858 z" fill="#391303" fill-rule="evenodd"/>
  <path d="m 428.094,122.527 c 0,0.0509 0.0798,0.2113 0.211,0.2113 0.7472,0.0255 2.3168,0.0546 2.7686,-0.0255 0.1349,-0.0291 0.2147,-0.1348 0.2402,-0.2404 -0.1053,-1.7303 -0.7175,-2.8231 -1.7303,-2.8231 -0.9322,-1e-4 -1.4898,1.3587 -1.4895,2.8777 z m 6.9758,3.8868 c 0.0254,0.346 -0.1351,1.009 -0.1897,1.1438 -1.1438,1.4899 -3.3259,2.3678 -5.0816,2.3678 -1.7332,0 -2.8487,-0.5318 -3.6501,-1.304 -1.2239,-1.1185 -1.6501,-2.9289 -1.6501,-4.4187 0,-2.2367 1.0381,-4.018 2.528,-4.9505 0.962,-0.561 2.1857,-0.9581 3.3294,-0.9581 3.2502,0 4.2586,2.5536 4.4734,4.0179 0.0259,0.1858 0.3461,0.4008 0.5064,0.4518 0.0261,0.1091 -0.1603,0.907 -0.2405,0.9871 -0.7973,0.3206 -4.7137,0.5319 -6.7609,0.5866 -0.0794,0.0255 -0.1348,0.2112 -0.1348,0.2914 0.0808,0.6666 0.4262,1.3587 1.0637,1.865 0.6162,0.5064 1.3078,0.7432 2.4261,0.7432 1.2242,0 2.1272,-0.3461 3.2456,-1.0637 0.026,0.0255 0.1349,0.1311 0.1351,0.2404 z" fill="#391303" fill-rule="evenodd"/>
  <path d="m 441.0038,126.6797 c 0.532,-1.0928 1.5698,-3.7812 2.3166,-5.6717 0.1602,-0.4263 0.1857,-0.6374 -0.0802,-1.224 -0.025,-0.0802 0.0256,-0.2404 0.1057,-0.2951 0.3462,-0.2914 2.4771,-1.1948 2.6082,-1.1948 0.1092,0 0.2695,0.0765 0.3205,0.2368 0.7985,2.1054 2.7685,6.9759 3.4606,8.4694 0.5319,1.1693 0.958,1.1948 2.1565,1.4353 0.1352,0.08 0,1.1183 -0.1056,1.253 -0.7461,-0.0292 -2.7685,-0.0801 -3.5408,-0.0801 -0.7977,0 -2.4771,0.051 -2.9833,0.0801 -0.1601,-0.0547 -0.2368,-1.1984 -0.1603,-1.2786 0.2404,-0.0801 0.5609,-0.1348 0.7722,-0.2404 0.1099,-0.051 0.2696,-0.1603 0.1348,-0.5319 -0.4806,-1.3332 -1.224,-3.089 -1.8614,-4.5788 -0.0289,-0.0548 -0.1348,-0.0547 -0.1603,0 -0.721,1.916 -1.2531,3.6464 -1.3843,4.0725 -0.1342,0.4262 0.0255,0.7723 0.2367,0.9034 0.2151,0.1348 0.5866,0.2404 1.2533,0.3752 0.106,0.1311 0,1.1694 -0.215,1.2786 -0.4511,0 -2.0474,-0.0801 -2.6884,-0.0801 -0.7428,0 -1.9708,0.0801 -2.4223,0.0801 -0.1852,-0.1602 -0.2114,-1.1984 -0.0803,-1.2786 1.6507,-0.2914 1.6794,-0.4262 2.3171,-1.7303 z" fill="#391303" fill-rule="evenodd"/>
  <path d="m 293.1086,23.8776 c -1.1917,0 -2.1315,0.2734 -2.8783,0.8344 -1.0673,0.8049 -2.1528,2.2403 -1.4644,4.6008 -0.6922,0.907 -1.1329,1.8905 -1.2022,3.6938 -0.0399,0.0654 -0.1238,0.1821 -0.1857,0.2732 -0.4772,0.6629 -1.8723,2.6045 -0.3571,5.1471 -0.3241,0.6047 -0.7758,1.5955 -0.6191,2.845 0.1056,0.8305 0.4297,2.3167 1.4352,3.3768 -1.6205,1.2749 -3.508,2.998 -4.8231,4.6992 -0.2398,0.3096 -0.5063,0.6593 -0.7941,1.0382 -1.5079,1.9852 -4.3165,5.679 -6.0688,6.7281 -3.5729,2.1455 -7.9301,9.5367 -5.2928,21.1097 1.3846,6.0687 1.621,9.3145 1.7449,11.0594 0.1134,1.5627 0.2112,2.9106 1.519,3.8905 0.5427,0.4079 1.1948,0.6265 1.8796,0.6265 1.235,-10e-5 2.6848,-0.5099 4.914,-4.2037 0.7691,-1.2713 2.0691,-3.7083 2.3677,-6.0798 0.7841,-0.113 1.9927,-0.4335 2.7941,-1.6428 0.7652,-1.1476 0.7104,-2.4042 0.6631,-3.4134 -0.0103,-0.2404 -0.0292,-0.5973 -0.0182,-0.8523 0.2113,-0.0948 0.4151,-0.1239 0.7575,-0.1749 0.7143,-0.1056 1.7887,-0.2623 2.8304,-1.1292 1.7673,-1.4717 1.4062,-3.6427 1.2095,-4.8121 -0.0577,-0.3535 -0.1238,-0.7322 -0.142,-1.06 0.1351,-0.0147 0.2769,-0.0365 0.4262,-0.0619 1.6793,-0.2951 2.9541,-1.5628 3.3257,-3.3076 0.3173,-1.4827 -0.0692,-3.0271 -0.9726,-4.2074 0.3867,-0.8415 0.816,-1.9343 0.5756,-3.2129 -0.1274,-0.6776 -0.5756,-2.0109 -2.153,-2.6665 l 0.2806,-0.3935 c 0.8786,-1.2348 1.5482,-2.171 1.8615,-3.3148 0.467,0.1674 0.8888,0.2149 1.2203,0.2149 1.0384,0 1.8287,-0.4044 2.4298,-0.9325 0.3716,0.1019 0.692,0.1202 0.8815,0.1202 1.1949,0 2.0836,-0.6521 2.375,-0.867 0.3428,-0.2551 0.674,-0.5464 0.9945,-0.8269 0.5433,-0.4736 1.4462,-1.2677 1.9015,-1.2677 0.1351,0 0.328,0.1056 0.4335,0.1676 0.7105,0.4335 0.9143,0.7139 1.0491,0.8997 0.7074,0.9799 1.6028,1.4753 2.6629,1.4753 1.5557,0 2.375,-1.06 2.8195,-1.6283 0.1459,-0.1858 0.3424,-0.4444 0.6265,-0.7758 1.0062,-1.1912 3.2165,-2.8195 4.8303,-4.0034 1.3698,-1.0091 2.1236,-1.57 2.6191,-2.0982 0.4227,-0.2296 1.4462,-0.8416 1.7813,-2.2003 0.3971,-1.6102 -0.4881,-2.9178 -1.1366,-3.8723 -1.1252,-1.6574 -2.5426,-2.4988 -4.2146,-2.4988 -0.6374,-10e-5 -1.1766,0.1202 -1.6538,0.2258 -0.3892,0.0837 -0.6958,0.153 -1.0345,0.153 -1.3333,-10e-5 -2.5063,0.3825 -3.4642,0.7103 -0.2616,-0.4226 -0.6085,-0.8852 -1.1111,-1.3441 0.525,-0.8306 0.7468,-1.8214 0.6119,-2.8232 -0.273,-2.0436 -1.8613,-3.7265 -4.721,-5.0052 -2.7827,-1.2422 -8.3673,-3.2129 -11.5146,-3.2129 z m 0,2.9835 c 2.368,0 7.4197,1.6685 10.2974,2.9543 3.4722,1.5518 3.3259,3.1765 2.5136,3.8431 -0.8159,0.6631 -2.4407,1.8469 -0.5172,2.6593 1.92,0.8123 1.9195,1.774 2.732,2.885 0.1938,0.2623 0.4663,0.3643 0.8014,0.3643 1.0644,-1e-4 2.7393,-1.0309 4.3713,-1.0309 1.1772,0 1.9743,-0.3789 2.6883,-0.3789 0.5871,-10e-5 1.1148,0.2587 1.7486,1.1912 1.4031,2.0691 0.4444,1.4061 -0.2952,2.2913 -0.7393,0.8888 -5.617,3.916 -7.6132,6.2838 -0.8084,0.958 -1.0091,1.3441 -1.1657,1.3441 -0.2295,0 -0.357,-0.8378 -2.1602,-1.9379 -0.706,-0.4299 -1.3696,-0.6048 -1.9853,-0.6048 -2.036,0 -3.5917,1.8834 -4.6664,2.6739 -0.2768,0.204 -0.4699,0.2877 -0.6046,0.2877 -0.5501,0 -0.1786,-1.3806 -0.9472,-1.6173 -0.0397,-0.0111 -0.0764,-0.0182 -0.1129,-0.0182 -0.7685,-10e-5 -1.2676,2.4478 -2.2512,2.4478 -0.1599,-10e-5 -0.3315,-0.0618 -0.5174,-0.2112 -0.5784,-0.4554 -1.3222,-0.6885 -1.9779,-0.6885 -0.9356,-1e-4 -1.7011,0.47 -1.57,1.428 0.2229,1.6246 -0.1494,1.9962 -1.774,4.2875 -1.6283,2.2911 -1.2568,2.7321 -1.0346,3.7666 0.1021,0.4844 0.6594,0.4991 1.2421,0.4991 0.0403,0 0.0802,0 0.1203,0 0.6306,0 1.2604,0.0182 1.3698,0.6119 0.2223,1.1802 -1.8469,3.1036 -0.5174,3.9998 1.3339,0.8997 1.2568,3.0198 0,3.242 -1.2561,0.2222 -2.1419,-0.4444 -2.732,1.6247 -0.5936,2.069 0.7393,4.2146 -0.1494,4.9542 -0.8852,0.7394 -1.9962,0.1457 -3.6937,1.3295 -1.7011,1.1839 -0.5173,3.9924 -1.1111,4.8777 -0.59,0.8887 -2.9542,-0.5174 -3.2529,2.7357 -0.2803,3.1145 -3.5517,7.861 -4.3422,7.861 -0.0362,0 -0.0655,-0.0109 -0.091,-0.0291 -0.5902,-0.4408 0.1493,-3.1766 -2.1419,-13.2269 -2.2906,-10.054 1.3294,-16.334 3.9158,-17.8859 2.5872,-1.5518 5.9122,-6.2109 7.6863,-8.5021 1.7742,-2.2913 4.914,-4.7648 6.2838,-5.5771 1.3663,-0.8161 1.9962,-4.2874 1.9561,-4.9541 -0.0357,-0.663 0.776,-1.6246 1.2567,-2.437 0.2812,-0.4735 0.0109,-0.6339 -0.5282,-0.6339 -0.3856,0 -0.9107,0.0802 -1.4644,0.1895 -1.3325,0.2586 -1.9598,1.8833 -1.3332,3.2894 0.6302,1.4024 -0.6266,1.8469 -0.6266,1.8469 -1.107,-10e-5 -1.4061,-0.8123 -1.5518,-1.9963 -0.1487,-1.1803 1.6247,-1.9962 0.3679,-3.7702 -1.2567,-1.7704 0.7395,-1.9197 0.8124,-3.9888 0.0767,-2.0691 0.7394,-1.8469 1.2568,-3.0307 0.5173,-1.184 -1.0346,-2.0691 0.2221,-3.0162 0.219,-0.1604 0.5938,-0.2332 1.0861,-0.2333 z" fill="#391303" fill-rule="evenodd"/>
  <path d="M 451.9507,105.7522 H 162.1804 v -4.3933 h 289.7703 z" fill="#391303" fill-rule="evenodd"/>
  <path d="m 341.7718,113.4566 c -0.6884,0.4408 -1.9929,2.7211 -2.43,5.0416 -0.6739,-0.6485 -1.3478,-1.2969 -2.0217,-1.9452 -1.3872,3.0015 1.6319,10.0284 2.7502,13.3724 h 3.4137 c 1.1221,-3.344 4.1414,-10.3709 2.7498,-13.3724 -0.6696,0.6482 -1.3441,1.2967 -2.0181,1.9452 -0.4407,-2.3206 -1.7593,-4.6008 -2.4439,-5.0416 z" fill="#391303" fill-rule="evenodd"/>
</svg>
