<svg xmlns="http://www.w3.org/2000/svg" viewBox="74.13 122.72 707.35 258.80">
  <path d="m 78.9924,275.8317 c 2.2843,-0.5866 2.7898,-1.7599 2.9587,-4.7028 0.0897,-1.2534 0.1688,-6.7915 0.1688,-14.3391 8e-4,-8.3033 0,-15.6908 -0.0799,-18.2065 -0.0871,-2.6848 -0.3381,-3.6893 -2.116,-4.196 -1.6977,-0.507 -2.8803,-0.7558 -5.2448,-0.9246 -0.5955,-0.4979 -0.596,-3.6093 0,-4.0272 4.3132,0 9.2188,0.2578 13.4503,0.2578 h 32.9917 c 4.4004,-2e-4 9.9821,-0.2578 13.4489,-0.2578 0.6766,0.4179 0.4268,3.4406 -0.0797,3.9471 -2.372,0.2489 -3.9828,0.6668 -4.9074,1.0934 -1.5271,0.6668 -1.9469,1.4225 -2.0356,4.1073 -0.0796,3.1913 -0.0804,9.8143 -0.0804,16.7752 8e-4,5.7072 0,12.499 0.1691,16.2775 0.0819,1.5109 0.4181,3.1912 1.9469,3.858 1.1832,0.5068 3.0404,0.7555 6.1694,1.2625 0.2583,0.5867 -0.0799,3.6003 -0.5864,4.0269 -4.3998,0 -9.5567,-0.2578 -13.9573,-0.2578 -3.724,0 -9.9032,0.2578 -13.5393,0.2578 -0.5859,-0.5067 -0.5065,-3.5292 -0.1688,-4.0269 1.9471,-0.258 3.7247,-0.507 5.0762,-0.9245 1.2716,-0.4181 1.858,-1.3427 1.9467,-3.1916 0.0808,-1.9293 0.0801,-16.6063 0.0801,-18.8733 7e-4,-9.6454 0.0889,-14.1794 -0.1688,-17.1129 -0.0784,-1.0047 -0.4179,-1.5913 -0.6757,-1.5913 -1.8569,-0.2581 -16.5796,-0.1689 -17.9308,0 -0.0879,-3e-4 -0.6756,1.0044 -0.6756,1.0843 -0.0884,1.6002 -0.1693,4.8719 -0.1693,17.8689 7e-4,2.018 0,16.0285 0.0803,17.4508 0.0905,2.018 0.2578,3.5294 2.2045,4.196 1.0944,0.4178 3.8049,0.7557 5.6631,1.0936 0.4279,0.5867 0.0887,3.6003 -0.5871,4.0269 -4.5677,0 -10.0718,-0.2578 -14.8104,-0.2578 -7.0211,0 -11.5835,0.338 -13.0234,0.338 -0.5065,-0.5869 -0.5068,-3.5204 0,-4.0272 1.9477,-0.3379 3.2092,-0.6668 4.482,-1.0047 z" fill="#ffffff" fill-rule="evenodd"/>
  <path d="m 183.3063,274.7383 c 3.8923,-3.5204 5.0744,-10.2321 5.0744,-17.4508 0,-8.801 -2.2848,-17.193 -7.3608,-21.4691 -2.3642,-1.9381 -4.4805,-2.8536 -7.6985,-2.8536 -2.1145,0 -4.4006,0.4979 -6.0008,1.6712 -4.7368,3.1915 -6.1785,10.2414 -6.1785,17.9576 0.001,7.1297 2.1158,16.5264 7.8674,21.3892 2.3652,1.8489 4.7385,3.0225 8.2055,3.0225 2.0288,0 4.3117,-0.6757 6.0913,-2.267 z m -29.6135,-0.3289 c -5.4126,-5.4585 -7.1834,-12.8369 -7.1834,-19.2999 5e-4,-6.9609 2.2846,-15.6016 10.2326,-21.229 4.8197,-3.3515 11.3343,-5.6984 19.2019,-5.6984 17.7714,-2e-4 27.0695,12.1614 27.0695,26.0918 0.001,6.285 -1.6888,12.4993 -5.2448,17.1131 -5.9194,7.3785 -14.4638,10.6499 -22.9272,10.6499 -10.3192,0 -16.4909,-3.0225 -21.1486,-7.6275 z" fill="#ffffff" fill-rule="evenodd"/>
  <path d="m 219.0162,269.5378 c 4.9866,-11.4948 10.5693,-26.3407 12.774,-32.377 0.8455,-2.018 2.0268,-5.7962 2.2758,-7.6363 1.5301,0.1686 3.1379,0.1688 4.8273,0.1688 1.7793,-2e-4 3.378,0 4.8181,-0.1688 0.3397,1.511 1.1915,4.196 1.7781,5.6984 3.22,8.392 9.2188,24.8383 12.4368,32.4746 3.0507,7.2986 3.2982,8.0543 10.3213,9.059 0.5083,0.4977 0.1689,3.6893 -0.4266,4.0269 -2.1957,0 -5.6629,-0.2578 -13.1928,-0.2578 -6.4267,0 -10.41,0.2578 -13.6192,0.2578 -0.5065,-0.5866 -0.6756,-3.5292 -0.0889,-4.0269 0.7645,-0.0892 3.636,-0.6758 4.4006,-1.1735 0.7646,-0.5869 0.8442,-1.2623 0.7646,-1.6002 -0.4262,-3.2717 -7.2812,-22.1447 -10.6593,-31.2035 0,-0.089 -0.2575,-0.089 -0.3376,0 -1.8666,5.4494 -7.9566,22.4824 -9.6457,28.3496 -0.844,3.0227 -0.4269,4.2852 1.9469,4.7829 1.5218,0.3377 2.6225,0.5068 4.4006,0.8447 0.4196,0.4977 0.249,3.2715 -0.2578,4.0269 -2.027,0 -5.6717,-0.2578 -11.5036,-0.2578 -3.2168,0 -7.6985,0.2578 -10.748,0.2578 -0.5057,-0.5866 -0.5866,-3.3603 0,-4.0269 6.2589,-1.0047 7.4498,-2.0182 9.7354,-7.2187 z" fill="#ffffff" fill-rule="evenodd"/>
  <path d="m 288.3041,274.4094 c 2.026,0 4.1418,-0.2578 5.5817,-3.2805 0.091,-0.16 0,-1.2531 -0.0796,-1.5021 -1.3598,-3.5295 -9.5656,-19.2113 -14.384,-28.1899 -3.8936,-7.3875 -4.9072,-7.0496 -11.1658,-8.0543 -0.4248,-0.5068 -0.3376,-3.5292 0.249,-3.8581 1.6105,-3e-4 5.6717,0.249 12.7748,0.249 7.1118,-3e-4 12.6948,-0.1691 13.7081,-0.249 0.5886,0.3289 0.5869,3.7691 0.1691,4.0272 -1.3507,0.2487 -3.1293,0.4977 -3.725,0.7554 -0.6741,0.249 -0.6754,1.0846 -0.4269,1.5914 2.5431,5.7871 8.7213,17.7885 10.4105,20.8913 0.0894,0.2485 0.5065,0.3289 0.6756,0 3.6363,-7.3878 6.7651,-16.1086 7.5296,-19.3801 0.2593,-1.1738 0.0887,-2.5157 -1.0137,-2.8536 -1.1814,-0.3379 -3.2979,-0.7557 -5.4137,-1.0044 -0.7643,-0.4184 -0.5068,-3.6983 0.1688,-4.0272 3.7256,0.0799 7.3609,0.249 11.0768,0.249 3.22,-3e-4 7.192,-0.1691 9.8145,-0.249 0.6862,0.4176 0.5958,3.7691 -0.0801,4.0272 -5.9204,1.0044 -7.3608,2.8536 -9.0497,6.7116 -5.2436,11.6544 -11.6813,25.5853 -15.4862,31.3727 -3.1291,4.6936 -8.1166,12.588 -14.7217,12.588 -1.8567,0 -2.8715,-0.2578 -4.1428,-1.0136 -1.6085,-1.4225 -2.6225,-3.9382 -2.6225,-6.8808 0,-1.2534 0.5957,-3.7691 0.9336,-4.356 1.8587,0.8357 6.2583,2.4358 9.2196,2.4358 z" fill="#ffffff" fill-rule="evenodd"/>
  <path d="m 449.9843,274.7383 c 3.8843,-3.5204 5.0754,-10.2321 5.0754,-17.4508 10e-4,-8.801 -2.2843,-17.193 -7.3608,-21.4691 -2.3733,-1.9381 -4.4893,-2.8536 -7.6985,-2.8536 -2.1155,0 -4.4006,0.4979 -6.0096,1.6712 -4.7368,3.1915 -6.1785,10.2414 -6.1785,17.9576 0.002,7.1297 2.1158,16.5264 7.8764,21.3892 2.3663,1.8489 4.7295,3.0225 8.2053,3.0225 2.0278,0 4.3117,-0.6757 6.0903,-2.267 z m -29.6114,-0.3289 c -5.4147,-5.4585 -7.1933,-12.8369 -7.1933,-19.2999 5e-4,-6.9609 2.2844,-15.6016 10.2412,-21.229 4.8189,-3.3515 11.3345,-5.6984 19.2021,-5.6984 17.7626,-2e-4 27.0696,12.1614 27.0696,26.0918 0,6.285 -1.6889,12.4993 -5.2449,17.1131 -5.9204,7.3785 -14.4638,10.6499 -22.9271,10.6499 -10.3203,0 -16.4998,-3.0225 -21.1476,-7.6275 z" fill="#ffffff" fill-rule="evenodd"/>
  <path d="m 522.3225,234.725 c -2.7125,-1.5113 -5.8425,-2.0979 -9.3098,-2.0979 -8.8803,-3e-4 -14.6324,6.7918 -14.6324,21.229 0.002,9.3876 4.5694,22.3934 18.6064,22.3934 2.1173,0 4.5692,-0.2487 7.1121,-2.2667 2.108,-1.6715 4.8984,-5.2007 7.1031,-8.641 1.0135,0.2576 2.7914,1.4314 3.467,2.5157 -1.2714,3.6983 -5.0763,10.5791 -7.6187,12.0014 -2.7016,0.9245 -6.2588,2.178 -12.5169,2.178 -19.2019,0 -30.9636,-9.1387 -30.9636,-27.4342 2e-4,-9.6454 4.8272,-18.5354 14.3038,-22.9803 4.6506,-2.1869 10.0633,-3.4403 16.9975,-3.4403 8.1254,-2e-4 14.6327,1.4223 17.8509,1.5112 -0.4264,2.9335 -1.1022,10.0633 -1.1022,14.5972 -0.4163,0.6668 -4.0539,1.0045 -4.2227,0.4178 -1.1902,-5.3695 -1.6982,-8.0541 -5.0745,-9.9833 z" fill="#ffffff" fill-rule="evenodd"/>
  <path d="m 584.5854,280.7834 c -3.5544,0 -8.801,-0.2578 -15.3085,-0.2578 -7.3679,0 -12.6946,0.2578 -15.6549,0.2578 -0.674,-0.5866 -0.5957,-3.5292 0,-4.0269 2.5442,-0.3379 4.7381,-0.6758 5.7519,-0.9245 2.5351,-0.5869 3.1293,-1.5113 3.3871,-4.7031 0.418,-8.801 0.3374,-21.5578 0.3374,-34.9817 5e-4,-0.1688 -0.2578,-0.7555 -0.5065,-0.7555 -1.6073,-0.1691 -5.5828,-0.1688 -7.5297,-0.0798 -1.3502,0.0798 -2.6228,0.5065 -3.9828,3.2714 -0.9238,1.929 -1.769,3.9382 -2.8713,7.1295 -0.4268,0.4178 -4.1428,-0.3377 -4.4805,-1.1733 0.6774,-3.5207 1.6892,-10.7391 2.0269,-15.264 0.0907,-0.1691 0.7645,-0.7645 1.0135,-0.6756 2.7115,0.9243 6.0892,1.0934 8.1254,1.0934 h 29.6139 c 5.3247,-2e-4 8.7103,-0.3379 10.6484,-0.9245 0.347,0.0798 0.5954,0.6667 0.5954,0.8356 -1.0125,4.445 -1.8579,9.8145 -2.1956,15.5217 -0.5952,0.4178 -4.0627,0.6756 -4.4896,0.249 -0.416,-3.3516 -0.8444,-5.1118 -1.609,-7.6274 -0.5851,-1.9296 -1.5203,-2.4358 -2.9514,-2.6049 -2.4625,-0.249 -6.5164,-0.1689 -8.2143,-0.0799 -0.1689,0.0799 -0.4178,0.4178 -0.4178,0.7555 0.001,12.1613 -0.2578,31.3726 0.0801,35.9864 0.089,0.8356 0.089,2.8536 1.9469,3.6892 1.1824,0.5068 3.8138,0.7555 6.934,1.2625 0.507,0.4977 0.2578,3.3513 -0.249,4.0269 z" fill="#ffffff" fill-rule="evenodd"/>
  <path d="m 627.6482,257.4563 c 0,-0.3376 0.2578,-0.9243 0.4266,-1.0846 0.2495,0 1.0937,0.0802 2.4537,0.0802 1.2622,0 2.6225,-0.249 3.8051,-0.9246 2.5336,-1.5115 4.2313,-4.356 4.2313,-9.2276 5e-4,-7.3787 -3.8049,-12.0815 -10.5791,-12.0815 -0.5055,0 -1.769,0.0889 -2.4534,0.4178 -0.0784,0.089 -0.5867,0.6759 -0.5867,1.1824 -0.0877,3.1026 -0.0889,6.2051 -0.0889,17.5309 10e-4,4.445 -0.089,13.7527 0.0889,18.2867 0.0802,1.5911 0.4179,3.6091 2.8713,4.196 1.8675,0.4976 3.725,0.6665 6.0898,0.9245 0.4283,0.8354 0.2575,3.2715 -0.3382,4.0269 -4.9062,0 -10.3211,-0.2578 -15.1392,-0.2578 -4.5687,0 -9.4766,0.2578 -13.9571,0.2578 -0.3367,-0.9245 -0.338,-3.5292 0,-4.0269 1.9476,-0.258 3.0403,-0.3379 4.9071,-0.8447 2.117,-0.5869 2.3645,-2.5159 2.4537,-4.6937 0.0814,-3.2716 0.1688,-7.2187 0.1688,-17.362 5e-4,-7.5567 0,-13.0948 -0.0889,-14.9351 -0.1686,-3.1029 -0.6756,-4.027 -2.9602,-4.6139 -1.1806,-0.3379 -2.7917,-0.5866 -4.7383,-0.8444 -0.337,-0.9246 -0.1689,-3.4405 0.2578,-4.0272 2.6237,0 7.2716,0.2578 12.0993,0.2578 6.8541,-2e-4 10.2319,-0.1688 18.0995,-0.1688 2.7044,-3e-4 7.6985,0.4178 11.4237,3.1026 3.1298,2.3468 5.8315,6.0361 5.8315,11.9124 8e-4,7.2096 -3.7248,11.5747 -7.8673,14.0105 -2.9592,1.76 -6.9342,2.8536 -10.5703,2.8536 -1.9459,-2e-4 -3.1291,-0.1688 -4.0625,-0.3379 -0.9318,-0.6668 -1.778,-2.8536 -1.778,-3.6094 z" fill="#ffffff" fill-rule="evenodd"/>
  <path d="m 700.4924,274.7383 c 3.8946,-3.5204 5.0757,-10.2321 5.0757,-17.4508 0.001,-8.801 -2.2848,-17.193 -7.3608,-21.4691 -2.3632,-1.9381 -4.4805,-2.8536 -7.6988,-2.8536 -2.1155,0 -4.4003,0.4979 -6.0005,1.6712 -4.7378,3.1915 -6.1785,10.2414 -6.1785,17.9576 5e-4,7.1297 2.1158,16.5264 7.8674,21.3892 2.3662,1.8489 4.7385,3.0225 8.2055,3.0225 2.0276,0 4.3117,-0.6757 6.09,-2.267 z m -29.6111,-0.3289 c -5.4147,-5.4585 -7.1847,-12.8369 -7.1847,-19.2999 0.002,-6.9609 2.2758,-15.6016 10.2321,-21.229 4.8292,-3.3515 11.3348,-5.6984 19.2024,-5.6984 17.7726,-2e-4 27.0697,12.1614 27.0697,26.0918 0,6.285 -1.6891,12.4993 -5.245,17.1131 -5.9204,7.3785 -14.4639,10.6499 -22.9181,10.6499 -10.3213,0 -16.4998,-3.0225 -21.1564,-7.6275 z" fill="#ffffff" fill-rule="evenodd"/>
  <path d="m 752.6943,234.2182 c -0.25,0.0889 -0.5965,0.7557 -0.6766,1.0937 -0.1673,0.8353 -0.1688,9.8142 -0.1688,14.8459 0.002,0.2577 0.3377,0.5067 0.5067,0.5067 0.7649,0.0799 1.6889,0.0802 3.556,0.0802 3.2094,-3e-4 5.8314,-0.1691 6.7651,-0.7558 1.6909,-1.0846 2.7916,-3.3515 2.7916,-6.285 10e-4,-5.7075 -3.0497,-9.7344 -10.5703,-9.7344 -0.5954,-3e-4 -1.4401,0.0799 -2.2037,0.2487 z m 14.9697,32.048 c 0,-6.8808 -4.3916,-10.9077 -12.766,-10.9077 -0.2575,-3e-4 -1.7778,0 -2.6225,0.0889 -0.1771,-2e-4 -0.4266,0.1689 -0.4266,0.4977 0.002,6.2138 -0.0802,13.0061 0.1688,16.1974 0.0807,1.0846 0.8445,2.2669 1.4402,2.8538 1.3527,1.3333 4.3116,1.7602 5.494,1.7602 4.9077,-2e-4 8.7121,-3.5294 8.7121,-10.4903 z m -35.7801,-36.8307 c 1.3502,0 5.1632,0.2578 12.9418,0.2578 6.7666,-2e-4 12.775,-0.2578 15.1486,-0.2578 9.6459,0 17.5929,2.018 17.5929,11.4147 0,4.7827 -3.6358,8.7209 -8.6319,10.401 -0.1671,0.0801 -0.1689,0.418 0,0.4979 6.6857,1.8489 12.3478,5.0407 12.3478,12.4192 5e-4,6.7119 -3.6358,11.4946 -10.9077,14.5972 -3.8936,1.68 -9.9833,2.4358 -15.0596,2.4358 -3.8036,0 -18.6064,-0.4179 -24.4472,-0.4179 -0.4266,-0.6756 -0.5866,-3.6093 0,-4.0269 2.8816,-0.3379 4.7383,-0.5869 6.1785,-1.1735 1.2637,-0.5068 1.7781,-1.6002 2.027,-4.0272 0.1706,-2.1871 0.1689,-10.9966 0.1689,-16.9531 0.002,-8.801 -0.0802,-11.9124 -0.249,-16.5262 -0.0872,-2.0981 -0.4264,-3.1026 -2.3738,-3.6892 -1.5198,-0.507 -3.7245,-0.8356 -4.738,-0.9246 -0.5063,-0.5869 -0.4176,-3.7694 0.002,-4.0272 z" fill="#ffffff" fill-rule="evenodd"/>
  <path d="m 78.4944,374.2519 c 0.1958,-3.1205 0.4519,-10.1346 0.2649,-14.9439 -0.0691,-1.1025 -0.3909,-1.6269 -1.4311,-1.947 -0.5861,-0.1955 -1.2355,-0.3288 -1.8847,-0.3911 -0.2575,-0.3291 -0.1333,-2.9249 0.2578,-3.1205 1.1027,0 5.9829,0.1956 8.0543,0.1956 2.2136,0 3.3161,0 3.9027,-0.1331 0.2591,0.7197 0.7111,1.76 1.1022,2.6047 1.8232,3.8313 4.285,8.7654 5.5208,10.8454 0.0728,0.0623 0.1955,0.0625 0.2666,0 1.7524,-3.378 5.1297,-11.4946 5.6452,-13.4501 0.8457,0.0709 2.6669,0.1331 4.4894,0.1331 2.7291,0 6.2319,-0.1956 8.0545,-0.1956 0.3292,0.2578 0.2576,2.925 0,3.245 -1.235,0.1953 -1.7518,0.3289 -2.4005,0.5244 -0.6567,0.1956 -1.2358,0.5159 -1.2358,1.8136 -0.071,3.7069 0.0623,10.2057 0.2578,15.6017 10e-4,1.1644 0.3201,2.0714 1.6889,2.338 l 2.205,0.4533 c 0.3298,0.1956 0.1333,2.9872 -0.3201,3.1205 -1.2962,0 -5.3962,-0.1955 -7.1473,-0.1955 -4.0259,0 -7.281,0.1245 -8.0544,0.1955 -0.3901,-0.0713 -0.5866,-2.9247 -0.2668,-3.1205 2.6671,-0.3911 2.9246,-0.9777 2.996,-1.6888 0.1869,-2.7294 0.1867,-8.4455 0.2578,-13.975 10e-4,-0.0623 -0.1959,-0.0623 -0.1959,0 -1.5631,3.5735 -4.8091,12.4814 -6.8182,17.673 -0.3894,0.1953 -2.8625,0.7202 -3.3161,0.7825 -2.15,-5.263 -4.7473,-12.0815 -7.4762,-18.3222 -0.0622,-0.1333 -0.32,-0.1333 -0.32,0.0622 0.0017,4.6758 -0.0623,8.9076 0.1244,12.4104 0.0711,1.2355 0.6489,2.1513 1.9558,2.4713 0.7116,0.1955 1.5558,0.3911 2.7291,0.5866 0.1968,0.1956 0.1245,2.7917 -0.1958,3.1205 -2.0797,0 -4.8091,-0.1955 -6.8893,-0.1955 -1.821,0 -5.1297,0.1955 -5.9829,0.1955 -0.1868,-0.3291 -0.3201,-2.9247 -0.062,-3.1205 3.9039,-0.8444 4.0979,-1.431 4.2239,-3.5735 z" fill="#ffffff" fill-rule="evenodd"/>
  <path d="m 125.2096,377.4343 c 1.8762,-0.5155 1.7509,-1.2355 1.7509,-3.5115 0.001,-2.5959 0.0623,-5.1917 0.0623,-7.7963 10e-4,-2.2758 -0.0623,-4.4805 -0.1245,-6.8185 -0.0706,-1.1025 -0.3911,-1.6269 -1.4314,-1.947 -0.5854,-0.1955 -1.2355,-0.3288 -1.8844,-0.3911 -0.257,-0.3291 -0.1336,-2.9249 0.2578,-3.1205 1.1032,0 3.1202,0.1956 7.5385,0.1956 4.74,0 6.9518,-0.1956 7.4676,-0.1956 0.3307,0.1956 0.3911,2.925 0.0711,3.1205 l -1.7584,0.3911 c -0.9082,0.1868 -1.3621,0.7737 -1.4243,1.4936 -0.1321,2.2045 -0.1333,6.2319 -0.2044,9.7432 3e-4,0.1331 0.2044,0.1956 0.2666,0.1333 2.144,-2.0802 6.0452,-5.7873 8.1164,-8.2587 0.2582,-0.2578 0.3291,-0.4533 0.3291,-0.7733 0.001,-1.1736 -0.2578,-1.7602 -1.1733,-2.1513 -0.3816,-0.1245 -0.907,-0.2578 -1.6184,-0.3823 -0.3273,-0.3291 -0.133,-3.058 0.1956,-3.3161 1.6813,0 3.183,0.1956 7.4679,0.1956 4.3565,0 6.0452,-0.1956 7.4054,-0.1956 0.3914,0.1956 0.3287,2.9872 0,3.245 -0.9686,0.2666 -2.276,0.5244 -2.7293,0.7822 -0.5156,0.3289 -0.6492,0.7111 -0.6492,1.298 0.001,2.4091 0.0623,11.1746 0.1956,15.9217 0,1.1022 0.3913,1.7514 1.2355,2.0802 0.8447,0.3201 1.6183,0.3201 2.6672,0.6489 0.1257,0.1245 -0.1334,2.8539 -0.3911,3.1205 -2.2136,-0.0713 -5.1383,-0.1955 -8.1254,-0.1955 -2.7912,0 -4.8096,0 -6.9519,0.1955 -0.1938,-0.5246 -0.3203,-2.3468 -0.1247,-2.7291 2.2052,-1.1736 2.7916,-1.6269 2.8539,-2.276 0.1335,-2.2136 0.071,-6.365 0.071,-10.4632 5e-4,-0.3203 -0.2668,-0.5867 -0.4624,-0.32 -1.8834,1.9466 -6.3649,6.036 -8.1874,8.3741 -0.1227,0.1955 -0.3911,0.7202 -0.3911,1.2358 3e-4,1.8846 0.1333,2.338 1.1113,2.6668 0.4534,0.1333 1.1645,0.2581 1.9467,0.3911 0.3929,0.3201 -0.0622,2.7917 -0.3289,3.1205 -1.2267,0 -5.0674,-0.1955 -7.4676,-0.1955 -2.4,0 -5.9739,0.1955 -7.405,0.1955 -0.2575,-0.3291 -0.2578,-2.7291 0,-3.1205 0.9085,-0.1333 1.2356,-0.2575 1.8227,-0.3911 z" fill="#ffffff" fill-rule="evenodd"/>
  <path d="m 169.1886,377.4343 c 1.3601,-0.3911 1.5549,-0.7822 1.6879,-2.5958 0.1343,-1.7602 0.1333,-4.8093 0.1333,-7.8053 10e-4,-2.6581 0.0625,-5.2539 -0.0708,-7.7252 -0.0622,-1.1025 -0.3913,-1.6269 -1.4313,-1.947 -0.5852,-0.1955 -1.2268,-0.3288 -1.8847,-0.3911 -0.2565,-0.3291 -0.1245,-2.9249 0.2663,-3.1205 1.1033,0 3.1205,0.1956 7.53,0.1956 4.7486,0 6.632,-0.1956 7.1476,-0.1956 0.3291,0.1956 0.3911,2.925 0.0708,3.1205 -0.6476,0.1243 -0.6486,0.1956 -1.4311,0.3911 -0.9049,0.1868 -1.2355,0.7737 -1.2978,1.8847 l 10e-4,5.4494 c 0,0.1333 0.1945,0.3291 0.319,0.3291 0.917,0.062 2.2758,0.0623 3.6446,0.0623 1.6808,-3e-4 3.3072,0 4.0272,-0.0623 0.064,-2e-4 0.3825,-0.1333 0.3825,-0.3291 0.1956,-1.3602 0,-4.996 0,-5.3249 0.001,-1.0402 -0.1247,-1.6181 -1.298,-1.9469 -0.5146,-0.1336 -1.1645,-0.1956 -1.8847,-0.3289 -0.1243,-0.5158 0,-2.9869 0.2666,-3.245 1.1655,0 6.2319,0.1956 7.4052,0.1956 2.7294,0 5.2629,-0.1331 7.9921,-0.1956 0.1257,0.5156 0.1958,2.6672 0,3.245 l -2.0165,0.5244 c -1.36,0.3201 -1.4326,0.7114 -1.4326,1.8136 5e-4,1.5644 -0.1245,4.4183 -0.0623,7.4765 0.0628,3.5736 0.0623,6.365 0.1333,7.9919 0.0635,1.6269 0.9067,2.2047 2.0092,2.4713 l 1.9467,0.4533 c 0.2681,0.1956 -0.1245,2.7917 -0.382,3.1205 -1.8842,0 -2.8007,-0.1955 -8.2499,-0.1955 -4.1595,0 -6.4985,0.1245 -7.0232,0.1955 -0.1948,-0.1955 -0.3911,-2.9247 -0.258,-3.1205 l 2.0094,-0.4533 c 0.5882,-0.1956 0.8447,-0.9155 0.9155,-1.3688 0.1248,-1.1648 0.0625,-4.8717 0.0625,-6.7563 3e-4,-0.0625 -0.0625,-0.2581 -0.258,-0.2581 h -7.9286 c -0.124,0 -0.3211,0.1956 -0.3211,0.3201 10e-4,2.0802 -0.071,4.2937 0,6.1074 0.063,1.6268 0.7112,1.8846 1.5556,2.0802 0.4536,0.1333 1.1733,0.1958 1.7511,0.3288 0.1346,0.1956 -0.1242,2.8539 -0.382,3.1205 -0.7814,0 -4.7471,-0.1955 -8.5787,-0.1955 -3.058,0 -5.7163,0.1955 -6.8896,0.1955 -0.2568,-0.1955 -0.1956,-2.9247 0,-3.1205 0.6491,-0.1333 1.1733,-0.1955 1.8234,-0.3911 z" fill="#ffffff" fill-rule="evenodd"/>
  <path d="m 213.2994,377.4343 c 1.8764,-0.5155 1.7512,-1.2355 1.7512,-3.5115 0.001,-2.5959 0.0622,-5.1917 0.0622,-7.7963 0.001,-2.2758 -0.0622,-4.4805 -0.1245,-6.8185 -0.0705,-1.1025 -0.3913,-1.6269 -1.4313,-1.947 -0.5854,-0.1955 -1.2358,-0.3288 -1.8847,-0.3911 -0.257,-0.3291 -0.1333,-2.9249 0.2578,-3.1205 1.1035,0 3.1205,0.1956 7.5387,0.1956 4.7479,0 6.9519,-0.1956 7.4675,-0.1956 0.3288,0.1956 0.3911,2.925 0.071,3.1205 l -1.7503,0.3911 c -0.9163,0.1868 -1.3699,0.7737 -1.4321,1.4936 -0.1321,2.2045 -0.1334,6.2319 -0.1956,9.7432 0.001,0.1331 0.1956,0.1956 0.2578,0.1333 2.144,-2.0802 6.0451,-5.7873 8.1166,-8.2587 0.2681,-0.2578 0.3288,-0.4533 0.3288,-0.7733 10e-4,-1.1736 -0.2578,-1.7602 -1.1645,-2.1513 -0.3906,-0.1245 -0.9157,-0.2578 -1.6269,-0.3823 -0.3278,-0.3291 -0.1333,-3.058 0.1956,-3.3161 1.6889,0 3.1825,0.1956 7.4672,0.1956 4.3567,0 6.0454,-0.1956 7.4054,-0.1956 0.3919,0.1956 0.3291,2.9872 0,3.245 -0.9684,0.2666 -2.267,0.5244 -2.7203,0.7822 -0.5244,0.3289 -0.6577,0.7111 -0.6577,1.298 0.001,2.4091 0.0711,11.1746 0.1955,15.9217 0,1.1022 0.3911,1.7514 1.2358,2.0802 0.8445,0.3201 1.6269,0.3201 2.6669,0.6489 0.1258,0.1245 -0.1333,2.8539 -0.3911,3.1205 -2.2135,-0.0713 -5.1385,-0.1955 -8.1254,-0.1955 -2.7911,0 -4.8093,0 -6.9518,0.1955 -0.1958,-0.5246 -0.3201,-2.3468 -0.1245,-2.7291 2.205,-1.1736 2.7916,-1.6269 2.8536,-2.276 0.1333,-2.2136 0.0711,-6.365 0.0711,-10.4632 2e-4,-0.3203 -0.2666,-0.5867 -0.4534,-0.32 -1.8847,1.9466 -6.374,6.036 -8.1964,8.3741 -0.1227,0.1955 -0.3823,0.7202 -0.3823,1.2358 0.001,1.8846 0.1245,2.338 1.1022,2.6668 0.4554,0.1333 1.1645,0.2581 1.947,0.3911 0.3926,0.3201 -0.0623,2.7917 -0.3203,3.1205 -1.2353,0 -5.0669,-0.1955 -7.476,-0.1955 -2.4003,0 -5.9741,0.1955 -7.4057,0.1955 -0.2573,-0.3291 -0.2578,-2.7291 0,-3.1205 0.917,-0.1333 1.236,-0.2575 1.8229,-0.3911 z" fill="#ffffff" fill-rule="evenodd"/>
  <path d="m 272.6142,363.8507 v 0.7822 c -0.064,1.2358 -0.8464,5.0052 -1.175,5.1385 -0.5852,0.2575 -13.3793,0.5156 -14.7484,0.5156 l -0.0622,-0.7112 c 0,-1.3068 0.6488,-5.334 0.9689,-5.334 4.2335,0 13.1305,-0.32 15.0167,-0.3911 z" fill="#ffffff" fill-rule="evenodd"/>
  <path d="m 298.6611,357.0944 c -1.556,0.9155 -2.6681,3.058 -2.6681,7.9298 0,8.8363 2.7291,13.0593 6.3118,13.0593 0.7129,-3e-4 1.5558,-0.2581 2.0091,-0.6492 1.4321,-1.1022 2.3378,-3.378 2.3378,-8.6409 3e-4,-7.9299 -2.4,-12.1523 -6.3649,-12.1523 -0.6474,-3e-4 -1.1023,0.1955 -1.6257,0.4533 z m 17.9301,9.9385 c 0,5.5298 -2.463,9.557 -5.9121,11.6995 -2.4607,1.5556 -6.4899,2.7913 -9.6812,2.7913 -10.3916,0 -14.7481,-6.2318 -14.7481,-14.2859 0,-4.8096 2.2758,-8.9701 5.9204,-11.3081 2.2685,-1.4314 5.7783,-2.7914 9.7344,-2.7914 9.692,0 14.6861,6.2941 14.6866,13.8946 z" fill="#ffffff" fill-rule="evenodd"/>
  <path d="m 334.5233,377.3721 c 1.4921,-0.3289 1.6876,-0.9155 1.8832,-2.7291 0.259,-4.9429 0.1955,-8.7121 0.1955,-16.3128 0.002,-0.0625 -0.3288,-0.5158 -0.4533,-0.5158 -0.4533,-0.0625 -1.2358,-0.0623 -1.8227,-0.0623 -0.7729,-2e-4 -1.4936,0.3826 -2.2755,1.8759 -0.5776,1.111 -1.227,2.6669 -1.8136,4.036 -0.1941,0.2578 -3.058,-0.3289 -3.3161,-0.7822 0.3916,-2.0183 0.978,-6.6321 1.2358,-9.2279 0.1958,-0.0625 0.2576,-0.0622 0.3909,-0.0622 1.1032,0.1955 2.6583,0.4533 4.9341,0.4533 h 15.5933 c 3.1822,0 5.3957,-0.1956 6.3647,-0.3911 l 0.2681,0.3289 c -0.5882,2.4625 -1.0415,6.4274 -1.2993,9.4856 -0.3989,0.1956 -3.1202,0.1956 -3.3158,0 -0.1955,-1.5024 -0.7204,-3.5116 -1.0402,-4.4182 -0.3894,-1.0403 -1.2978,-1.2981 -1.7511,-1.3691 -0.7185,-0.0623 -1.8225,-0.1333 -2.4096,0 -0.1331,0 -0.3909,0.3291 -0.3909,0.5246 0.002,6.8183 -0.1245,14.2237 0,16.7573 0.0716,0.5244 0.1953,1.6269 1.2978,2.1425 0.7202,0.2663 1.8847,0.3911 3.7071,0.7199 0.2593,0.3201 -0.0622,2.7294 -0.3913,3.1205 -2.8516,0 -6.9516,-0.1955 -9.8765,-0.1955 -2.8625,0 -5.8494,0.1955 -8.7033,0.1955 -0.3898,-0.3291 -0.3911,-2.8004 0,-3.1205 1.4944,-0.1955 2.4003,-0.3288 2.9887,-0.4533 z" fill="#ffffff" fill-rule="evenodd"/>
  <path d="m 374.3396,363.4684 c 0,0.1243 0.1955,0.5156 0.5244,0.5156 1.8139,0.0622 5.6541,0.1333 6.7565,-0.0622 0.3302,-0.0711 0.5244,-0.3289 0.5867,-0.5867 -0.2565,-4.2227 -1.7602,-6.8896 -4.2227,-6.8896 -2.2745,-2e-4 -3.6452,3.3158 -3.6449,7.0229 z m 17.0241,9.4854 c 0.0641,0.8445 -0.32,2.4626 -0.4533,2.7914 -2.7911,3.6361 -8.1168,5.7785 -12.4103,5.7785 -4.2225,0 -6.9519,-1.2977 -8.8988,-3.1824 -2.9864,-2.7297 -4.0272,-7.1477 -4.0272,-10.7835 5e-4,-5.4585 2.5336,-9.8057 6.1697,-12.0815 2.3398,-1.3691 5.3249,-2.338 8.1254,-2.338 7.922,0 10.3923,6.2319 10.9167,9.8055 0.0638,0.4533 0.8445,0.978 1.2267,1.1024 0.0731,0.2664 -0.3822,2.2136 -0.5864,2.4091 -1.9469,0.7822 -11.4948,1.2981 -16.5,1.4314 -0.1945,0.0622 -0.32,0.5156 -0.32,0.7111 0.1956,1.6269 1.0405,3.316 2.5961,4.5516 1.4938,1.2267 3.1824,1.8136 5.9116,1.8136 2.9871,0 5.2007,-0.8444 7.9298,-2.5958 0.064,0.0622 0.32,0.32 0.32,0.5866 z" fill="#ffffff" fill-rule="evenodd"/>
  <path d="m 405.8553,373.6027 c 1.2981,-2.6669 3.8304,-9.2276 5.6528,-13.8414 0.3838,-1.0402 0.4534,-1.5556 -0.1955,-2.9869 -0.0708,-0.1958 0.0622,-0.5869 0.2578,-0.7202 0.8457,-0.7112 6.0363,-2.9159 6.3652,-2.9159 0.259,0 0.6489,0.1956 0.7824,0.5778 1.9469,5.1383 6.7563,17.0242 8.4454,20.6603 1.2983,2.8624 2.3378,2.9246 5.2625,3.5115 0.3203,0.1953 0,2.7292 -0.2576,3.058 -1.8224,-0.0713 -6.7562,-0.1955 -8.6409,-0.1955 -1.9543,0 -6.0454,0.1245 -7.281,0.1955 -0.3901,-0.1335 -0.5866,-2.9247 -0.3911,-3.1205 0.5872,-0.1955 1.3689,-0.3288 1.8847,-0.5866 0.2586,-0.1333 0.6489,-0.3911 0.32,-1.298 -1.1634,-3.2536 -2.9869,-7.5385 -4.5427,-11.1743 -0.0612,-0.1339 -0.3286,-0.1336 -0.3911,0 -1.7504,4.6758 -3.0492,8.8987 -3.3783,9.9387 -0.3182,1.04 0.0623,1.8847 0.5867,2.2136 0.5173,0.32 1.4313,0.5778 3.0582,0.9066 0.2593,0.3201 0,2.8539 -0.5244,3.1205 -1.1025,0 -5.0049,-0.1955 -6.5605,-0.1955 -1.8209,0 -4.8098,0.1955 -5.9121,0.1955 -0.4533,-0.3911 -0.5244,-2.9247 -0.1958,-3.1205 4.0292,-0.7199 4.0897,-1.04 5.6553,-4.2227 z" fill="#ffffff" fill-rule="evenodd"/>
  <path d="m 453.0166,376.0652 c 0,0.8536 1.2342,2.0183 2.6653,2.0183 1.4231,-3e-4 3.7606,-1.2358 3.7606,-5.7163 7e-4,-3.5116 -1.6178,-6.4985 -6.4275,-6.4985 z m -10.3932,1.3691 c 1.164,-0.4533 1.6887,-1.1022 1.6887,-2.5958 0.002,-3.0582 0.062,-4.6138 0.062,-7.6007 0.002,-2.5427 0.0622,-5.8496 -0.062,-7.9298 -0.0706,-1.1025 -0.3916,-1.6269 -1.4314,-1.947 -0.5854,-0.1955 -1.2358,-0.3288 -1.8846,-0.3911 -0.2568,-0.3291 -0.1334,-2.9249 0.2577,-3.1205 1.1035,0 3.1203,0.1956 7.5385,0.1956 4.7383,0 6.9521,-0.1956 7.4677,-0.1956 0.3289,0.1956 0.3911,2.925 0.0711,3.1205 l -1.7504,0.3911 c -0.916,0.1868 -1.4321,0.7112 -1.5034,1.6892 l -0.0607,3.9558 c 1.5641,-0.1245 4.3545,-0.1867 5.5192,-0.1867 5.202,0 9.6187,2.596 9.6187,8.4454 0.002,3.3783 -1.7511,6.4277 -5.1382,8.1879 -2.2047,1.1642 -5.1294,1.7511 -9.939,1.7511 -4.7373,0 -7.9208,-0.0711 -12.6681,-0.0711 -0.2561,-0.4535 -0.3911,-2.7913 -0.0623,-3.1114 1.1025,-0.1958 1.6269,-0.3288 2.2765,-0.5869 z" fill="#ffffff" fill-rule="evenodd"/>
  <path d="m 563.1271,374.643 c 2.0162,-2.2136 3.7676,-4.2938 5.0032,-6.1074 0.1252,-0.1333 0.1958,-0.4622 0.0622,-0.6489 -1.5551,-2.8627 -3.3783,-5.7874 -4.9341,-7.9299 -1.2355,-1.7513 -1.7602,-2.4713 -5.7871,-2.9869 -0.257,-0.5246 -0.1245,-2.8004 0.2578,-3.1205 0.5254,0 5.0052,0.1956 8.1254,0.1956 3.4413,0 7.4765,-0.1331 8.1876,-0.1956 0.2581,0.3911 0.3198,2.7917 0.1245,3.1205 -0.3823,0.062 -1.298,0.1956 -1.4936,0.3911 -0.5151,0.2578 -0.3911,0.7112 -0.1867,1.0403 0.7119,1.4933 1.5558,3.2447 2.4625,4.418 0.0716,0.1245 0.1955,0.0625 0.258,0 1.2356,-1.4934 2.2756,-3.1913 2.7289,-4.0358 0.1351,-0.4535 0.3916,-1.0314 -0.2575,-1.298 -0.5156,-0.2578 -1.1648,-0.4533 -1.8847,-0.5156 -0.061,-0.7824 0,-2.8004 0.3288,-3.1205 0.9082,0 3.0492,0.1956 5.3252,0.1956 3.7079,0 4.8717,-0.1331 5.8494,-0.1956 0.2588,0.3911 0.4533,2.4003 0.1955,3.1205 -3.449,0.6489 -3.8313,1.1023 -5.4582,2.7292 -1.6874,1.8133 -3.5738,4.4182 -4.8094,6.1073 -0.0622,0.0623 -0.1335,0.3201 -0.0622,0.3911 1.4941,2.4626 2.7914,4.6761 4.0891,6.623 2.7297,3.7691 2.2136,4.356 7.1474,5.0049 0.1349,0.4534 -0.1955,2.8539 -0.5866,3.1205 -1.6168,0 -5.8405,-0.1955 -7.9918,-0.1955 l -7.7248,0.1955 c -0.2658,-0.3911 -0.3918,-2.6669 -0.3296,-3.1205 0.5156,-0.1333 1.2358,-0.2575 1.5647,-0.5866 0.1872,-0.1956 0.1865,-0.6489 0.0622,-0.978 -0.7192,-1.2978 -1.4936,-2.5336 -2.8627,-4.6761 -0.0607,-0.1244 -0.2578,-0.062 -0.32,0.0625 -1.6889,2.5424 -2.9247,4.036 -2.9957,4.6136 -0.0613,0.4533 0.071,0.8535 0.7822,1.1113 0.5246,0.1955 0.978,0.2578 1.8224,0.4533 0.1343,0.5869 -0.1333,2.5339 -0.4533,3.1205 -0.9145,0 -3.4496,-0.1955 -5.3963,-0.1955 -2.399,0 -6.1071,0.1245 -7.0141,0.1955 -0.1955,-0.4624 -0.3908,-2.7291 -0.1333,-3.1205 3.7084,-0.5866 4.1605,-0.7822 6.3047,-3.1824 z" fill="#ffffff" fill-rule="evenodd"/>
  <path d="m 609.9043,357.0944 c -1.5641,0.9155 -2.6674,3.058 -2.6674,7.9298 10e-4,8.8363 2.7291,13.0593 6.303,13.0593 0.7129,-3e-4 1.5644,-0.2581 2.018,-0.6492 1.4232,-1.1022 2.338,-3.378 2.338,-8.6409 10e-4,-7.9299 -2.4094,-12.1523 -6.3743,-12.1523 -0.6471,-3e-4 -1.102,0.1955 -1.6173,0.4533 z m 17.9321,9.9385 c 0,5.5298 -2.4728,9.557 -5.9136,11.6995 -2.4693,1.5644 -6.4983,2.7913 -9.6807,2.7913 -10.3906,0 -14.7484,-6.2318 -14.7484,-14.2859 10e-4,-4.8096 2.2758,-8.9701 5.9119,-11.3081 2.2762,-1.4314 5.7782,-2.7914 9.7432,-2.7914 9.6809,0 14.6861,6.303 14.6876,13.8946 z" fill="#ffffff" fill-rule="evenodd"/>
  <path d="m 653.5633,381.5237 c -4.4906,0 -8.0642,-1.8136 -10.4022,-4.8093 -1.8832,-2.4628 -2.7294,-5.7786 -2.7294,-9.0943 0,-4.3475 2.6049,-9.2188 6.8899,-11.6282 2.3392,-1.4936 6.6229,-2.8536 9.9387,-2.8536 3.1218,0 4.6141,0.3911 6.0452,0.9692 0.3928,0.133 1.8224,0.7822 2.4,1.9467 0.1971,0.3911 0.1335,1.0402 0,1.4313 -0.5151,1.4933 -2.4623,3.7694 -3.1822,4.0982 -0.2571,0.0623 -1.1025,0.1245 -1.2981,-0.071 -1.3592,-1.4936 -3.8313,-4.8006 -6.9518,-4.8006 -2.9244,-2e-4 -5.1294,3.0492 -5.1294,7.7252 8e-4,2.4714 0.4533,5.2008 2.0714,7.3432 2.0198,2.5334 4.2935,3.1825 6.7651,3.1825 2.5354,0 4.7383,-0.6489 7.6008,-2.7914 0.1973,0.1333 0.4533,0.3289 0.5158,0.6489 0.1336,0.7112 -0.1336,2.5339 -0.7114,3.2538 -3.2535,3.9556 -8.1876,5.4494 -11.8224,5.4494 z" fill="#ffffff" fill-rule="evenodd"/>
  <path d="m 683.2465,377.3721 c 1.4943,-0.3289 1.6881,-0.9155 1.8837,-2.7291 0.2585,-4.9429 0.1955,-8.7121 0.1955,-16.3128 10e-4,-0.0625 -0.3288,-0.5158 -0.4536,-0.5158 -0.4513,-0.0625 -1.2353,-0.0623 -1.8224,-0.0623 -0.7812,-2e-4 -1.4934,0.3826 -2.2755,1.8759 -0.5859,1.111 -1.2358,2.6669 -1.8137,4.036 -0.1945,0.2578 -3.058,-0.3289 -3.3157,-0.7822 0.3911,-2.0183 0.9777,-6.6321 1.2355,-9.2279 0.1955,-0.0625 0.2578,-0.0622 0.3911,-0.0622 1.1025,0.1955 2.6581,0.4533 4.9341,0.4533 h 15.5928 c 3.1842,0 5.3963,-0.1956 6.3652,-0.3911 l 0.2674,0.3289 c -0.5859,2.4625 -1.0408,6.4274 -1.3076,9.4856 -0.3806,0.1956 -3.1115,0.1956 -3.307,0 -0.1938,-1.5024 -0.7202,-3.5116 -1.04,-4.4182 -0.3901,-1.0403 -1.298,-1.2981 -1.7514,-1.3691 -0.7189,-0.0623 -1.8224,-0.1245 -2.4093,0 -0.1318,0 -0.3911,0.3291 -0.3911,0.5246 10e-4,6.8183 -0.1242,14.2237 0,16.7573 0.0632,0.5244 0.1955,1.6269 1.298,2.1513 0.7215,0.2575 1.8847,0.3823 3.7071,0.7111 0.2589,0.3201 -0.0622,2.7294 -0.3913,3.1205 -2.8524,0 -6.9518,-0.1955 -9.8765,-0.1955 -2.8529,0 -5.8499,0.1955 -8.7032,0.1955 -0.3904,-0.3291 -0.3911,-2.8004 0,-3.1205 1.4938,-0.1955 2.4002,-0.3288 2.9879,-0.4533 z" fill="#ffffff" fill-rule="evenodd"/>
  <path d="m 723.0731,363.4684 c 0,0.1243 0.1948,0.5156 0.5148,0.5156 1.8235,0.0622 5.6541,0.1333 6.7566,-0.0622 0.3293,-0.0711 0.5241,-0.3289 0.5864,-0.5867 -0.2571,-4.2227 -1.7512,-6.8896 -4.2227,-6.8896 -2.2751,-2e-4 -3.6359,3.3158 -3.6351,7.0229 z m 17.0239,9.4854 c 0.062,0.8445 -0.3296,2.4626 -0.4629,2.7914 -2.7914,3.6361 -8.1166,5.7785 -12.4013,5.7785 -4.2298,0 -6.9521,-1.2977 -8.9078,-3.1824 -2.987,-2.7297 -4.0269,-7.1477 -4.0269,-10.7835 0,-5.4585 2.5333,-9.8057 6.1693,-12.0815 2.3476,-1.3691 5.3341,-2.338 8.1252,-2.338 7.9318,0 10.3928,6.2319 10.917,9.8055 0.0632,0.4533 0.8447,0.978 1.2358,1.1024 0.0637,0.2664 -0.3911,2.2136 -0.5869,2.4091 -1.9457,0.7822 -11.5034,1.2981 -16.4995,1.4314 -0.1938,0.0622 -0.3289,0.5156 -0.3289,0.7111 0.1971,1.6269 1.04,3.316 2.5959,4.5516 1.5036,1.2358 3.1915,1.8136 5.9206,1.8136 2.9877,0 5.1914,-0.8444 7.9208,-2.5958 0.0635,0.0622 0.3291,0.32 0.3296,0.5866 z" fill="#ffffff" fill-rule="evenodd"/>
  <path d="m 754.5785,373.6027 c 1.2983,-2.6669 3.8311,-9.2276 5.6536,-13.8414 0.3911,-1.0402 0.4533,-1.5556 -0.1956,-2.9869 -0.0612,-0.1958 0.0623,-0.5869 0.2578,-0.7202 0.8449,-0.7112 6.0452,-2.9159 6.3652,-2.9159 0.2666,0 0.6577,0.1867 0.7822,0.5778 1.9487,5.1383 6.7563,17.0242 8.4454,20.6691 1.2981,2.8536 2.3378,2.9158 5.2627,3.5027 0.3299,0.1953 0,2.7292 -0.2578,3.058 -1.8207,-0.0713 -6.7563,-0.1955 -8.6409,-0.1955 -1.9467,0 -6.0452,0.1245 -7.2807,0.1955 -0.3906,-0.1335 -0.5779,-2.9247 -0.3911,-3.1205 0.5866,-0.1955 1.3688,-0.3288 1.8844,-0.5866 0.2684,-0.1245 0.658,-0.3911 0.3291,-1.298 -1.173,-3.2536 -2.9872,-7.5385 -4.5428,-11.1743 -0.0705,-0.1339 -0.3288,-0.1336 -0.3911,0 -1.7596,4.6758 -3.0582,8.8987 -3.3782,9.9387 -0.3276,1.04 0.0622,1.8847 0.5776,2.2047 0.5249,0.3289 1.4316,0.5867 3.0584,0.9155 0.2588,0.3201 0,2.8539 -0.5246,3.1205 -1.1007,0 -4.9964,-0.1955 -6.5608,-0.1955 -1.8128,0 -4.8096,0.1955 -5.9116,0.1955 -0.4518,-0.3911 -0.5158,-2.9247 -0.1958,-3.1205 4.0285,-0.7111 4.0985,-1.04 5.6546,-4.2227 z" fill="#ffffff" fill-rule="evenodd"/>
  <path d="m 393.6499,122.7209 c -2.9083,0 -5.202,0.667 -7.0245,2.0361 -2.6046,1.9643 -5.2538,5.4674 -3.5738,11.228 -1.6891,2.2135 -2.7646,4.6138 -2.9337,9.0144 -0.0975,0.1598 -0.3022,0.4446 -0.4534,0.6668 -1.1644,1.6178 -4.5692,6.3561 -0.8714,12.5613 -0.791,1.4757 -1.8932,3.8936 -1.5109,6.943 0.2578,2.0268 1.0488,5.6538 3.5025,8.2408 -3.9546,3.1114 -8.5609,7.3165 -11.7703,11.4682 -0.5854,0.7554 -1.2358,1.609 -1.9381,2.5335 -3.6799,4.8449 -10.534,13.8594 -14.8104,16.4197 -8.7196,5.2359 -19.3531,23.2736 -12.9168,51.5167 3.379,14.8104 3.9558,22.7316 4.2582,26.9899 0.277,3.8137 0.5156,7.103 3.7071,9.4945 1.3245,0.9953 2.9159,1.5288 4.5871,1.5288 3.0139,-2e-4 6.552,-1.2443 11.9923,-10.2588 1.8769,-3.1026 5.0495,-9.0499 5.7783,-14.8373 1.9134,-0.2757 4.863,-1.0579 6.8188,-4.0093 1.8673,-2.8004 1.7335,-5.8672 1.6181,-8.33 -0.025,-0.5866 -0.0711,-1.4578 -0.0444,-2.08 0.5156,-0.2313 1.013,-0.3024 1.8487,-0.4268 1.7433,-0.2578 4.3653,-0.6401 6.9074,-2.7559 4.313,-3.5914 3.4317,-8.8897 2.9517,-11.7435 -0.1409,-0.8626 -0.3022,-1.787 -0.3465,-2.5868 0.3296,-0.036 0.6756,-0.0892 1.04,-0.1512 4.0982,-0.7202 7.2094,-3.814 8.1163,-8.072 0.7744,-3.6184 -0.1688,-7.3875 -2.3736,-10.2678 0.9438,-2.0538 1.9913,-4.7207 1.4047,-7.8409 -0.311,-1.6536 -1.4047,-4.9074 -5.2542,-6.5076 l 0.6847,-0.9601 c 2.1443,-3.0136 3.7782,-5.2982 4.5428,-8.0896 1.1397,0.4085 2.1691,0.5244 2.9781,0.5244 2.5343,0 4.4628,-0.9868 5.9297,-2.2758 0.9069,0.2488 1.6889,0.2934 2.1513,0.2934 2.9161,0 5.085,-1.5914 5.7962,-2.1158 0.8364,-0.6224 1.6448,-1.3336 2.427,-2.018 1.3257,-1.1559 3.5292,-3.0938 4.6405,-3.0938 0.3296,0 0.8003,0.2578 1.0579,0.409 1.734,1.0579 2.2311,1.7423 2.5603,2.1957 1.7261,2.3914 3.9115,3.6005 6.4985,3.6005 3.7965,0 5.7961,-2.587 6.8807,-3.9737 0.3561,-0.4536 0.8356,-1.0846 1.5291,-1.8935 2.4555,-2.9071 7.8497,-6.8808 11.788,-9.77 3.3429,-2.4627 5.1825,-3.8316 6.3919,-5.1205 1.0314,-0.5602 3.5292,-2.0538 4.3469,-5.3696 0.9692,-3.9296 -1.1912,-7.1209 -2.7737,-9.4501 -2.746,-4.0448 -6.2049,-6.0983 -10.2855,-6.0983 -1.5556,-3e-4 -2.8713,0.2933 -4.036,0.5511 -0.9498,0.2043 -1.698,0.3734 -2.5245,0.3734 -3.2538,-2e-4 -6.1165,0.9334 -8.4543,1.7335 -0.6383,-1.0314 -1.485,-2.1604 -2.7115,-3.2802 1.2812,-2.0271 1.8225,-4.445 1.4934,-6.8899 -0.6663,-4.9872 -4.5425,-9.0943 -11.5213,-12.2148 -6.7911,-3.0315 -20.4201,-7.8409 -28.1007,-7.8409 z m 0,7.2809 c 5.7788,0 18.1072,4.0718 25.1301,7.2099 8.4737,3.787 8.1166,7.752 6.1341,9.3788 -1.991,1.6181 -5.9562,4.5073 -1.262,6.4897 4.6856,1.9825 4.6844,4.3293 6.6671,7.0408 0.473,0.6401 1.138,0.8891 1.9557,0.8891 2.5976,-3e-4 6.6853,-2.516 10.6681,-2.516 2.8727,0 4.8182,-0.9246 6.5605,-0.9246 1.4328,-2e-4 2.7205,0.6313 4.2673,2.9071 3.4244,5.0495 1.0846,3.4314 -0.7202,5.5918 -1.8043,2.1689 -13.7082,9.5567 -18.5798,15.335 -1.9726,2.338 -2.4625,3.2803 -2.8447,3.2803 -0.56,0 -0.8712,-2.0445 -5.2718,-4.7293 -1.7229,-1.049 -3.3425,-1.4759 -4.8449,-1.4759 -4.9689,0 -8.7655,4.5962 -11.3883,6.5254 -0.6753,0.4977 -1.1465,0.7021 -1.4754,0.7021 -1.3424,0 -0.4357,-3.3692 -2.3116,-3.947 -0.0967,-0.027 -0.1864,-0.0444 -0.2754,-0.0444 -1.8756,-2e-4 -3.0935,5.9739 -5.494,5.9739 -0.3901,-3e-4 -0.809,-0.151 -1.2625,-0.5156 -1.4117,-1.1113 -3.2269,-1.6801 -4.827,-1.6801 -2.2834,-2e-4 -4.1514,1.1469 -3.8317,3.4849 0.5441,3.9647 -0.3643,4.8716 -4.3293,10.4634 -3.9737,5.5913 -3.067,6.6673 -2.5247,9.1921 0.2492,1.1821 1.6092,1.2179 3.0312,1.2179 0.0983,0 0.1956,0 0.2936,0 1.539,0 3.0759,0.0446 3.3428,1.4933 0.5425,2.8804 -4.5073,7.5743 -1.2625,9.7614 3.2553,2.1956 3.067,7.3696 0,7.9119 -3.0656,0.5423 -5.2272,-1.0846 -6.6674,3.9649 -1.4487,5.0493 1.8043,10.2856 -0.3646,12.0904 -2.1601,1.8045 -4.8716,0.3555 -9.0142,3.2447 -4.1514,2.8891 -1.2625,9.7432 -2.7115,11.9035 -1.4399,2.169 -7.2096,-1.2625 -7.9386,6.6765 -0.684,7.6007 -8.6677,19.1842 -10.5968,19.1842 -0.0884,0 -0.16,-0.0267 -0.2222,-0.071 -1.4402,-1.0758 0.3644,-7.7522 -5.2272,-32.2793 -5.59,-24.5362 3.2445,-39.8622 9.5565,-43.6494 6.3138,-3.7873 14.4283,-15.1574 18.7579,-20.7489 4.3298,-5.5919 11.9923,-11.6282 15.335,-13.6107 3.3344,-1.9915 4.8716,-10.4631 4.7738,-12.09 -0.0872,-1.6181 1.8938,-3.9649 3.0668,-5.9474 0.6865,-1.1556 0.0267,-1.547 -1.2889,-1.547 -0.941,0 -2.2224,0.1958 -3.5739,0.4624 -3.2517,0.631 -4.7826,4.5962 -3.2535,8.0276 1.5379,3.4224 -1.5291,4.5072 -1.5291,4.5072 -2.7017,-2e-4 -3.4314,-1.9824 -3.787,-4.8718 -0.3629,-2.8803 3.9649,-4.8716 0.8978,-9.2009 -3.067,-4.3205 1.8046,-4.6849 1.9825,-9.7344 0.1872,-5.0495 1.8046,-4.5072 3.0671,-7.3964 1.2625,-2.8894 -2.5248,-5.0495 0.542,-7.3608 0.5345,-0.3914 1.4492,-0.569 2.6508,-0.5693 z" fill="#ffffff" fill-rule="evenodd"/>
  <path d="M 781.2937,322.5305 H 74.1278 v -10.7214 h 707.1659 z" fill="#ffffff" fill-rule="evenodd"/>
  <path d="m 512.4092,341.3328 c -1.6801,1.0755 -4.8635,6.6406 -5.9302,12.3035 -1.6446,-1.5826 -3.2893,-3.1649 -4.9339,-4.7472 -3.3853,7.3251 3.9826,24.4737 6.7117,32.6346 h 8.331 c 2.7382,-8.1609 10.1069,-25.3095 6.7107,-32.6346 -1.6342,1.5821 -3.2802,3.1646 -4.925,4.7472 -1.0755,-5.6632 -4.2936,-11.228 -5.9643,-12.3035 z" fill="#ffffff" fill-rule="evenodd"/>
</svg>
