<svg xmlns="http://www.w3.org/2000/svg" viewBox="74.1 122.7 707.4 258.8">
<path d="m 79,275.8 c 2.3,-0.6 2.8,-1.8 3,-4.7 0.1,-1.2 0.2,-6.8 0.2,-14.3 8e-4,-8.3 0,-15.7 -0.1,-18.2 -0.1,-2.7 -0.3,-3.7 -2.1,-4.2 -1.7,-0.5 -2.9,-0.8 -5.2,-0.9 -0.6,-0.5 -0.6,-3.6 0,-4 4.3,0 9.2,0.3 13.5,0.3 h 33 c 4.4,-2e-4 10,-0.3 13.5,-0.3 0.7,0.4 0.4,3.4 -0.1,4 -2.4,0.3 -4,0.7 -4.9,1.1 -1.5,0.7 -1.9,1.4 -2,4.1 -0.1,3.2 -0.1,9.8 -0.1,16.8 8e-4,5.7 0,12.5 0.2,16.3 0.1,1.5 0.4,3.2 2,3.9 1.2,0.5 3,0.8 6.2,1.3 0.3,0.6 -0.1,3.6 -0.6,4 -4.4,0 -9.6,-0.3 -14,-0.3 -3.7,0 -9.9,0.3 -13.5,0.3 -0.6,-0.5 -0.5,-3.5 -0.2,-4 2,-0.3 3.7,-0.5 5.1,-0.9 1.3,-0.4 1.9,-1.3 2,-3.2 0.1,-1.9 0.1,-16.6 0.1,-18.9 7e-4,-9.6 0.1,-14.2 -0.2,-17.1 -0.1,-1 -0.4,-1.6 -0.7,-1.6 -1.9,-0.3 -16.6,-0.2 -17.9,0 -0.1,-3e-4 -0.7,1 -0.7,1.1 -0.1,1.6 -0.2,4.9 -0.2,17.9 7e-4,2 0,16 0.1,17.5 0.1,2 0.3,3.5 2.2,4.2 1.1,0.4 3.8,0.8 5.7,1.1 0.4,0.6 0.1,3.6 -0.6,4 -4.6,0 -10.1,-0.3 -14.8,-0.3 -7,0 -11.6,0.3 -13,0.3 -0.5,-0.6 -0.5,-3.5 0,-4 2,-0.3 3.2,-0.7 4.5,-1 z" fill="#ffffff" fill-rule="evenodd"/>
<path d="m 183.3,274.7 c 3.9,-3.5 5.1,-10.2 5.1,-17.4 0,-8.8 -2.3,-17.2 -7.4,-21.5 -2.4,-1.9 -4.5,-2.8 -7.7,-2.8 -2.1,0 -4.4,0.5 -6,1.7 -4.7,3.2 -6.2,10.2 -6.2,18 0,7.1 2.1,16.5 7.9,21.4 2.4,1.9 4.7,3 8.2,3 2,0 4.3,-0.7 6.1,-2.3 z m -29.6,-0.3 c -5.4,-5.5 -7.2,-12.8 -7.2,-19.3 5e-4,-7 2.3,-15.6 10.2,-21.2 4.8,-3.3 11.3,-5.7 19.2,-5.7 17.8,-2e-4 27.1,12.2 27.1,26.1 0,6.3 -1.7,12.5 -5.2,17.1 -5.9,7.4 -14.5,10.7 -22.9,10.7 -10.3,0 -16.5,-3 -21.1,-7.6 z" fill="#ffffff" fill-rule="evenodd"/>
<path d="m 219,269.5 c 5,-11.5 10.6,-26.3 12.8,-32.4 0.9,-2 2,-5.8 2.3,-7.6 1.5,0.2 3.1,0.2 4.8,0.2 1.8,-2e-4 3.4,0 4.8,-0.2 0.3,1.5 1.2,4.2 1.8,5.7 3.2,8.4 9.2,24.8 12.4,32.5 3.1,7.3 3.3,8.1 10.3,9.1 0.5,0.5 0.2,3.7 -0.4,4 -2.2,0 -5.7,-0.3 -13.2,-0.3 -6.4,0 -10.4,0.3 -13.6,0.3 -0.5,-0.6 -0.7,-3.5 -0.1,-4 0.8,-0.1 3.6,-0.7 4.4,-1.2 0.8,-0.6 0.8,-1.3 0.8,-1.6 -0.4,-3.3 -7.3,-22.1 -10.7,-31.2 0,-0.1 -0.3,-0.1 -0.3,0 -1.9,5.5 -8,22.5 -9.6,28.4 -0.8,3 -0.4,4.3 2,4.8 1.5,0.3 2.6,0.5 4.4,0.8 0.4,0.5 0.3,3.3 -0.3,4 -2,0 -5.7,-0.3 -11.5,-0.3 -3.2,0 -7.7,0.3 -10.7,0.3 -0.5,-0.6 -0.6,-3.4 0,-4 6.3,-1 7.5,-2 9.7,-7.2 z" fill="#ffffff" fill-rule="evenodd"/>
<path d="m 288.3,274.4 c 2,0 4.1,-0.3 5.6,-3.3 0.1,-0.2 0,-1.2 -0.1,-1.5 -1.4,-3.5 -9.6,-19.2 -14.4,-28.2 -3.9,-7.4 -4.9,-7 -11.2,-8 -0.4,-0.5 -0.3,-3.5 0.3,-3.9 1.6,-3e-4 5.7,0.3 12.8,0.3 7.1,-3e-4 12.7,-0.2 13.7,-0.2 0.6,0.3 0.6,3.8 0.2,4 -1.3,0.3 -3.1,0.5 -3.7,0.8 -0.7,0.3 -0.7,1.1 -0.4,1.6 2.5,5.8 8.7,17.8 10.4,20.9 0.1,0.3 0.5,0.3 0.7,0 3.6,-7.4 6.8,-16.1 7.5,-19.4 0.3,-1.2 0.1,-2.5 -1,-2.8 -1.2,-0.3 -3.3,-0.8 -5.4,-1 -0.8,-0.4 -0.5,-3.7 0.2,-4 3.7,0.1 7.4,0.3 11.1,0.3 3.2,-3e-4 7.2,-0.2 9.8,-0.2 0.7,0.4 0.6,3.8 -0.1,4 -5.9,1 -7.4,2.9 -9,6.7 -5.2,11.7 -11.7,25.6 -15.5,31.4 -3.1,4.7 -8.1,12.6 -14.7,12.6 -1.9,0 -2.9,-0.3 -4.1,-1 -1.6,-1.4 -2.6,-3.9 -2.6,-6.9 0,-1.2 0.6,-3.8 0.9,-4.4 1.9,0.8 6.3,2.4 9.2,2.4 z" fill="#ffffff" fill-rule="evenodd"/>
<path d="m 450,274.7 c 3.9,-3.5 5.1,-10.2 5.1,-17.4 10e-4,-8.8 -2.3,-17.2 -7.4,-21.5 -2.4,-1.9 -4.5,-2.8 -7.7,-2.8 -2.1,0 -4.4,0.5 -6,1.7 -4.7,3.2 -6.2,10.2 -6.2,18 0,7.1 2.1,16.5 7.9,21.4 2.4,1.9 4.7,3 8.2,3 2,0 4.3,-0.7 6.1,-2.3 z m -29.6,-0.3 c -5.4,-5.5 -7.2,-12.8 -7.2,-19.3 5e-4,-7 2.3,-15.6 10.2,-21.2 4.8,-3.3 11.3,-5.7 19.2,-5.7 17.8,-2e-4 27.1,12.2 27.1,26.1 0,6.3 -1.7,12.5 -5.2,17.1 -5.9,7.4 -14.5,10.7 -22.9,10.7 -10.3,0 -16.5,-3 -21.1,-7.6 z" fill="#ffffff" fill-rule="evenodd"/>
<path d="m 522.3,234.7 c -2.7,-1.5 -5.8,-2.1 -9.3,-2.1 -8.9,-3e-4 -14.6,6.8 -14.6,21.2 0,9.4 4.6,22.4 18.6,22.4 2.1,0 4.6,-0.2 7.1,-2.3 2.1,-1.7 4.9,-5.2 7.1,-8.6 1,0.3 2.8,1.4 3.5,2.5 -1.3,3.7 -5.1,10.6 -7.6,12 -2.7,0.9 -6.3,2.2 -12.5,2.2 -19.2,0 -31,-9.1 -31,-27.4 2e-4,-9.6 4.8,-18.5 14.3,-23 4.7,-2.2 10.1,-3.4 17,-3.4 8.1,-2e-4 14.6,1.4 17.9,1.5 -0.4,2.9 -1.1,10.1 -1.1,14.6 -0.4,0.7 -4,1 -4.2,0.4 -1.2,-5.4 -1.7,-8 -5.1,-10 z" fill="#ffffff" fill-rule="evenodd"/>
<path d="m 584.6,280.8 c -3.5,0 -8.8,-0.3 -15.3,-0.3 -7.4,0 -12.7,0.3 -15.6,0.3 -0.7,-0.6 -0.6,-3.5 0,-4 2.5,-0.3 4.7,-0.7 5.8,-0.9 2.5,-0.6 3.1,-1.5 3.4,-4.7 0.4,-8.8 0.3,-21.6 0.3,-35 5e-4,-0.2 -0.3,-0.8 -0.5,-0.8 -1.6,-0.2 -5.6,-0.2 -7.5,-0.1 -1.3,0.1 -2.6,0.5 -4,3.3 -0.9,1.9 -1.8,3.9 -2.9,7.1 -0.4,0.4 -4.1,-0.3 -4.5,-1.2 0.7,-3.5 1.7,-10.7 2,-15.3 0.1,-0.2 0.8,-0.8 1,-0.7 2.7,0.9 6.1,1.1 8.1,1.1 h 29.6 c 5.3,-2e-4 8.7,-0.3 10.7,-0.9 0.4,0.1 0.6,0.7 0.6,0.8 -1,4.5 -1.9,9.8 -2.2,15.5 -0.6,0.4 -4.1,0.7 -4.5,0.3 -0.4,-3.3 -0.8,-5.1 -1.6,-7.6 -0.6,-1.9 -1.5,-2.4 -2.9,-2.6 -2.5,-0.2 -6.5,-0.2 -8.2,-0.1 -0.2,0.1 -0.4,0.4 -0.4,0.8 0,12.2 -0.3,31.4 0.1,36 0.1,0.8 0.1,2.9 2,3.7 1.2,0.5 3.8,0.8 6.9,1.3 0.5,0.5 0.3,3.4 -0.2,4 z" fill="#ffffff" fill-rule="evenodd"/>
<path d="m 627.7,257.5 c 0,-0.3 0.3,-0.9 0.4,-1.1 0.3,0 1.1,0.1 2.5,0.1 1.3,0 2.6,-0.2 3.8,-0.9 2.5,-1.5 4.2,-4.4 4.2,-9.2 5e-4,-7.4 -3.8,-12.1 -10.6,-12.1 -0.5,0 -1.8,0.1 -2.4,0.4 -0.1,0.1 -0.6,0.7 -0.6,1.2 -0.1,3.1 -0.1,6.2 -0.1,17.5 10e-4,4.5 -0.1,13.8 0.1,18.3 0.1,1.6 0.4,3.6 2.9,4.2 1.9,0.5 3.7,0.7 6.1,0.9 0.4,0.8 0.3,3.3 -0.3,4 -4.9,0 -10.3,-0.3 -15.1,-0.3 -4.6,0 -9.5,0.3 -14,0.3 -0.3,-0.9 -0.3,-3.5 0,-4 2,-0.3 3,-0.3 4.9,-0.8 2.1,-0.6 2.4,-2.5 2.5,-4.7 0.1,-3.3 0.2,-7.2 0.2,-17.4 5e-4,-7.6 0,-13.1 -0.1,-14.9 -0.2,-3.1 -0.7,-4 -3,-4.6 -1.2,-0.3 -2.8,-0.6 -4.7,-0.8 -0.3,-0.9 -0.2,-3.4 0.3,-4 2.6,0 7.3,0.3 12.1,0.3 6.9,-2e-4 10.2,-0.2 18.1,-0.2 2.7,-3e-4 7.7,0.4 11.4,3.1 3.1,2.4 5.8,6 5.8,11.9 8e-4,7.2 -3.7,11.6 -7.9,14 -3,1.8 -6.9,2.9 -10.6,2.9 -1.9,-2e-4 -3.1,-0.2 -4.1,-0.3 -0.9,-0.7 -1.8,-2.8 -1.8,-3.6 z" fill="#ffffff" fill-rule="evenodd"/>
<path d="m 700.5,274.7 c 3.9,-3.5 5.1,-10.2 5.1,-17.4 0,-8.8 -2.3,-17.2 -7.4,-21.5 -2.4,-1.9 -4.5,-2.8 -7.7,-2.8 -2.1,0 -4.4,0.5 -6,1.7 -4.7,3.2 -6.2,10.2 -6.2,18 5e-4,7.1 2.1,16.5 7.9,21.4 2.4,1.9 4.7,3 8.2,3 2,0 4.3,-0.7 6.1,-2.3 z m -29.6,-0.3 c -5.4,-5.5 -7.2,-12.8 -7.2,-19.3 0,-7 2.3,-15.6 10.2,-21.2 4.8,-3.3 11.3,-5.7 19.2,-5.7 17.8,-2e-4 27.1,12.2 27.1,26.1 0,6.3 -1.7,12.5 -5.2,17.1 -5.9,7.4 -14.5,10.7 -22.9,10.7 -10.3,0 -16.5,-3 -21.2,-7.6 z" fill="#ffffff" fill-rule="evenodd"/>
<path d="m 752.7,234.2 c -0.2,0.1 -0.6,0.8 -0.7,1.1 -0.2,0.8 -0.2,9.8 -0.2,14.9 0,0.3 0.3,0.5 0.5,0.5 0.8,0.1 1.7,0.1 3.6,0.1 3.2,-3e-4 5.8,-0.2 6.8,-0.8 1.7,-1.1 2.8,-3.3 2.8,-6.3 10e-4,-5.7 -3,-9.7 -10.6,-9.7 -0.6,-3e-4 -1.4,0.1 -2.2,0.3 z m 15,32.1 c 0,-6.9 -4.4,-10.9 -12.8,-10.9 -0.3,-3e-4 -1.8,0 -2.6,0.1 -0.2,-2e-4 -0.4,0.2 -0.4,0.5 0,6.2 -0.1,13 0.2,16.2 0.1,1.1 0.8,2.3 1.4,2.9 1.4,1.3 4.3,1.8 5.5,1.8 4.9,-2e-4 8.7,-3.5 8.7,-10.5 z m -35.8,-36.8 c 1.4,0 5.2,0.3 12.9,0.3 6.8,-2e-4 12.8,-0.3 15.2,-0.3 9.7,0 17.6,2 17.6,11.4 0,4.8 -3.6,8.7 -8.6,10.4 -0.2,0.1 -0.2,0.4 0,0.5 6.7,1.9 12.4,5 12.4,12.4 5e-4,6.7 -3.6,11.5 -10.9,14.6 -3.9,1.7 -10,2.4 -15.1,2.4 -3.8,0 -18.6,-0.4 -24.4,-0.4 -0.4,-0.7 -0.6,-3.6 0,-4 2.9,-0.3 4.7,-0.6 6.2,-1.2 1.3,-0.5 1.8,-1.6 2,-4 0.2,-2.2 0.2,-11 0.2,-16.9 0,-8.8 -0.1,-11.9 -0.2,-16.5 -0.1,-2.1 -0.4,-3.1 -2.4,-3.7 -1.5,-0.5 -3.7,-0.8 -4.7,-0.9 -0.5,-0.6 -0.4,-3.8 0,-4 z" fill="#ffffff" fill-rule="evenodd"/>
<path d="m 78.5,374.3 c 0.2,-3.1 0.5,-10.1 0.3,-14.9 -0.1,-1.1 -0.4,-1.6 -1.4,-1.9 -0.6,-0.2 -1.2,-0.3 -1.9,-0.4 -0.3,-0.3 -0.1,-2.9 0.3,-3.1 1.1,0 6,0.2 8.1,0.2 2.2,0 3.3,0 3.9,-0.1 0.3,0.7 0.7,1.8 1.1,2.6 1.8,3.8 4.3,8.8 5.5,10.9 0.1,0.1 0.2,0.1 0.3,0 1.8,-3.4 5.1,-11.5 5.7,-13.4 0.9,0.1 2.7,0.1 4.5,0.1 2.7,0 6.2,-0.2 8.1,-0.2 0.3,0.3 0.3,2.9 0,3.3 -1.2,0.2 -1.7,0.3 -2.4,0.5 -0.7,0.2 -1.2,0.5 -1.2,1.8 -0.1,3.7 0.1,10.2 0.3,15.6 10e-4,1.2 0.3,2.1 1.7,2.3 l 2.2,0.5 c 0.3,0.2 0.1,3 -0.3,3.1 -1.3,0 -5.4,-0.2 -7.1,-0.2 -4,0 -7.3,0.1 -8,0.2 -0.4,-0.1 -0.6,-2.9 -0.3,-3.1 2.7,-0.4 2.9,-1 3,-1.7 0.2,-2.7 0.2,-8.4 0.3,-14 10e-4,-0.1 -0.2,-0.1 -0.2,0 -1.6,3.6 -4.8,12.5 -6.8,17.7 -0.4,0.2 -2.9,0.7 -3.3,0.8 -2.1,-5.3 -4.7,-12.1 -7.5,-18.3 -0.1,-0.1 -0.3,-0.1 -0.3,0.1 0,4.7 -0.1,8.9 0.1,12.4 0.1,1.2 0.7,2.2 2,2.5 0.7,0.2 1.6,0.4 2.7,0.6 0.2,0.2 0.1,2.8 -0.2,3.1 -2.1,0 -4.8,-0.2 -6.9,-0.2 -1.8,0 -5.1,0.2 -6,0.2 -0.2,-0.3 -0.3,-2.9 -0.1,-3.1 3.9,-0.8 4.1,-1.4 4.2,-3.6 z" fill="#ffffff" fill-rule="evenodd"/>
<path d="m 125.2,377.4 c 1.9,-0.5 1.8,-1.2 1.8,-3.5 0,-2.6 0.1,-5.2 0.1,-7.8 10e-4,-2.3 -0.1,-4.5 -0.1,-6.8 -0.1,-1.1 -0.4,-1.6 -1.4,-1.9 -0.6,-0.2 -1.2,-0.3 -1.9,-0.4 -0.3,-0.3 -0.1,-2.9 0.3,-3.1 1.1,0 3.1,0.2 7.5,0.2 4.7,0 7,-0.2 7.5,-0.2 0.3,0.2 0.4,2.9 0.1,3.1 l -1.8,0.4 c -0.9,0.2 -1.4,0.8 -1.4,1.5 -0.1,2.2 -0.1,6.2 -0.2,9.7 3e-4,0.1 0.2,0.2 0.3,0.1 2.1,-2.1 6.1,-5.8 8.1,-8.3 0.3,-0.3 0.3,-0.4 0.3,-0.8 0,-1.2 -0.3,-1.8 -1.2,-2.1 -0.4,-0.1 -0.9,-0.3 -1.6,-0.4 -0.3,-0.3 -0.1,-3.1 0.2,-3.3 1.7,0 3.2,0.2 7.5,0.2 4.4,0 6.1,-0.2 7.4,-0.2 0.4,0.2 0.3,3 0,3.3 -1,0.3 -2.3,0.5 -2.7,0.8 -0.5,0.3 -0.6,0.7 -0.6,1.3 0,2.4 0.1,11.2 0.2,15.9 0,1.1 0.4,1.8 1.2,2.1 0.8,0.3 1.6,0.3 2.7,0.7 0.1,0.1 -0.1,2.9 -0.4,3.1 -2.2,-0.1 -5.1,-0.2 -8.1,-0.2 -2.8,0 -4.8,0 -6.9,0.2 -0.2,-0.5 -0.3,-2.3 -0.1,-2.7 2.2,-1.2 2.8,-1.6 2.9,-2.3 0.1,-2.2 0.1,-6.4 0.1,-10.5 5e-4,-0.3 -0.3,-0.6 -0.5,-0.3 -1.9,2 -6.4,6 -8.2,8.4 -0.1,0.2 -0.4,0.7 -0.4,1.2 3e-4,1.9 0.1,2.3 1.1,2.7 0.5,0.1 1.2,0.3 2,0.4 0.4,0.3 -0.1,2.8 -0.3,3.1 -1.2,0 -5.1,-0.2 -7.5,-0.2 -2.4,0 -6,0.2 -7.4,0.2 -0.3,-0.3 -0.3,-2.7 0,-3.1 0.9,-0.1 1.2,-0.3 1.8,-0.4 z" fill="#ffffff" fill-rule="evenodd"/>
<path d="m 169.2,377.4 c 1.4,-0.4 1.6,-0.8 1.7,-2.6 0.1,-1.8 0.1,-4.8 0.1,-7.8 10e-4,-2.7 0.1,-5.2 -0.1,-7.7 -0.1,-1.1 -0.4,-1.6 -1.4,-1.9 -0.6,-0.2 -1.2,-0.3 -1.9,-0.4 -0.3,-0.3 -0.1,-2.9 0.3,-3.1 1.1,0 3.1,0.2 7.5,0.2 4.8,0 6.6,-0.2 7.2,-0.2 0.3,0.2 0.4,2.9 0.1,3.1 -0.6,0.1 -0.6,0.2 -1.4,0.4 -0.9,0.2 -1.2,0.8 -1.3,1.9 l 10e-4,5.5 c 0,0.1 0.2,0.3 0.3,0.3 0.9,0.1 2.3,0.1 3.6,0.1 1.7,-3e-4 3.3,0 4,-0.1 0.1,-2e-4 0.4,-0.1 0.4,-0.3 0.2,-1.4 0,-5 0,-5.3 0,-1 -0.1,-1.6 -1.3,-1.9 -0.5,-0.1 -1.2,-0.2 -1.9,-0.3 -0.1,-0.5 0,-3 0.3,-3.2 1.2,0 6.2,0.2 7.4,0.2 2.7,0 5.3,-0.1 8,-0.2 0.1,0.5 0.2,2.7 0,3.3 l -2,0.5 c -1.4,0.3 -1.4,0.7 -1.4,1.8 5e-4,1.6 -0.1,4.4 -0.1,7.5 0.1,3.6 0.1,6.4 0.1,8 0.1,1.6 0.9,2.2 2,2.5 l 2,0.5 c 0.3,0.2 -0.1,2.8 -0.4,3.1 -1.9,0 -2.8,-0.2 -8.2,-0.2 -4.2,0 -6.5,0.1 -7,0.2 -0.2,-0.2 -0.4,-2.9 -0.3,-3.1 l 2,-0.4 c 0.6,-0.2 0.8,-0.9 0.9,-1.4 0.1,-1.2 0.1,-4.9 0.1,-6.8 3e-4,-0.1 -0.1,-0.3 -0.3,-0.3 h -7.9 c -0.1,0 -0.3,0.2 -0.3,0.3 10e-4,2.1 -0.1,4.3 0,6.1 0.1,1.6 0.7,1.9 1.6,2.1 0.5,0.1 1.2,0.2 1.8,0.3 0.1,0.2 -0.1,2.9 -0.4,3.1 -0.8,0 -4.7,-0.2 -8.6,-0.2 -3.1,0 -5.7,0.2 -6.9,0.2 -0.3,-0.2 -0.2,-2.9 0,-3.1 0.7,-0.1 1.2,-0.2 1.8,-0.4 z" fill="#ffffff" fill-rule="evenodd"/>
<path d="m 213.3,377.4 c 1.9,-0.5 1.8,-1.2 1.8,-3.5 0,-2.6 0.1,-5.2 0.1,-7.8 0,-2.3 -0.1,-4.5 -0.1,-6.8 -0.1,-1.1 -0.4,-1.6 -1.4,-1.9 -0.6,-0.2 -1.2,-0.3 -1.9,-0.4 -0.3,-0.3 -0.1,-2.9 0.3,-3.1 1.1,0 3.1,0.2 7.5,0.2 4.8,0 7,-0.2 7.5,-0.2 0.3,0.2 0.4,2.9 0.1,3.1 l -1.7,0.4 c -0.9,0.2 -1.4,0.8 -1.4,1.5 -0.1,2.2 -0.1,6.2 -0.2,9.7 0,0.1 0.2,0.2 0.3,0.1 2.1,-2.1 6.1,-5.8 8.1,-8.3 0.3,-0.3 0.3,-0.4 0.3,-0.8 10e-4,-1.2 -0.3,-1.8 -1.2,-2.1 -0.4,-0.1 -0.9,-0.3 -1.6,-0.4 -0.3,-0.3 -0.1,-3.1 0.2,-3.3 1.7,0 3.2,0.2 7.5,0.2 4.4,0 6.1,-0.2 7.4,-0.2 0.4,0.2 0.3,3 0,3.3 -1,0.3 -2.3,0.5 -2.7,0.8 -0.5,0.3 -0.7,0.7 -0.7,1.3 0,2.4 0.1,11.2 0.2,15.9 0,1.1 0.4,1.8 1.2,2.1 0.8,0.3 1.6,0.3 2.7,0.7 0.1,0.1 -0.1,2.9 -0.4,3.1 -2.2,-0.1 -5.1,-0.2 -8.1,-0.2 -2.8,0 -4.8,0 -6.9,0.2 -0.2,-0.5 -0.3,-2.3 -0.1,-2.7 2.2,-1.2 2.8,-1.6 2.9,-2.3 0.1,-2.2 0.1,-6.4 0.1,-10.5 2e-4,-0.3 -0.3,-0.6 -0.4,-0.3 -1.9,2 -6.4,6 -8.2,8.4 -0.1,0.2 -0.4,0.7 -0.4,1.2 0,1.9 0.1,2.3 1.1,2.7 0.5,0.1 1.2,0.3 2,0.4 0.4,0.3 -0.1,2.8 -0.3,3.1 -1.2,0 -5.1,-0.2 -7.5,-0.2 -2.4,0 -6,0.2 -7.4,0.2 -0.3,-0.3 -0.3,-2.7 0,-3.1 0.9,-0.1 1.2,-0.3 1.8,-0.4 z" fill="#ffffff" fill-rule="evenodd"/>
<path d="m 272.6,363.9 v 0.8 c -0.1,1.2 -0.8,5 -1.2,5.1 -0.6,0.3 -13.4,0.5 -14.7,0.5 l -0.1,-0.7 c 0,-1.3 0.7,-5.3 1,-5.3 4.2,0 13.1,-0.3 15,-0.4 z" fill="#ffffff" fill-rule="evenodd"/>
<path d="m 298.7,357.1 c -1.6,0.9 -2.7,3.1 -2.7,7.9 0,8.8 2.7,13.1 6.3,13.1 0.7,-3e-4 1.6,-0.3 2,-0.6 1.4,-1.1 2.3,-3.4 2.3,-8.6 3e-4,-7.9 -2.4,-12.1 -6.4,-12.1 -0.6,-3e-4 -1.1,0.2 -1.6,0.5 z m 17.9,9.9 c 0,5.5 -2.5,9.6 -5.9,11.7 -2.5,1.6 -6.5,2.8 -9.7,2.8 -10.4,0 -14.7,-6.2 -14.7,-14.3 0,-4.8 2.3,-9 5.9,-11.3 2.3,-1.4 5.8,-2.8 9.7,-2.8 9.7,0 14.7,6.3 14.7,13.9 z" fill="#ffffff" fill-rule="evenodd"/>
<path d="m 334.5,377.4 c 1.5,-0.3 1.7,-0.9 1.9,-2.7 0.3,-4.9 0.2,-8.7 0.2,-16.3 0,-0.1 -0.3,-0.5 -0.4,-0.5 -0.4,-0.1 -1.2,-0.1 -1.8,-0.1 -0.8,-2e-4 -1.5,0.4 -2.3,1.9 -0.6,1.1 -1.2,2.7 -1.8,4 -0.2,0.3 -3.1,-0.3 -3.3,-0.8 0.4,-2 1,-6.6 1.2,-9.2 0.2,-0.1 0.3,-0.1 0.4,-0.1 1.1,0.2 2.7,0.5 4.9,0.5 h 15.6 c 3.2,0 5.4,-0.2 6.4,-0.4 l 0.3,0.3 c -0.6,2.5 -1,6.4 -1.3,9.5 -0.4,0.2 -3.1,0.2 -3.3,0 -0.2,-1.5 -0.7,-3.5 -1,-4.4 -0.4,-1 -1.3,-1.3 -1.7,-1.4 -0.7,-0.1 -1.8,-0.1 -2.4,0 -0.1,0 -0.4,0.3 -0.4,0.5 0,6.8 -0.1,14.2 0,16.8 0.1,0.5 0.2,1.6 1.3,2.1 0.7,0.3 1.9,0.4 3.7,0.7 0.3,0.3 -0.1,2.7 -0.4,3.1 -2.8,0 -6.9,-0.2 -9.9,-0.2 -2.9,0 -5.8,0.2 -8.7,0.2 -0.4,-0.3 -0.4,-2.8 0,-3.1 1.5,-0.2 2.4,-0.3 3,-0.4 z" fill="#ffffff" fill-rule="evenodd"/>
<path d="m 374.3,363.5 c 0,0.1 0.2,0.5 0.5,0.5 1.8,0.1 5.7,0.1 6.8,-0.1 0.3,-0.1 0.5,-0.3 0.6,-0.6 -0.3,-4.2 -1.8,-6.9 -4.2,-6.9 -2.3,-2e-4 -3.6,3.3 -3.6,7 z m 17,9.5 c 0.1,0.8 -0.3,2.5 -0.4,2.8 -2.8,3.6 -8.1,5.8 -12.4,5.8 -4.2,0 -6.9,-1.3 -8.9,-3.2 -3,-2.7 -4,-7.1 -4,-10.8 5e-4,-5.5 2.5,-9.8 6.2,-12.1 2.3,-1.4 5.3,-2.3 8.1,-2.3 7.9,0 10.4,6.2 10.9,9.8 0.1,0.5 0.8,1 1.2,1.1 0.1,0.3 -0.4,2.2 -0.6,2.4 -1.9,0.8 -11.5,1.3 -16.5,1.4 -0.2,0.1 -0.3,0.5 -0.3,0.7 0.2,1.6 1,3.3 2.6,4.6 1.5,1.2 3.2,1.8 5.9,1.8 3,0 5.2,-0.8 7.9,-2.6 0.1,0.1 0.3,0.3 0.3,0.6 z" fill="#ffffff" fill-rule="evenodd"/>
<path d="m 405.9,373.6 c 1.3,-2.7 3.8,-9.2 5.7,-13.8 0.4,-1 0.5,-1.6 -0.2,-3 -0.1,-0.2 0.1,-0.6 0.3,-0.7 0.9,-0.7 6,-2.9 6.4,-2.9 0.3,0 0.7,0.2 0.8,0.6 2,5.1 6.8,17 8.5,20.7 1.3,2.9 2.3,2.9 5.3,3.5 0.3,0.2 0,2.7 -0.3,3.1 -1.8,-0.1 -6.8,-0.2 -8.6,-0.2 -1.9,0 -6,0.1 -7.3,0.2 -0.4,-0.1 -0.6,-2.9 -0.4,-3.1 0.6,-0.2 1.4,-0.3 1.9,-0.6 0.3,-0.1 0.7,-0.4 0.3,-1.3 -1.2,-3.2 -3,-7.5 -4.5,-11.2 -0.1,-0.1 -0.3,-0.1 -0.4,0 -1.7,4.7 -3,8.9 -3.4,9.9 -0.3,1 0.1,1.9 0.6,2.2 0.5,0.3 1.4,0.6 3.1,0.9 0.3,0.3 0,2.9 -0.5,3.1 -1.1,0 -5,-0.2 -6.6,-0.2 -1.8,0 -4.8,0.2 -5.9,0.2 -0.4,-0.4 -0.5,-2.9 -0.2,-3.1 4,-0.7 4.1,-1 5.7,-4.2 z" fill="#ffffff" fill-rule="evenodd"/>
<path d="m 453,376.1 c 0,0.9 1.2,2 2.7,2 1.4,-3e-4 3.8,-1.2 3.8,-5.7 7e-4,-3.5 -1.6,-6.5 -6.4,-6.5 z m -10.4,1.4 c 1.2,-0.4 1.7,-1.1 1.7,-2.6 0,-3.1 0.1,-4.6 0.1,-7.6 0,-2.5 0.1,-5.8 -0.1,-7.9 -0.1,-1.1 -0.4,-1.6 -1.4,-1.9 -0.6,-0.2 -1.2,-0.3 -1.9,-0.4 -0.3,-0.3 -0.1,-2.9 0.3,-3.1 1.1,0 3.1,0.2 7.5,0.2 4.7,0 7,-0.2 7.5,-0.2 0.3,0.2 0.4,2.9 0.1,3.1 l -1.7,0.4 c -0.9,0.2 -1.4,0.7 -1.5,1.7 l -0.1,4 c 1.6,-0.1 4.4,-0.2 5.5,-0.2 5.2,0 9.6,2.6 9.6,8.5 0,3.4 -1.7,6.4 -5.1,8.2 -2.2,1.2 -5.1,1.8 -9.9,1.8 -4.7,0 -7.9,-0.1 -12.7,-0.1 -0.3,-0.4 -0.4,-2.8 -0.1,-3.1 1.1,-0.2 1.6,-0.3 2.3,-0.6 z" fill="#ffffff" fill-rule="evenodd"/>
<path d="m 563.1,374.6 c 2,-2.2 3.8,-4.3 5,-6.1 0.1,-0.1 0.2,-0.5 0.1,-0.6 -1.6,-2.9 -3.4,-5.8 -4.9,-7.9 -1.2,-1.7 -1.8,-2.5 -5.8,-3 -0.3,-0.5 -0.1,-2.8 0.3,-3.1 0.5,0 5,0.2 8.1,0.2 3.4,0 7.5,-0.1 8.2,-0.2 0.3,0.4 0.3,2.8 0.1,3.1 -0.4,0.1 -1.3,0.2 -1.5,0.4 -0.5,0.3 -0.4,0.7 -0.2,1 0.7,1.5 1.6,3.2 2.5,4.4 0.1,0.1 0.2,0.1 0.3,0 1.2,-1.5 2.3,-3.2 2.7,-4 0.1,-0.4 0.4,-1 -0.3,-1.3 -0.5,-0.3 -1.2,-0.4 -1.9,-0.5 -0.1,-0.8 0,-2.8 0.3,-3.1 0.9,0 3.1,0.2 5.3,0.2 3.7,0 4.9,-0.1 5.9,-0.2 0.3,0.4 0.5,2.4 0.2,3.1 -3.4,0.7 -3.8,1.1 -5.5,2.7 -1.7,1.8 -3.6,4.4 -4.8,6.1 -0.1,0.1 -0.1,0.3 -0.1,0.4 1.5,2.5 2.8,4.7 4.1,6.6 2.7,3.8 2.2,4.4 7.2,5 0.1,0.5 -0.2,2.9 -0.6,3.1 -1.6,0 -5.8,-0.2 -8,-0.2 l -7.7,0.2 c -0.3,-0.4 -0.4,-2.7 -0.3,-3.1 0.5,-0.1 1.2,-0.3 1.6,-0.6 0.2,-0.2 0.2,-0.6 0.1,-1 -0.7,-1.3 -1.5,-2.5 -2.9,-4.7 -0.1,-0.1 -0.3,-0.1 -0.3,0.1 -1.7,2.5 -2.9,4 -3,4.6 -0.1,0.5 0.1,0.9 0.8,1.1 0.5,0.2 1,0.3 1.8,0.5 0.1,0.6 -0.1,2.5 -0.4,3.1 -0.9,0 -3.4,-0.2 -5.4,-0.2 -2.4,0 -6.1,0.1 -7,0.2 -0.2,-0.5 -0.4,-2.7 -0.1,-3.1 3.7,-0.6 4.2,-0.8 6.3,-3.2 z" fill="#ffffff" fill-rule="evenodd"/>
<path d="m 609.9,357.1 c -1.6,0.9 -2.7,3.1 -2.7,7.9 10e-4,8.8 2.7,13.1 6.3,13.1 0.7,-3e-4 1.6,-0.3 2,-0.6 1.4,-1.1 2.3,-3.4 2.3,-8.6 10e-4,-7.9 -2.4,-12.1 -6.4,-12.1 -0.6,-3e-4 -1.1,0.2 -1.6,0.5 z m 17.9,9.9 c 0,5.5 -2.5,9.6 -5.9,11.7 -2.5,1.6 -6.5,2.8 -9.7,2.8 -10.4,0 -14.7,-6.2 -14.7,-14.3 10e-4,-4.8 2.3,-9 5.9,-11.3 2.3,-1.4 5.8,-2.8 9.7,-2.8 9.7,0 14.7,6.3 14.7,13.9 z" fill="#ffffff" fill-rule="evenodd"/>
<path d="m 653.6,381.5 c -4.5,0 -8.1,-1.8 -10.4,-4.8 -1.9,-2.5 -2.7,-5.8 -2.7,-9.1 0,-4.3 2.6,-9.2 6.9,-11.6 2.3,-1.5 6.6,-2.8 9.9,-2.8 3.1,0 4.6,0.4 6.1,1 0.4,0.1 1.8,0.8 2.4,2 0.2,0.4 0.1,1 0,1.4 -0.5,1.5 -2.5,3.8 -3.2,4.1 -0.3,0.1 -1.1,0.1 -1.3,-0.1 -1.4,-1.5 -3.8,-4.8 -6.9,-4.8 -2.9,-2e-4 -5.1,3.1 -5.1,7.7 8e-4,2.5 0.5,5.2 2.1,7.3 2,2.5 4.3,3.2 6.8,3.2 2.5,0 4.7,-0.6 7.6,-2.8 0.2,0.1 0.5,0.3 0.5,0.7 0.1,0.7 -0.1,2.5 -0.7,3.3 -3.2,4 -8.2,5.5 -11.8,5.5 z" fill="#ffffff" fill-rule="evenodd"/>
<path d="m 683.3,377.4 c 1.5,-0.3 1.7,-0.9 1.9,-2.7 0.3,-4.9 0.2,-8.7 0.2,-16.3 10e-4,-0.1 -0.3,-0.5 -0.4,-0.5 -0.4,-0.1 -1.2,-0.1 -1.8,-0.1 -0.8,-2e-4 -1.5,0.4 -2.3,1.9 -0.6,1.1 -1.2,2.7 -1.8,4 -0.2,0.3 -3.1,-0.3 -3.3,-0.8 0.4,-2 1,-6.6 1.2,-9.2 0.2,-0.1 0.3,-0.1 0.4,-0.1 1.1,0.2 2.7,0.5 4.9,0.5 h 15.6 c 3.2,0 5.4,-0.2 6.4,-0.4 l 0.3,0.3 c -0.6,2.5 -1,6.4 -1.3,9.5 -0.4,0.2 -3.1,0.2 -3.3,0 -0.2,-1.5 -0.7,-3.5 -1,-4.4 -0.4,-1 -1.3,-1.3 -1.7,-1.4 -0.7,-0.1 -1.8,-0.1 -2.4,0 -0.1,0 -0.4,0.3 -0.4,0.5 10e-4,6.8 -0.1,14.2 0,16.8 0.1,0.5 0.2,1.6 1.3,2.2 0.7,0.3 1.9,0.4 3.7,0.7 0.3,0.3 -0.1,2.7 -0.4,3.1 -2.8,0 -6.9,-0.2 -9.9,-0.2 -2.8,0 -5.8,0.2 -8.7,0.2 -0.4,-0.3 -0.4,-2.8 0,-3.1 1.5,-0.2 2.4,-0.3 3,-0.4 z" fill="#ffffff" fill-rule="evenodd"/>
<path d="m 723.1,363.5 c 0,0.1 0.2,0.5 0.5,0.5 1.8,0.1 5.7,0.1 6.8,-0.1 0.3,-0.1 0.5,-0.3 0.6,-0.6 -0.3,-4.2 -1.7,-6.9 -4.2,-6.9 -2.3,-2e-4 -3.6,3.3 -3.6,7 z m 17,9.5 c 0.1,0.8 -0.3,2.5 -0.5,2.8 -2.8,3.6 -8.1,5.8 -12.4,5.8 -4.2,0 -6.9,-1.3 -8.9,-3.2 -3,-2.7 -4,-7.1 -4,-10.8 0,-5.5 2.5,-9.8 6.2,-12.1 2.4,-1.4 5.3,-2.3 8.1,-2.3 7.9,0 10.4,6.2 10.9,9.8 0.1,0.5 0.8,1 1.2,1.1 0.1,0.3 -0.4,2.2 -0.6,2.4 -1.9,0.8 -11.5,1.3 -16.5,1.4 -0.2,0.1 -0.3,0.5 -0.3,0.7 0.2,1.6 1,3.3 2.6,4.6 1.5,1.2 3.2,1.8 5.9,1.8 3,0 5.2,-0.8 7.9,-2.6 0.1,0.1 0.3,0.3 0.3,0.6 z" fill="#ffffff" fill-rule="evenodd"/>
<path d="m 754.6,373.6 c 1.3,-2.7 3.8,-9.2 5.7,-13.8 0.4,-1 0.5,-1.6 -0.2,-3 -0.1,-0.2 0.1,-0.6 0.3,-0.7 0.8,-0.7 6.1,-2.9 6.4,-2.9 0.3,0 0.7,0.2 0.8,0.6 2,5.1 6.8,17 8.5,20.7 1.3,2.9 2.3,2.9 5.3,3.5 0.3,0.2 0,2.7 -0.3,3.1 -1.8,-0.1 -6.8,-0.2 -8.6,-0.2 -1.9,0 -6,0.1 -7.3,0.2 -0.4,-0.1 -0.6,-2.9 -0.4,-3.1 0.6,-0.2 1.4,-0.3 1.9,-0.6 0.3,-0.1 0.7,-0.4 0.3,-1.3 -1.2,-3.2 -3,-7.5 -4.5,-11.2 -0.1,-0.1 -0.3,-0.1 -0.4,0 -1.8,4.7 -3.1,8.9 -3.4,9.9 -0.3,1 0.1,1.9 0.6,2.2 0.5,0.3 1.4,0.6 3.1,0.9 0.3,0.3 0,2.9 -0.5,3.1 -1.1,0 -5,-0.2 -6.6,-0.2 -1.8,0 -4.8,0.2 -5.9,0.2 -0.4,-0.4 -0.5,-2.9 -0.2,-3.1 4,-0.7 4.1,-1 5.7,-4.2 z" fill="#ffffff" fill-rule="evenodd"/>
<path d="m 393.7,122.7 c -2.9,0 -5.2,0.7 -7,2 -2.6,2 -5.2,5.5 -3.6,11.2 -1.7,2.2 -2.8,4.6 -2.9,9 -0.1,0.2 -0.3,0.4 -0.4,0.7 -1.2,1.6 -4.6,6.4 -0.9,12.6 -0.8,1.5 -1.9,3.9 -1.5,6.9 0.3,2 1.1,5.7 3.5,8.2 -3.9,3.1 -8.6,7.3 -11.8,11.5 -0.6,0.8 -1.2,1.6 -1.9,2.5 -3.7,4.8 -10.5,13.9 -14.8,16.4 -8.7,5.2 -19.3,23.3 -12.9,51.5 3.4,14.8 4,22.7 4.3,27 0.3,3.8 0.5,7.1 3.7,9.5 1.3,1 2.9,1.5 4.6,1.5 3,-2e-4 6.6,-1.2 12,-10.3 1.9,-3.1 5.1,-9 5.8,-14.8 1.9,-0.3 4.9,-1.1 6.8,-4 1.9,-2.8 1.7,-5.9 1.6,-8.3 0,-0.6 -0.1,-1.5 0,-2.1 0.5,-0.2 1,-0.3 1.9,-0.4 1.7,-0.3 4.4,-0.6 6.9,-2.8 4.3,-3.6 3.4,-8.9 3,-11.7 -0.1,-0.9 -0.3,-1.8 -0.3,-2.6 0.3,0 0.7,-0.1 1,-0.1 4.1,-0.7 7.2,-3.8 8.1,-8.1 0.8,-3.6 -0.2,-7.4 -2.4,-10.3 0.9,-2 2,-4.7 1.4,-7.8 -0.3,-1.6 -1.4,-4.9 -5.2,-6.5 l 0.7,-1 c 2.1,-3 3.8,-5.3 4.5,-8.1 1.1,0.4 2.2,0.5 3,0.5 2.5,0 4.5,-1 5.9,-2.3 0.9,0.3 1.7,0.3 2.2,0.3 2.9,0 5.1,-1.6 5.8,-2.1 0.8,-0.6 1.6,-1.3 2.4,-2 1.3,-1.2 3.5,-3.1 4.6,-3.1 0.3,0 0.8,0.3 1.1,0.4 1.7,1.1 2.2,1.7 2.6,2.2 1.7,2.4 3.9,3.6 6.5,3.6 3.8,0 5.8,-2.6 6.9,-4 0.4,-0.4 0.8,-1.1 1.5,-1.9 2.5,-2.9 7.9,-6.9 11.8,-9.8 3.3,-2.5 5.2,-3.8 6.4,-5.1 1,-0.6 3.5,-2 4.4,-5.4 1,-3.9 -1.2,-7.1 -2.8,-9.4 -2.7,-4 -6.2,-6.1 -10.3,-6.1 -1.6,-3e-4 -2.9,0.3 -4,0.6 -0.9,0.2 -1.7,0.4 -2.5,0.4 -3.2,-2e-4 -6.1,0.9 -8.4,1.7 -0.6,-1 -1.5,-2.2 -2.7,-3.3 1.3,-2 1.8,-4.4 1.5,-6.9 -0.7,-5 -4.5,-9.1 -11.5,-12.2 -6.8,-3 -20.4,-7.8 -28.1,-7.8 z m 0,7.3 c 5.8,0 18.1,4.1 25.1,7.2 8.5,3.8 8.1,7.8 6.1,9.4 -2,1.6 -6,4.5 -1.3,6.5 4.7,2 4.7,4.3 6.7,7 0.5,0.6 1.1,0.9 2,0.9 2.6,-3e-4 6.7,-2.5 10.7,-2.5 2.9,0 4.8,-0.9 6.6,-0.9 1.4,-2e-4 2.7,0.6 4.3,2.9 3.4,5.1 1.1,3.4 -0.7,5.6 -1.8,2.2 -13.7,9.6 -18.6,15.3 -2,2.3 -2.5,3.3 -2.8,3.3 -0.6,0 -0.9,-2 -5.3,-4.7 -1.7,-1 -3.3,-1.5 -4.8,-1.5 -5,0 -8.8,4.6 -11.4,6.5 -0.7,0.5 -1.1,0.7 -1.5,0.7 -1.3,0 -0.4,-3.4 -2.3,-3.9 -0.1,0 -0.2,0 -0.3,0 -1.9,-2e-4 -3.1,6 -5.5,6 -0.4,-3e-4 -0.8,-0.1 -1.3,-0.5 -1.4,-1.1 -3.2,-1.7 -4.8,-1.7 -2.3,-2e-4 -4.1,1.2 -3.8,3.5 0.5,4 -0.4,4.9 -4.3,10.5 -4,5.6 -3.1,6.7 -2.5,9.2 0.3,1.2 1.6,1.2 3,1.2 0.1,0 0.2,0 0.3,0 1.5,0 3.1,0 3.3,1.5 0.5,2.9 -4.5,7.6 -1.3,9.8 3.3,2.2 3.1,7.4 0,7.9 -3.1,0.5 -5.2,-1.1 -6.7,4 -1.4,5.1 1.8,10.3 -0.4,12.1 -2.2,1.8 -4.9,0.4 -9,3.2 -4.1,2.9 -1.3,9.7 -2.7,11.9 -1.4,2.2 -7.2,-1.3 -7.9,6.7 -0.7,7.6 -8.7,19.2 -10.6,19.2 -0.1,0 -0.2,0 -0.2,-0.1 -1.4,-1.1 0.4,-7.7 -5.2,-32.3 -5.6,-24.5 3.2,-39.9 9.6,-43.6 6.3,-3.8 14.4,-15.2 18.8,-20.7 4.3,-5.6 12,-11.6 15.3,-13.6 3.3,-2 4.9,-10.5 4.8,-12.1 -0.1,-1.6 1.9,-4 3.1,-5.9 0.7,-1.2 0,-1.5 -1.3,-1.5 -0.9,0 -2.2,0.2 -3.6,0.5 -3.2,0.6 -4.8,4.6 -3.2,8 1.5,3.4 -1.5,4.5 -1.5,4.5 -2.7,-2e-4 -3.4,-2 -3.8,-4.9 -0.4,-2.9 4,-4.9 0.9,-9.2 -3.1,-4.3 1.8,-4.7 2,-9.7 0.2,-5 1.8,-4.5 3.1,-7.4 1.3,-2.9 -2.5,-5 0.5,-7.4 0.5,-0.4 1.5,-0.6 2.7,-0.6 z" fill="#ffffff" fill-rule="evenodd"/>
<path d="M 781.3,322.5 H 74.1 v -10.7 h 707.2 z" fill="#ffffff" fill-rule="evenodd"/>
<path d="m 512.4,341.3 c -1.7,1.1 -4.9,6.6 -5.9,12.3 -1.6,-1.6 -3.3,-3.2 -4.9,-4.7 -3.4,7.3 4,24.5 6.7,32.6 h 8.3 c 2.7,-8.2 10.1,-25.3 6.7,-32.6 -1.6,1.6 -3.3,3.2 -4.9,4.8 -1.1,-5.7 -4.3,-11.2 -6,-12.3 z" fill="#ffffff" fill-rule="evenodd"/>
</svg>
