<svg xmlns="http://www.w3.org/2000/svg" viewBox="162.2 23.9 289.9 109.2">
<path d="m 164.2,86.6 c 0.9,-0.2 1.1,-0.7 1.2,-1.9 0,-0.5 0.1,-2.8 0.1,-5.9 3e-4,-3.4 0,-6.4 0,-7.5 0,-1.1 -0.1,-1.5 -0.9,-1.7 -0.7,-0.2 -1.2,-0.3 -2.1,-0.4 -0.2,-0.2 -0.2,-1.5 0,-1.6 1.8,0 3.8,0.1 5.5,0.1 h 13.5 c 1.8,-1e-4 4.1,-0.1 5.5,-0.1 0.3,0.2 0.2,1.4 0,1.6 -1,0.1 -1.6,0.3 -2,0.5 -0.6,0.3 -0.8,0.6 -0.8,1.7 0,1.3 0,4 0,6.9 3e-4,2.3 0,5.1 0.1,6.7 0,0.6 0.2,1.3 0.8,1.6 0.5,0.2 1.3,0.3 2.5,0.5 0.1,0.2 0,1.5 -0.2,1.7 -1.8,0 -3.9,-0.1 -5.7,-0.1 -1.5,0 -4.1,0.1 -5.5,0.1 -0.2,-0.2 -0.2,-1.4 -0.1,-1.6 0.8,-0.1 1.5,-0.2 2.1,-0.4 0.5,-0.2 0.8,-0.5 0.8,-1.3 0,-0.8 0,-6.8 0,-7.7 3e-4,-3.9 0,-5.8 -0.1,-7 0,-0.4 -0.2,-0.6 -0.3,-0.6 -0.8,-0.1 -6.8,-0.1 -7.3,0 0,-10e-5 -0.3,0.4 -0.3,0.4 0,0.7 -0.1,2 -0.1,7.3 3e-4,0.8 0,6.6 0,7.2 0,0.8 0.1,1.5 0.9,1.7 0.5,0.2 1.6,0.3 2.3,0.5 0.2,0.2 0,1.5 -0.2,1.7 -1.9,0 -4.1,-0.1 -6.1,-0.1 -2.9,0 -4.7,0.1 -5.3,0.1 -0.2,-0.2 -0.2,-1.4 0,-1.6 0.8,-0.1 1.3,-0.3 1.8,-0.4 z" fill="#391303" fill-rule="evenodd"/>
<path d="m 206.9,86.2 c 1.6,-1.4 2.1,-4.2 2.1,-7.1 0,-3.6 -0.9,-7 -3,-8.8 -1,-0.8 -1.8,-1.2 -3.1,-1.2 -0.9,0 -1.8,0.2 -2.5,0.7 -1.9,1.3 -2.5,4.2 -2.5,7.4 6e-4,2.9 0.9,6.8 3.2,8.8 1,0.8 1.9,1.2 3.4,1.2 0.8,0 1.8,-0.3 2.5,-0.9 z M 194.8,86 c -2.2,-2.2 -2.9,-5.3 -2.9,-7.9 2e-4,-2.8 0.9,-6.4 4.2,-8.7 2,-1.4 4.6,-2.3 7.9,-2.3 7.3,-1e-4 11.1,5 11.1,10.7 4e-4,2.6 -0.7,5.1 -2.1,7 -2.4,3 -5.9,4.4 -9.4,4.4 -4.2,0 -6.8,-1.2 -8.7,-3.1 z" fill="#391303" fill-rule="evenodd"/>
<path d="m 221.6,84 c 2,-4.7 4.3,-10.8 5.2,-13.3 0.4,-0.8 0.8,-2.4 0.9,-3.1 0.6,0.1 1.3,0.1 2,0.1 0.7,-1e-4 1.4,0 2,-0.1 0.1,0.6 0.5,1.7 0.7,2.3 1.3,3.4 3.8,10.2 5.1,13.3 1.3,3 1.4,3.3 4.2,3.7 0.2,0.2 0.1,1.5 -0.2,1.7 -0.9,0 -2.3,-0.1 -5.4,-0.1 -2.6,0 -4.3,0.1 -5.6,0.1 -0.2,-0.2 -0.3,-1.4 0,-1.6 0.3,0 1.5,-0.3 1.8,-0.5 0.3,-0.2 0.4,-0.5 0.3,-0.7 -0.2,-1.3 -3,-9.1 -4.4,-12.8 0,0 -0.1,0 -0.1,0 -0.8,2.2 -3.3,9.2 -3.9,11.6 -0.3,1.2 -0.2,1.8 0.8,2 0.6,0.1 1.1,0.2 1.8,0.4 0.2,0.2 0.1,1.3 -0.1,1.7 -0.8,0 -2.3,-0.1 -4.7,-0.1 -1.3,0 -3.1,0.1 -4.4,0.1 -0.2,-0.2 -0.2,-1.4 0,-1.6 2.6,-0.4 3.1,-0.8 4,-3 z" fill="#391303" fill-rule="evenodd"/>
<path d="m 249.9,86 c 0.8,0 1.7,-0.1 2.3,-1.3 0,-0.1 0,-0.5 0,-0.6 -0.6,-1.4 -3.9,-7.9 -5.9,-11.5 -1.6,-3 -2,-2.9 -4.6,-3.3 -0.2,-0.2 -0.1,-1.4 0.1,-1.6 0.7,-1e-4 2.3,0.1 5.2,0.1 2.9,-10e-5 5.2,-0.1 5.6,-0.1 0.2,0.1 0.2,1.5 0.1,1.7 -0.5,0.1 -1.3,0.2 -1.5,0.3 -0.3,0.1 -0.3,0.4 -0.2,0.7 1,2.4 3.6,7.3 4.3,8.6 0,0.1 0.2,0.1 0.3,0 1.5,-3 2.8,-6.6 3.1,-7.9 0.1,-0.5 0,-1 -0.4,-1.2 -0.5,-0.1 -1.3,-0.3 -2.2,-0.4 -0.3,-0.2 -0.2,-1.5 0.1,-1.6 1.5,0 3,0.1 4.5,0.1 1.3,-10e-5 3,-0.1 4,-0.1 0.3,0.2 0.2,1.5 0,1.7 -2.4,0.4 -3,1.2 -3.7,2.8 -2.1,4.8 -4.8,10.5 -6.3,12.9 -1.3,1.9 -3.3,5.2 -6,5.2 -0.8,0 -1.2,-0.1 -1.7,-0.4 -0.7,-0.6 -1.1,-1.6 -1.1,-2.8 0,-0.5 0.2,-1.5 0.4,-1.8 0.8,0.3 2.6,1 3.8,1 z" fill="#391303" fill-rule="evenodd"/>
<path d="m 316.2,86.2 c 1.6,-1.4 2.1,-4.2 2.1,-7.1 4e-4,-3.6 -0.9,-7 -3,-8.8 -1,-0.8 -1.8,-1.2 -3.1,-1.2 -0.9,0 -1.8,0.2 -2.5,0.7 -1.9,1.3 -2.5,4.2 -2.5,7.4 7e-4,2.9 0.9,6.8 3.2,8.8 1,0.8 1.9,1.2 3.4,1.2 0.8,0 1.8,-0.3 2.5,-0.9 z M 304.1,86 c -2.2,-2.2 -2.9,-5.3 -2.9,-7.9 2e-4,-2.8 0.9,-6.4 4.2,-8.7 2,-1.4 4.6,-2.3 7.9,-2.3 7.3,-1e-4 11.1,5 11.1,10.7 0,2.6 -0.7,5.1 -2.1,7 -2.4,3 -5.9,4.4 -9.4,4.4 -4.2,0 -6.8,-1.2 -8.7,-3.1 z" fill="#391303" fill-rule="evenodd"/>
<path d="m 345.8,69.8 c -1.1,-0.6 -2.4,-0.9 -3.8,-0.9 -3.6,-1e-4 -6,2.8 -6,8.7 6e-4,3.9 1.9,9.2 7.6,9.2 0.9,0 1.9,-0.1 2.9,-0.9 0.9,-0.7 2,-2.1 2.9,-3.5 0.4,0.1 1.1,0.6 1.4,1 -0.5,1.5 -2.1,4.3 -3.1,4.9 -1.1,0.4 -2.6,0.9 -5.1,0.9 -7.9,0 -12.7,-3.7 -12.7,-11.2 10e-5,-3.9 2,-7.6 5.9,-9.4 1.9,-0.9 4.1,-1.4 7,-1.4 3.3,-1e-4 6,0.6 7.3,0.6 -0.2,1.2 -0.4,4.1 -0.4,6 -0.2,0.3 -1.7,0.4 -1.7,0.2 -0.5,-2.2 -0.7,-3.3 -2.1,-4.1 z" fill="#391303" fill-rule="evenodd"/>
<path d="m 371.4,88.7 c -1.5,0 -3.6,-0.1 -6.3,-0.1 -3,0 -5.2,0.1 -6.4,0.1 -0.3,-0.2 -0.2,-1.4 0,-1.6 1,-0.1 1.9,-0.3 2.4,-0.4 1,-0.2 1.3,-0.6 1.4,-1.9 0.2,-3.6 0.1,-8.8 0.1,-14.3 2e-4,-0.1 -0.1,-0.3 -0.2,-0.3 -0.7,-0.1 -2.3,-0.1 -3.1,0 -0.5,0 -1.1,0.2 -1.6,1.3 -0.4,0.8 -0.7,1.6 -1.2,2.9 -0.2,0.2 -1.7,-0.1 -1.8,-0.5 0.3,-1.4 0.7,-4.4 0.8,-6.2 0,-0.1 0.3,-0.3 0.4,-0.3 1.1,0.4 2.5,0.5 3.3,0.5 h 12.1 c 2.2,-1e-4 3.6,-0.1 4.4,-0.4 0.1,0 0.2,0.3 0.2,0.3 -0.4,1.8 -0.8,4 -0.9,6.4 -0.2,0.2 -1.7,0.3 -1.8,0.1 -0.2,-1.4 -0.3,-2.1 -0.7,-3.1 -0.2,-0.8 -0.6,-1 -1.2,-1.1 -1,-0.1 -2.7,-0.1 -3.4,0 -0.1,0 -0.2,0.2 -0.2,0.3 4e-4,5 -0.1,12.9 0,14.8 0,0.3 0,1.2 0.8,1.5 0.5,0.2 1.6,0.3 2.8,0.5 0.2,0.2 0.1,1.4 -0.1,1.7 z" fill="#391303" fill-rule="evenodd"/>
<path d="m 389,79.1 c 0,-0.1 0.1,-0.4 0.2,-0.4 0.1,0 0.5,0 1,0 0.5,0 1.1,-0.1 1.6,-0.4 1,-0.6 1.7,-1.8 1.7,-3.8 2e-4,-3 -1.6,-4.9 -4.3,-4.9 -0.2,0 -0.7,0 -1,0.2 0,0 -0.2,0.3 -0.2,0.5 0,1.3 0,2.5 0,7.2 5e-4,1.8 0,5.6 0,7.5 0,0.7 0.2,1.5 1.2,1.7 0.8,0.2 1.5,0.3 2.5,0.4 0.2,0.3 0.1,1.3 -0.1,1.7 -2,0 -4.2,-0.1 -6.2,-0.1 -1.9,0 -3.9,0.1 -5.7,0.1 -0.1,-0.4 -0.1,-1.4 0,-1.6 0.8,-0.1 1.3,-0.1 2,-0.3 0.9,-0.2 1,-1 1,-1.9 0,-1.3 0.1,-3 0.1,-7.1 2e-4,-3.1 0,-5.4 0,-6.1 -0.1,-1.3 -0.3,-1.6 -1.2,-1.9 -0.5,-0.1 -1.1,-0.2 -1.9,-0.3 -0.1,-0.4 -0.1,-1.4 0.1,-1.6 1.1,0 3,0.1 5,0.1 2.8,-1e-4 4.2,-0.1 7.4,-0.1 1.1,-1e-4 3.2,0.2 4.7,1.3 1.3,1 2.4,2.5 2.4,4.9 3e-4,3 -1.5,4.7 -3.2,5.7 -1.2,0.7 -2.8,1.2 -4.3,1.2 -0.8,-1e-4 -1.3,-0.1 -1.7,-0.1 -0.4,-0.3 -0.7,-1.2 -0.7,-1.5 z" fill="#391303" fill-rule="evenodd"/>
<path d="m 418.8,86.2 c 1.6,-1.4 2.1,-4.2 2.1,-7.1 4e-4,-3.6 -0.9,-7 -3,-8.8 -1,-0.8 -1.8,-1.2 -3.1,-1.2 -0.9,0 -1.8,0.2 -2.5,0.7 -1.9,1.3 -2.5,4.2 -2.5,7.4 2e-4,2.9 0.9,6.8 3.2,8.8 1,0.8 1.9,1.2 3.4,1.2 0.8,0 1.8,-0.3 2.5,-0.9 z M 406.7,86 c -2.2,-2.2 -2.9,-5.3 -2.9,-7.9 8e-4,-2.8 0.9,-6.4 4.2,-8.7 2,-1.4 4.6,-2.3 7.9,-2.3 7.3,-1e-4 11.1,5 11.1,10.7 0,2.6 -0.7,5.1 -2.1,7 -2.4,3 -5.9,4.4 -9.4,4.4 -4.2,0 -6.8,-1.2 -8.7,-3.1 z" fill="#391303" fill-rule="evenodd"/>
<path d="m 440.2,69.6 c -0.1,0 -0.2,0.3 -0.3,0.5 -0.1,0.3 -0.1,4 -0.1,6.1 6e-4,0.1 0.1,0.2 0.2,0.2 0.3,0 0.7,0 1.5,0 1.3,-1e-4 2.4,-0.1 2.8,-0.3 0.7,-0.4 1.1,-1.4 1.1,-2.6 6e-4,-2.3 -1.2,-4 -4.3,-4 -0.2,-1e-4 -0.6,0 -0.9,0.1 z m 6.1,13.1 c 0,-2.8 -1.8,-4.5 -5.2,-4.5 -0.1,-10e-5 -0.7,0 -1.1,0 -0.1,-10e-5 -0.2,0.1 -0.2,0.2 6e-4,2.6 0,5.3 0.1,6.6 0,0.4 0.4,0.9 0.6,1.2 0.6,0.6 1.8,0.7 2.3,0.7 2,-1e-4 3.6,-1.4 3.6,-4.3 z M 431.7,67.6 c 0.6,0 2.1,0.1 5.3,0.1 2.8,-1e-4 5.2,-0.1 6.2,-0.1 4,0 7.2,0.8 7.2,4.7 0,2 -1.5,3.6 -3.5,4.3 -0.1,0 -0.1,0.2 0,0.2 2.7,0.8 5.1,2.1 5.1,5.1 2e-4,2.8 -1.5,4.7 -4.5,6 -1.6,0.7 -4.1,1 -6.2,1 -1.6,0 -7.6,-0.2 -10,-0.2 -0.2,-0.3 -0.2,-1.5 0,-1.6 1.2,-0.1 1.9,-0.2 2.5,-0.5 0.5,-0.2 0.7,-0.7 0.8,-1.6 0.1,-0.9 0.1,-4.5 0.1,-6.9 8e-4,-3.6 0,-4.9 -0.1,-6.8 0,-0.9 -0.2,-1.3 -1,-1.5 -0.6,-0.2 -1.5,-0.3 -1.9,-0.4 -0.2,-0.2 -0.2,-1.5 8e-4,-1.6 z" fill="#391303" fill-rule="evenodd"/>
<path d="m 164,127 c 0.1,-1.3 0.2,-4.1 0.1,-6.1 0,-0.4 -0.2,-0.7 -0.6,-0.8 -0.2,-0.1 -0.5,-0.1 -0.8,-0.2 -0.1,-0.1 0,-1.2 0.1,-1.3 0.5,0 2.5,0.1 3.3,0.1 0.9,0 1.4,0 1.6,0 0.1,0.3 0.3,0.7 0.5,1.1 0.8,1.6 1.8,3.6 2.3,4.4 0,0 0.1,0 0.1,0 0.7,-1.4 2.1,-4.7 2.3,-5.5 0.4,0 1.1,0.1 1.8,0.1 1.1,0 2.6,-0.1 3.3,-0.1 0.1,0.1 0.1,1.2 0,1.3 -0.5,0.1 -0.7,0.1 -1,0.2 -0.3,0.1 -0.5,0.2 -0.5,0.7 0,1.5 0,4.2 0.1,6.4 6e-4,0.5 0.1,0.9 0.7,1 l 0.9,0.2 c 0.1,0.1 0.1,1.2 -0.1,1.3 -0.5,0 -2.2,-0.1 -2.9,-0.1 -1.6,0 -3,0.1 -3.3,0.1 -0.2,0 -0.2,-1.2 -0.1,-1.3 1.1,-0.2 1.2,-0.4 1.2,-0.7 0.1,-1.1 0.1,-3.5 0.1,-5.7 5e-4,0 -0.1,0 -0.1,0 -0.6,1.5 -2,5.1 -2.8,7.2 -0.2,0.1 -1.2,0.3 -1.4,0.3 -0.9,-2.2 -1.9,-4.9 -3.1,-7.5 0,0 -0.1,0 -0.1,0 7e-4,1.9 0,3.7 0.1,5.1 0,0.5 0.3,0.9 0.8,1 0.3,0.1 0.6,0.2 1.1,0.2 0.1,0.1 0.1,1.1 -0.1,1.3 -0.8,0 -2,-0.1 -2.8,-0.1 -0.7,0 -2.1,0.1 -2.4,0.1 -0.1,-0.1 -0.1,-1.2 0,-1.3 1.6,-0.3 1.7,-0.6 1.7,-1.5 z" fill="#391303" fill-rule="evenodd"/>
<path d="m 183.1,128.3 c 0.8,-0.2 0.7,-0.5 0.7,-1.4 5e-4,-1.1 0,-2.1 0,-3.2 4e-4,-0.9 0,-1.8 0,-2.8 0,-0.4 -0.2,-0.7 -0.6,-0.8 -0.2,-0.1 -0.5,-0.1 -0.8,-0.2 -0.1,-0.1 0,-1.2 0.1,-1.3 0.5,0 1.3,0.1 3.1,0.1 1.9,0 2.9,-0.1 3.1,-0.1 0.1,0.1 0.2,1.2 0,1.3 l -0.7,0.2 c -0.4,0.1 -0.6,0.3 -0.6,0.6 0,0.9 0,2.6 -0.1,4 1e-4,0.1 0.1,0.1 0.1,0.1 0.9,-0.8 2.5,-2.4 3.3,-3.4 0.1,-0.1 0.1,-0.2 0.1,-0.3 5e-4,-0.5 -0.1,-0.7 -0.5,-0.9 -0.2,0 -0.4,-0.1 -0.7,-0.2 -0.1,-0.1 0,-1.2 0.1,-1.4 0.7,0 1.3,0.1 3.1,0.1 1.8,0 2.5,-0.1 3,-0.1 0.2,0.1 0.1,1.2 0,1.3 -0.4,0.1 -0.9,0.2 -1.1,0.3 -0.2,0.1 -0.3,0.3 -0.3,0.5 6e-4,1 0,4.6 0.1,6.5 0,0.5 0.2,0.7 0.5,0.9 0.4,0.1 0.7,0.1 1.1,0.3 0.1,0.1 0,1.2 -0.2,1.3 -0.9,0 -2.1,-0.1 -3.3,-0.1 -1.1,0 -2,0 -2.8,0.1 -0.1,-0.2 -0.1,-1 0,-1.1 0.9,-0.5 1.1,-0.7 1.2,-0.9 0.1,-0.9 0,-2.6 0,-4.3 2e-4,-0.1 -0.1,-0.2 -0.2,-0.1 -0.8,0.8 -2.6,2.5 -3.3,3.4 0,0.1 -0.2,0.3 -0.2,0.5 1e-4,0.8 0.1,1 0.5,1.1 0.2,0.1 0.5,0.1 0.8,0.2 0.2,0.1 0,1.1 -0.1,1.3 -0.5,0 -2.1,-0.1 -3.1,-0.1 -1,0 -2.4,0.1 -3,0.1 -0.1,-0.1 -0.1,-1.1 0,-1.3 0.4,0 0.5,-0.1 0.8,-0.2 z" fill="#391303" fill-rule="evenodd"/>
<path d="m 201.1,128.3 c 0.6,-0.2 0.6,-0.3 0.7,-1.1 0.1,-0.7 0.1,-2 0.1,-3.2 5e-4,-1.1 0,-2.1 0,-3.2 0,-0.4 -0.2,-0.7 -0.6,-0.8 -0.2,-0.1 -0.5,-0.1 -0.8,-0.2 -0.1,-0.1 0,-1.2 0.1,-1.3 0.5,0 1.3,0.1 3.1,0.1 2,0 2.7,-0.1 2.9,-0.1 0.1,0.1 0.2,1.2 0,1.3 -0.3,0.1 -0.3,0.1 -0.6,0.2 -0.4,0.1 -0.5,0.3 -0.5,0.8 l 4e-4,2.2 c 0,0.1 0.1,0.1 0.1,0.1 0.4,0 0.9,0 1.5,0 0.7,-1e-4 1.4,0 1.7,0 0,-1e-4 0.2,0 0.2,-0.1 0.1,-0.6 0,-2 0,-2.2 7e-4,-0.4 0,-0.7 -0.5,-0.8 -0.2,0 -0.5,-0.1 -0.8,-0.1 0,-0.2 0,-1.2 0.1,-1.3 0.5,0 2.6,0.1 3,0.1 1.1,0 2.2,0 3.3,-0.1 0.1,0.2 0.1,1.1 0,1.3 l -0.8,0.2 c -0.6,0.1 -0.6,0.3 -0.6,0.7 2e-4,0.6 0,1.8 0,3.1 0,1.5 0,2.6 0.1,3.3 0,0.7 0.4,0.9 0.8,1 l 0.8,0.2 c 0.1,0.1 0,1.1 -0.2,1.3 -0.8,0 -1.1,-0.1 -3.4,-0.1 -1.7,0 -2.7,0.1 -2.9,0.1 -0.1,-0.1 -0.2,-1.2 -0.1,-1.3 l 0.8,-0.2 c 0.2,-0.1 0.4,-0.4 0.4,-0.6 0.1,-0.5 0,-2 0,-2.8 1e-4,0 0,-0.1 -0.1,-0.1 h -3.2 c 0,0 -0.1,0.1 -0.1,0.1 4e-4,0.9 0,1.8 0,2.5 0,0.7 0.3,0.8 0.6,0.9 0.2,0.1 0.5,0.1 0.7,0.1 0.1,0.1 0,1.2 -0.2,1.3 -0.3,0 -1.9,-0.1 -3.5,-0.1 -1.2,0 -2.3,0.1 -2.8,0.1 -0.1,-0.1 -0.1,-1.2 0,-1.3 0.3,0 0.5,-0.1 0.8,-0.2 z" fill="#391303" fill-rule="evenodd"/>
<path d="m 219.2,128.3 c 0.8,-0.2 0.7,-0.5 0.7,-1.4 5e-4,-1.1 0,-2.1 0,-3.2 4e-4,-0.9 0,-1.8 0,-2.8 0,-0.4 -0.2,-0.7 -0.6,-0.8 -0.2,-0.1 -0.5,-0.1 -0.8,-0.2 -0.1,-0.1 0,-1.2 0.1,-1.3 0.5,0 1.3,0.1 3.1,0.1 2,0 2.9,-0.1 3.1,-0.1 0.1,0.1 0.2,1.2 0,1.3 l -0.7,0.2 c -0.4,0.1 -0.6,0.3 -0.6,0.6 0,0.9 0,2.6 -0.1,4 7e-4,0.1 0.1,0.1 0.1,0.1 0.9,-0.8 2.5,-2.4 3.3,-3.4 0.1,-0.1 0.1,-0.2 0.1,-0.3 5e-4,-0.5 -0.1,-0.7 -0.5,-0.9 -0.2,0 -0.4,-0.1 -0.7,-0.2 -0.1,-0.1 0,-1.2 0.1,-1.4 0.7,0 1.3,0.1 3.1,0.1 1.8,0 2.5,-0.1 3,-0.1 0.2,0.1 0.1,1.2 0,1.3 -0.4,0.1 -0.9,0.2 -1.1,0.3 -0.2,0.1 -0.3,0.3 -0.3,0.5 6e-4,1 0,4.6 0.1,6.5 0,0.5 0.2,0.7 0.5,0.9 0.4,0.1 0.7,0.1 1.1,0.3 0.1,0.1 0,1.2 -0.2,1.3 -0.9,0 -2.1,-0.1 -3.3,-0.1 -1.1,0 -2,0 -2.8,0.1 -0.1,-0.2 -0.1,-1 0,-1.1 0.9,-0.5 1.1,-0.7 1.2,-0.9 0.1,-0.9 0,-2.6 0,-4.3 10e-5,-0.1 -0.1,-0.2 -0.2,-0.1 -0.8,0.8 -2.6,2.5 -3.4,3.4 0,0.1 -0.2,0.3 -0.2,0.5 7e-4,0.8 0.1,1 0.5,1.1 0.2,0.1 0.5,0.1 0.8,0.2 0.2,0.1 0,1.1 -0.1,1.3 -0.5,0 -2.1,-0.1 -3.1,-0.1 -1,0 -2.4,0.1 -3,0.1 -0.1,-0.1 -0.1,-1.1 0,-1.3 0.4,0 0.5,-0.1 0.8,-0.2 z" fill="#391303" fill-rule="evenodd"/>
<path d="m 243.5,122.7 v 0.3 c 0,0.5 -0.3,2.1 -0.5,2.1 -0.2,0.1 -5.5,0.2 -6,0.2 l 0,-0.3 c 0,-0.5 0.3,-2.2 0.4,-2.2 1.7,0 5.4,-0.1 6.2,-0.2 z" fill="#391303" fill-rule="evenodd"/>
<path d="m 254.2,119.9 c -0.6,0.4 -1.1,1.3 -1.1,3.3 0,3.6 1.1,5.4 2.6,5.4 0.3,-1e-4 0.6,-0.1 0.8,-0.3 0.6,-0.4 1,-1.4 1,-3.5 1e-4,-3.2 -1,-5 -2.6,-5 -0.3,-1e-4 -0.4,0.1 -0.7,0.2 z m 7.4,4.1 c 0,2.3 -1,3.9 -2.4,4.8 -1,0.6 -2.7,1.1 -4,1.1 -4.3,0 -6,-2.5 -6,-5.8 0,-2 0.9,-3.7 2.4,-4.6 0.9,-0.6 2.4,-1.1 4,-1.1 4,0 6,2.6 6,5.7 z" fill="#391303" fill-rule="evenodd"/>
<path d="m 268.9,128.2 c 0.6,-0.1 0.7,-0.4 0.8,-1.1 0.1,-2 0.1,-3.6 0.1,-6.7 6e-4,0 -0.1,-0.2 -0.2,-0.2 -0.2,0 -0.5,0 -0.7,0 -0.3,-1e-4 -0.6,0.2 -0.9,0.8 -0.2,0.5 -0.5,1.1 -0.7,1.7 -0.1,0.1 -1.2,-0.1 -1.4,-0.3 0.2,-0.8 0.4,-2.7 0.5,-3.8 0.1,0 0.1,0 0.2,0 0.5,0.1 1.1,0.2 2,0.2 h 6.4 c 1.3,0 2.2,-0.1 2.6,-0.2 l 0.1,0.1 c -0.2,1 -0.4,2.6 -0.5,3.9 -0.2,0.1 -1.3,0.1 -1.4,0 -0.1,-0.6 -0.3,-1.4 -0.4,-1.8 -0.2,-0.4 -0.5,-0.5 -0.7,-0.6 -0.3,0 -0.7,0 -1,0 0,0 -0.2,0.1 -0.2,0.2 7e-4,2.8 0,5.8 0,6.9 0,0.2 0.1,0.7 0.5,0.9 0.3,0.1 0.8,0.2 1.5,0.3 0.1,0.1 0,1.1 -0.2,1.3 -1.2,0 -2.8,-0.1 -4,-0.1 -1.2,0 -2.4,0.1 -3.6,0.1 -0.2,-0.1 -0.2,-1.1 0,-1.3 0.6,-0.1 1,-0.1 1.2,-0.2 z" fill="#391303" fill-rule="evenodd"/>
<path d="m 285.2,122.5 c 0,0.1 0.1,0.2 0.2,0.2 0.7,0 2.3,0.1 2.8,0 0.1,0 0.2,-0.1 0.2,-0.2 -0.1,-1.7 -0.7,-2.8 -1.7,-2.8 -0.9,-1e-4 -1.5,1.4 -1.5,2.9 z m 7,3.9 c 0,0.4 -0.1,1 -0.2,1.1 -1.1,1.5 -3.3,2.4 -5.1,2.4 -1.7,0 -2.8,-0.5 -3.6,-1.3 -1.2,-1.1 -1.6,-2.9 -1.6,-4.4 2e-4,-2.2 1,-4 2.5,-4.9 1,-0.6 2.2,-1 3.3,-1 3.3,0 4.3,2.6 4.5,4 0,0.2 0.4,0.4 0.5,0.5 0,0.1 -0.2,0.9 -0.2,1 -0.8,0.3 -4.7,0.5 -6.8,0.6 -0.1,0 -0.1,0.2 -0.1,0.3 0.1,0.7 0.4,1.4 1.1,1.9 0.6,0.5 1.3,0.7 2.4,0.7 1.2,0 2.1,-0.3 3.3,-1.1 0,0 0.1,0.1 0.1,0.2 z" fill="#391303" fill-rule="evenodd"/>
<path d="m 298.1,126.7 c 0.5,-1.1 1.6,-3.8 2.3,-5.7 0.2,-0.4 0.2,-0.6 -0.1,-1.2 0,-0.1 0,-0.2 0.1,-0.3 0.4,-0.3 2.5,-1.2 2.6,-1.2 0.1,0 0.3,0.1 0.3,0.2 0.8,2.1 2.8,7 3.5,8.5 0.5,1.2 1,1.2 2.2,1.4 0.1,0.1 0,1.1 -0.1,1.3 -0.7,0 -2.8,-0.1 -3.5,-0.1 -0.8,0 -2.5,0.1 -3,0.1 -0.2,0 -0.2,-1.2 -0.2,-1.3 0.2,-0.1 0.6,-0.1 0.8,-0.2 0.1,0 0.3,-0.2 0.1,-0.5 -0.5,-1.3 -1.2,-3.1 -1.9,-4.6 0,0 -0.1,0 -0.2,0 -0.7,1.9 -1.2,3.7 -1.4,4.1 -0.1,0.4 0,0.8 0.2,0.9 0.2,0.1 0.6,0.2 1.3,0.4 0.1,0.1 0,1.2 -0.2,1.3 -0.4,0 -2,-0.1 -2.7,-0.1 -0.7,0 -2,0.1 -2.4,0.1 -0.2,-0.2 -0.2,-1.2 -0.1,-1.3 1.7,-0.3 1.7,-0.4 2.3,-1.7 z" fill="#391303" fill-rule="evenodd"/>
<path d="m 317.4,127.7 c 0,0.4 0.5,0.8 1.1,0.8 0.6,-1e-4 1.5,-0.5 1.5,-2.3 3e-4,-1.4 -0.7,-2.7 -2.6,-2.7 z m -4.3,0.6 c 0.5,-0.2 0.7,-0.4 0.7,-1.1 7e-4,-1.2 0,-1.9 0,-3.1 7e-4,-1 0,-2.4 0,-3.2 0,-0.4 -0.2,-0.7 -0.6,-0.8 -0.2,-0.1 -0.5,-0.1 -0.8,-0.2 -0.1,-0.1 0,-1.2 0.1,-1.3 0.5,0 1.3,0.1 3.1,0.1 1.9,0 2.9,-0.1 3.1,-0.1 0.1,0.1 0.2,1.2 0,1.3 l -0.7,0.2 c -0.4,0.1 -0.6,0.3 -0.6,0.7 l 0,1.6 c 0.6,0 1.8,-0.1 2.3,-0.1 2.1,0 3.9,1.1 3.9,3.5 7e-4,1.4 -0.7,2.6 -2.1,3.4 -0.9,0.5 -2.1,0.7 -4.1,0.7 -1.9,0 -3.2,0 -5.2,0 -0.1,-0.2 -0.2,-1.1 0,-1.3 0.5,-0.1 0.7,-0.1 0.9,-0.2 z" fill="#391303" fill-rule="evenodd"/>
<path d="m 362.6,127.1 c 0.8,-0.9 1.5,-1.8 2.1,-2.5 0.1,0 0.1,-0.2 0,-0.3 -0.6,-1.2 -1.4,-2.4 -2,-3.2 -0.5,-0.7 -0.7,-1 -2.4,-1.2 -0.1,-0.2 0,-1.1 0.1,-1.3 0.2,0 2.1,0.1 3.3,0.1 1.4,0 3.1,0 3.4,-0.1 0.1,0.2 0.1,1.1 0.1,1.3 -0.2,0 -0.5,0.1 -0.6,0.2 -0.2,0.1 -0.2,0.3 -0.1,0.4 0.3,0.6 0.6,1.3 1,1.8 0,0.1 0.1,0 0.1,0 0.5,-0.6 0.9,-1.3 1.1,-1.6 0.1,-0.2 0.2,-0.4 -0.1,-0.5 -0.2,-0.1 -0.5,-0.2 -0.8,-0.2 0,-0.3 0,-1.1 0.1,-1.3 0.4,0 1.3,0.1 2.2,0.1 1.5,0 2,0 2.4,-0.1 0.1,0.2 0.2,1 0.1,1.3 -1.4,0.3 -1.6,0.5 -2.2,1.1 -0.7,0.7 -1.5,1.8 -2,2.5 0,0 0,0.1 0,0.2 0.6,1 1.1,1.9 1.7,2.7 1.1,1.5 0.9,1.8 2.9,2.1 0.1,0.2 -0.1,1.2 -0.2,1.3 -0.7,0 -2.4,-0.1 -3.3,-0.1 l -3.2,0.1 c -0.1,-0.2 -0.2,-1.1 -0.1,-1.3 0.2,0 0.5,-0.1 0.6,-0.2 0.1,-0.1 0.1,-0.3 0,-0.4 -0.3,-0.5 -0.6,-1 -1.2,-1.9 0,0 -0.1,0 -0.1,0 -0.7,1 -1.2,1.7 -1.2,1.9 0,0.2 0,0.4 0.3,0.5 0.2,0.1 0.4,0.1 0.8,0.2 0.1,0.2 0,1 -0.2,1.3 -0.4,0 -1.4,-0.1 -2.2,-0.1 -1,0 -2.5,0.1 -2.9,0.1 -0.1,-0.2 -0.2,-1.1 0,-1.3 1.5,-0.2 1.7,-0.3 2.6,-1.3 z" fill="#391303" fill-rule="evenodd"/>
<path d="m 381.7,119.9 c -0.6,0.4 -1.1,1.3 -1.1,3.3 4e-4,3.6 1.1,5.4 2.6,5.4 0.3,-1e-4 0.6,-0.1 0.8,-0.3 0.6,-0.4 1,-1.4 1,-3.5 5e-4,-3.2 -1,-5 -2.6,-5 -0.3,-1e-4 -0.4,0.1 -0.7,0.2 z m 7.4,4.1 c 0,2.3 -1,3.9 -2.4,4.8 -1,0.6 -2.7,1.1 -4,1.1 -4.3,0 -6,-2.5 -6,-5.8 5e-4,-2 0.9,-3.7 2.4,-4.6 0.9,-0.6 2.4,-1.1 4,-1.1 4,0 6,2.6 6,5.7 z" fill="#391303" fill-rule="evenodd"/>
<path d="m 399.6,129.9 c -1.8,0 -3.3,-0.7 -4.3,-2 -0.8,-1 -1.1,-2.4 -1.1,-3.7 0,-1.8 1.1,-3.8 2.8,-4.8 1,-0.6 2.7,-1.2 4.1,-1.2 1.3,0 1.9,0.2 2.5,0.4 0.2,0.1 0.8,0.3 1,0.8 0.1,0.2 0.1,0.4 0,0.6 -0.2,0.6 -1,1.5 -1.3,1.7 -0.1,0 -0.4,0.1 -0.5,0 -0.6,-0.6 -1.6,-2 -2.8,-2 -1.2,-1e-4 -2.1,1.3 -2.1,3.2 3e-4,1 0.2,2.1 0.9,3 0.8,1 1.8,1.3 2.8,1.3 1,0 1.9,-0.3 3.1,-1.1 0.1,0.1 0.2,0.1 0.2,0.3 0.1,0.3 0,1 -0.3,1.3 -1.3,1.6 -3.3,2.2 -4.8,2.2 z" fill="#391303" fill-rule="evenodd"/>
<path d="m 411.8,128.2 c 0.6,-0.1 0.7,-0.4 0.8,-1.1 0.1,-2 0.1,-3.6 0.1,-6.7 5e-4,0 -0.1,-0.2 -0.2,-0.2 -0.2,0 -0.5,0 -0.7,0 -0.3,-1e-4 -0.6,0.2 -0.9,0.8 -0.2,0.5 -0.5,1.1 -0.7,1.7 -0.1,0.1 -1.2,-0.1 -1.4,-0.3 0.2,-0.8 0.4,-2.7 0.5,-3.8 0.1,0 0.1,0 0.2,0 0.5,0.1 1.1,0.2 2,0.2 h 6.4 c 1.3,0 2.2,-0.1 2.6,-0.2 l 0.1,0.1 c -0.2,1 -0.4,2.6 -0.5,3.9 -0.2,0.1 -1.3,0.1 -1.4,0 -0.1,-0.6 -0.3,-1.4 -0.4,-1.8 -0.2,-0.4 -0.5,-0.5 -0.7,-0.6 -0.3,0 -0.7,0 -1,0 0,0 -0.2,0.1 -0.2,0.2 5e-4,2.8 0,5.8 0,6.9 0,0.2 0.1,0.7 0.5,0.9 0.3,0.1 0.8,0.2 1.5,0.3 0.1,0.1 0,1.1 -0.2,1.3 -1.2,0 -2.8,-0.1 -4,-0.1 -1.2,0 -2.4,0.1 -3.6,0.1 -0.2,-0.1 -0.2,-1.1 0,-1.3 0.6,-0.1 1,-0.1 1.2,-0.2 z" fill="#391303" fill-rule="evenodd"/>
<path d="m 428.1,122.5 c 0,0.1 0.1,0.2 0.2,0.2 0.8,0 2.3,0.1 2.8,0 0.1,0 0.2,-0.1 0.2,-0.2 -0.1,-1.7 -0.7,-2.8 -1.7,-2.8 -0.9,-1e-4 -1.5,1.4 -1.5,2.9 z m 7,3.9 c 0,0.4 -0.1,1 -0.2,1.1 -1.1,1.5 -3.3,2.4 -5.1,2.4 -1.7,0 -2.8,-0.5 -3.6,-1.3 -1.2,-1.1 -1.6,-2.9 -1.6,-4.4 0,-2.2 1,-4 2.5,-4.9 1,-0.6 2.2,-1 3.3,-1 3.3,0 4.3,2.6 4.5,4 0,0.2 0.4,0.4 0.5,0.5 0,0.1 -0.2,0.9 -0.2,1 -0.8,0.3 -4.7,0.5 -6.8,0.6 -0.1,0 -0.1,0.2 -0.1,0.3 0.1,0.7 0.4,1.4 1.1,1.9 0.6,0.5 1.3,0.7 2.4,0.7 1.2,0 2.1,-0.3 3.3,-1.1 0,0 0.1,0.1 0.1,0.2 z" fill="#391303" fill-rule="evenodd"/>
<path d="m 441,126.7 c 0.5,-1.1 1.6,-3.8 2.3,-5.7 0.2,-0.4 0.2,-0.6 -0.1,-1.2 0,-0.1 0,-0.2 0.1,-0.3 0.4,-0.3 2.5,-1.2 2.6,-1.2 0.1,0 0.3,0.1 0.3,0.2 0.8,2.1 2.8,7 3.5,8.5 0.5,1.2 1,1.2 2.2,1.4 0.1,0.1 0,1.1 -0.1,1.3 -0.7,0 -2.8,-0.1 -3.5,-0.1 -0.8,0 -2.5,0.1 -3,0.1 -0.2,0 -0.2,-1.2 -0.2,-1.3 0.2,-0.1 0.6,-0.1 0.8,-0.2 0.1,0 0.3,-0.2 0.1,-0.5 -0.5,-1.3 -1.2,-3.1 -1.9,-4.6 0,0 -0.1,0 -0.2,0 -0.7,1.9 -1.2,3.7 -1.4,4.1 -0.1,0.4 0,0.8 0.2,0.9 0.2,0.1 0.6,0.2 1.3,0.4 0.1,0.1 0,1.2 -0.2,1.3 -0.4,0 -2,-0.1 -2.7,-0.1 -0.7,0 -2,0.1 -2.4,0.1 -0.2,-0.2 -0.2,-1.2 -0.1,-1.3 1.7,-0.3 1.7,-0.4 2.3,-1.7 z" fill="#391303" fill-rule="evenodd"/>
<path d="m 293.1,23.9 c -1.2,0 -2.1,0.3 -2.9,0.8 -1.1,0.8 -2.1,2.2 -1.5,4.6 -0.7,0.9 -1.1,1.9 -1.2,3.7 0,0.1 -0.1,0.2 -0.2,0.3 -0.5,0.7 -1.9,2.6 -0.4,5.2 -0.3,0.6 -0.8,1.6 -0.6,2.9 0.1,0.8 0.4,2.3 1.4,3.4 -1.6,1.3 -3.5,3 -4.8,4.7 -0.2,0.3 -0.5,0.7 -0.8,1 -1.5,2 -4.3,5.7 -6.1,6.7 -3.6,2.2 -7.9,9.5 -5.3,21.1 1.4,6.1 1.6,9.3 1.7,11.1 0.1,1.6 0.2,2.9 1.5,3.9 0.5,0.4 1.2,0.6 1.9,0.6 1.2,-10e-5 2.7,-0.5 4.9,-4.2 0.8,-1.3 2.1,-3.7 2.4,-6.1 0.8,-0.1 2,-0.4 2.8,-1.6 0.8,-1.1 0.7,-2.4 0.7,-3.4 0,-0.2 0,-0.6 0,-0.8 0.2,-0.1 0.4,-0.1 0.8,-0.2 0.7,-0.1 1.8,-0.3 2.8,-1.1 1.8,-1.5 1.4,-3.6 1.2,-4.8 -0.1,-0.3 -0.1,-0.7 -0.1,-1.1 0.1,0 0.3,0 0.4,-0.1 1.7,-0.3 3,-1.6 3.3,-3.3 0.3,-1.5 -0.1,-3 -1,-4.2 0.4,-0.8 0.8,-1.9 0.6,-3.2 -0.1,-0.7 -0.6,-2 -2.1,-2.7 l 0.3,-0.4 c 0.9,-1.2 1.6,-2.2 1.9,-3.3 0.5,0.2 0.9,0.2 1.2,0.2 1,0 1.8,-0.4 2.4,-0.9 0.4,0.1 0.7,0.1 0.9,0.1 1.2,0 2.1,-0.6 2.4,-0.9 0.3,-0.3 0.7,-0.5 1,-0.8 0.5,-0.5 1.5,-1.3 1.9,-1.3 0.1,0 0.3,0.1 0.4,0.2 0.7,0.4 0.9,0.7 1.1,0.9 0.7,1 1.6,1.5 2.7,1.5 1.6,0 2.4,-1.1 2.8,-1.6 0.2,-0.2 0.3,-0.4 0.6,-0.8 1,-1.2 3.2,-2.8 4.8,-4 1.4,-1 2.1,-1.6 2.6,-2.1 0.4,-0.2 1.5,-0.8 1.8,-2.2 0.4,-1.6 -0.5,-2.9 -1.1,-3.9 -1.1,-1.7 -2.5,-2.5 -4.2,-2.5 -0.6,-10e-5 -1.2,0.1 -1.6,0.2 -0.4,0.1 -0.7,0.2 -1,0.2 -1.3,-10e-5 -2.5,0.4 -3.5,0.7 -0.3,-0.4 -0.6,-0.9 -1.1,-1.3 0.5,-0.8 0.8,-1.8 0.6,-2.8 -0.3,-2 -1.9,-3.7 -4.7,-5 -2.8,-1.2 -8.4,-3.2 -11.5,-3.2 z m 0,3 c 2.4,0 7.4,1.7 10.3,3 3.5,1.6 3.3,3.2 2.5,3.8 -0.8,0.7 -2.4,1.9 -0.5,2.7 1.9,0.8 1.9,1.8 2.7,2.9 0.2,0.3 0.5,0.4 0.8,0.4 1.1,-1e-4 2.7,-1 4.4,-1 1.2,0 2,-0.4 2.7,-0.4 0.6,-10e-5 1.1,0.3 1.8,1.2 1.4,2.1 0.4,1.4 -0.3,2.3 -0.7,0.9 -5.6,3.9 -7.6,6.3 -0.8,1 -1,1.3 -1.2,1.3 -0.2,0 -0.4,-0.8 -2.2,-1.9 -0.7,-0.4 -1.4,-0.6 -2,-0.6 -2,0 -3.6,1.9 -4.7,2.7 -0.3,0.2 -0.5,0.3 -0.6,0.3 -0.5,0 -0.2,-1.4 -0.9,-1.6 0,0 -0.1,0 -0.1,0 -0.8,-10e-5 -1.3,2.5 -2.2,2.5 -0.2,-10e-5 -0.3,-0.1 -0.5,-0.2 -0.6,-0.5 -1.3,-0.7 -2,-0.7 -0.9,-1e-4 -1.7,0.5 -1.6,1.4 0.2,1.6 -0.1,2 -1.8,4.3 -1.6,2.3 -1.3,2.7 -1,3.8 0.1,0.5 0.7,0.5 1.2,0.5 0,0 0.1,0 0.1,0 0.6,0 1.3,0 1.4,0.6 0.2,1.2 -1.8,3.1 -0.5,4 1.3,0.9 1.3,3 0,3.2 -1.3,0.2 -2.1,-0.4 -2.7,1.6 -0.6,2.1 0.7,4.2 -0.1,5 -0.9,0.7 -2,0.2 -3.7,1.3 -1.7,1.2 -0.5,4 -1.1,4.9 -0.6,0.9 -2.9,-0.5 -3.2,2.7 -0.3,3.1 -3.5,7.9 -4.3,7.9 0,0 -0.1,0 -0.1,0 -0.6,-0.4 0.2,-3.2 -2.1,-13.2 -2.3,-10 1.3,-16.3 3.9,-17.9 2.6,-1.5 5.9,-6.2 7.7,-8.5 1.8,-2.3 4.9,-4.8 6.3,-5.6 1.4,-0.8 2,-4.3 2,-4.9 0,-0.7 0.8,-1.6 1.3,-2.4 0.3,-0.5 0,-0.6 -0.5,-0.6 -0.4,0 -0.9,0.1 -1.5,0.2 -1.3,0.3 -2,1.9 -1.3,3.3 0.6,1.4 -0.6,1.9 -0.6,1.9 -1.1,-10e-5 -1.4,-0.8 -1.5,-2 -0.1,-1.2 1.6,-2 0.4,-3.8 -1.3,-1.8 0.7,-1.9 0.8,-4 0.1,-2.1 0.7,-1.8 1.3,-3 0.5,-1.2 -1,-2.1 0.2,-3 0.2,-0.2 0.6,-0.2 1.1,-0.2 z" fill="#391303" fill-rule="evenodd"/>
<path d="M 452,105.8 H 162.2 v -4.4 h 289.8 z" fill="#391303" fill-rule="evenodd"/>
<path d="m 341.8,113.5 c -0.7,0.4 -2,2.7 -2.4,5 -0.7,-0.6 -1.3,-1.3 -2,-1.9 -1.4,3 1.6,10 2.8,13.4 h 3.4 c 1.1,-3.3 4.1,-10.4 2.8,-13.4 -0.7,0.7 -1.3,1.3 -2,2 -0.4,-2.3 -1.8,-4.6 -2.4,-5 z" fill="#391303" fill-rule="evenodd"/>
</svg>
